%TF.GenerationSoftware,KiCad,Pcbnew,5.1.9*%
%TF.CreationDate,2021-03-30T17:04:31-04:00*%
%TF.ProjectId,weather_station,77656174-6865-4725-9f73-746174696f6e,rev?*%
%TF.SameCoordinates,Original*%
%TF.FileFunction,Soldermask,Bot*%
%TF.FilePolarity,Negative*%
%FSLAX46Y46*%
G04 Gerber Fmt 4.6, Leading zero omitted, Abs format (unit mm)*
G04 Created by KiCad (PCBNEW 5.1.9) date 2021-03-30 17:04:31*
%MOMM*%
%LPD*%
G01*
G04 APERTURE LIST*
%ADD10C,6.500000*%
%ADD11C,2.700000*%
%ADD12C,1.660000*%
G04 APERTURE END LIST*
D10*
%TO.C,H1*%
X113030000Y-64770000D03*
%TD*%
%TO.C,H2*%
X161290000Y-123190000D03*
%TD*%
%TO.C,H3*%
X161290000Y-64770000D03*
%TD*%
%TO.C,H4*%
X113030000Y-123190000D03*
%TD*%
%TO.C,J3*%
G36*
G01*
X135810000Y-124490000D02*
X135810000Y-121890000D01*
G75*
G02*
X135860000Y-121840000I50000J0D01*
G01*
X138460000Y-121840000D01*
G75*
G02*
X138510000Y-121890000I0J-50000D01*
G01*
X138510000Y-124490000D01*
G75*
G02*
X138460000Y-124540000I-50000J0D01*
G01*
X135860000Y-124540000D01*
G75*
G02*
X135810000Y-124490000I0J50000D01*
G01*
G37*
D11*
X142160000Y-123190000D03*
%TD*%
%TO.C,U2*%
G36*
G01*
X126170000Y-67380000D02*
X126170000Y-65820000D01*
G75*
G02*
X126220000Y-65770000I50000J0D01*
G01*
X127780000Y-65770000D01*
G75*
G02*
X127830000Y-65820000I0J-50000D01*
G01*
X127830000Y-67380000D01*
G75*
G02*
X127780000Y-67430000I-50000J0D01*
G01*
X126220000Y-67430000D01*
G75*
G02*
X126170000Y-67380000I0J50000D01*
G01*
G37*
D12*
X127000000Y-69140000D03*
X127000000Y-112320000D03*
X127000000Y-71680000D03*
X127000000Y-74220000D03*
X127000000Y-76760000D03*
X127000000Y-79300000D03*
X127000000Y-81840000D03*
X127000000Y-84380000D03*
X127000000Y-86920000D03*
X127000000Y-89460000D03*
X127000000Y-92000000D03*
X127000000Y-94540000D03*
X127000000Y-97080000D03*
X127000000Y-99620000D03*
X127000000Y-102160000D03*
X127000000Y-104700000D03*
X127000000Y-107240000D03*
X127000000Y-109780000D03*
X152400000Y-66600000D03*
X152400000Y-69140000D03*
X152400000Y-71680000D03*
X152400000Y-74220000D03*
X152400000Y-76760000D03*
X152400000Y-79300000D03*
X152400000Y-81840000D03*
X152400000Y-84380000D03*
X152400000Y-86920000D03*
X152400000Y-89460000D03*
X152400000Y-92000000D03*
X152400000Y-94540000D03*
X152400000Y-97080000D03*
X152400000Y-99620000D03*
X152400000Y-102160000D03*
X152400000Y-104700000D03*
X152400000Y-107240000D03*
X152400000Y-109780000D03*
X152400000Y-112320000D03*
%TD*%
%TO.C,J1*%
G36*
G01*
X110460000Y-74850000D02*
X113060000Y-74850000D01*
G75*
G02*
X113110000Y-74900000I0J-50000D01*
G01*
X113110000Y-77500000D01*
G75*
G02*
X113060000Y-77550000I-50000J0D01*
G01*
X110460000Y-77550000D01*
G75*
G02*
X110410000Y-77500000I0J50000D01*
G01*
X110410000Y-74900000D01*
G75*
G02*
X110460000Y-74850000I50000J0D01*
G01*
G37*
D11*
X111760000Y-81200000D03*
%TD*%
%TO.C,J2*%
G36*
G01*
X110460000Y-92630000D02*
X113060000Y-92630000D01*
G75*
G02*
X113110000Y-92680000I0J-50000D01*
G01*
X113110000Y-95280000D01*
G75*
G02*
X113060000Y-95330000I-50000J0D01*
G01*
X110460000Y-95330000D01*
G75*
G02*
X110410000Y-95280000I0J50000D01*
G01*
X110410000Y-92680000D01*
G75*
G02*
X110460000Y-92630000I50000J0D01*
G01*
G37*
X111760000Y-98980000D03*
X111760000Y-103980000D03*
%TD*%
M02*
