%TF.GenerationSoftware,KiCad,Pcbnew,5.1.9*%
%TF.CreationDate,2021-03-30T17:04:31-04:00*%
%TF.ProjectId,weather_station,77656174-6865-4725-9f73-746174696f6e,rev?*%
%TF.SameCoordinates,Original*%
%TF.FileFunction,Soldermask,Top*%
%TF.FilePolarity,Negative*%
%FSLAX46Y46*%
G04 Gerber Fmt 4.6, Leading zero omitted, Abs format (unit mm)*
G04 Created by KiCad (PCBNEW 5.1.9) date 2021-03-30 17:04:31*
%MOMM*%
%LPD*%
G01*
G04 APERTURE LIST*
%ADD10C,6.500000*%
%ADD11C,2.700000*%
%ADD12C,1.660000*%
G04 APERTURE END LIST*
%TO.C,C3*%
G36*
G01*
X122182500Y-93680000D02*
X121657500Y-93680000D01*
G75*
G02*
X121395000Y-93417500I0J262500D01*
G01*
X121395000Y-92792500D01*
G75*
G02*
X121657500Y-92530000I262500J0D01*
G01*
X122182500Y-92530000D01*
G75*
G02*
X122445000Y-92792500I0J-262500D01*
G01*
X122445000Y-93417500D01*
G75*
G02*
X122182500Y-93680000I-262500J0D01*
G01*
G37*
G36*
G01*
X122182500Y-95430000D02*
X121657500Y-95430000D01*
G75*
G02*
X121395000Y-95167500I0J262500D01*
G01*
X121395000Y-94542500D01*
G75*
G02*
X121657500Y-94280000I262500J0D01*
G01*
X122182500Y-94280000D01*
G75*
G02*
X122445000Y-94542500I0J-262500D01*
G01*
X122445000Y-95167500D01*
G75*
G02*
X122182500Y-95430000I-262500J0D01*
G01*
G37*
%TD*%
%TO.C,R5*%
G36*
G01*
X121657500Y-83245000D02*
X122182500Y-83245000D01*
G75*
G02*
X122445000Y-83507500I0J-262500D01*
G01*
X122445000Y-84132500D01*
G75*
G02*
X122182500Y-84395000I-262500J0D01*
G01*
X121657500Y-84395000D01*
G75*
G02*
X121395000Y-84132500I0J262500D01*
G01*
X121395000Y-83507500D01*
G75*
G02*
X121657500Y-83245000I262500J0D01*
G01*
G37*
G36*
G01*
X121657500Y-81495000D02*
X122182500Y-81495000D01*
G75*
G02*
X122445000Y-81757500I0J-262500D01*
G01*
X122445000Y-82382500D01*
G75*
G02*
X122182500Y-82645000I-262500J0D01*
G01*
X121657500Y-82645000D01*
G75*
G02*
X121395000Y-82382500I0J262500D01*
G01*
X121395000Y-81757500D01*
G75*
G02*
X121657500Y-81495000I262500J0D01*
G01*
G37*
%TD*%
%TO.C,R4*%
G36*
G01*
X122182500Y-105110000D02*
X121657500Y-105110000D01*
G75*
G02*
X121395000Y-104847500I0J262500D01*
G01*
X121395000Y-104222500D01*
G75*
G02*
X121657500Y-103960000I262500J0D01*
G01*
X122182500Y-103960000D01*
G75*
G02*
X122445000Y-104222500I0J-262500D01*
G01*
X122445000Y-104847500D01*
G75*
G02*
X122182500Y-105110000I-262500J0D01*
G01*
G37*
G36*
G01*
X122182500Y-106860000D02*
X121657500Y-106860000D01*
G75*
G02*
X121395000Y-106597500I0J262500D01*
G01*
X121395000Y-105972500D01*
G75*
G02*
X121657500Y-105710000I262500J0D01*
G01*
X122182500Y-105710000D01*
G75*
G02*
X122445000Y-105972500I0J-262500D01*
G01*
X122445000Y-106597500D01*
G75*
G02*
X122182500Y-106860000I-262500J0D01*
G01*
G37*
%TD*%
%TO.C,R3*%
G36*
G01*
X121657500Y-75625000D02*
X122182500Y-75625000D01*
G75*
G02*
X122445000Y-75887500I0J-262500D01*
G01*
X122445000Y-76512500D01*
G75*
G02*
X122182500Y-76775000I-262500J0D01*
G01*
X121657500Y-76775000D01*
G75*
G02*
X121395000Y-76512500I0J262500D01*
G01*
X121395000Y-75887500D01*
G75*
G02*
X121657500Y-75625000I262500J0D01*
G01*
G37*
G36*
G01*
X121657500Y-73875000D02*
X122182500Y-73875000D01*
G75*
G02*
X122445000Y-74137500I0J-262500D01*
G01*
X122445000Y-74762500D01*
G75*
G02*
X122182500Y-75025000I-262500J0D01*
G01*
X121657500Y-75025000D01*
G75*
G02*
X121395000Y-74762500I0J262500D01*
G01*
X121395000Y-74137500D01*
G75*
G02*
X121657500Y-73875000I262500J0D01*
G01*
G37*
%TD*%
%TO.C,C1*%
G36*
G01*
X122182500Y-70425000D02*
X121657500Y-70425000D01*
G75*
G02*
X121395000Y-70162500I0J262500D01*
G01*
X121395000Y-69537500D01*
G75*
G02*
X121657500Y-69275000I262500J0D01*
G01*
X122182500Y-69275000D01*
G75*
G02*
X122445000Y-69537500I0J-262500D01*
G01*
X122445000Y-70162500D01*
G75*
G02*
X122182500Y-70425000I-262500J0D01*
G01*
G37*
G36*
G01*
X122182500Y-72175000D02*
X121657500Y-72175000D01*
G75*
G02*
X121395000Y-71912500I0J262500D01*
G01*
X121395000Y-71287500D01*
G75*
G02*
X121657500Y-71025000I262500J0D01*
G01*
X122182500Y-71025000D01*
G75*
G02*
X122445000Y-71287500I0J-262500D01*
G01*
X122445000Y-71912500D01*
G75*
G02*
X122182500Y-72175000I-262500J0D01*
G01*
G37*
%TD*%
%TO.C,C2*%
G36*
G01*
X161505000Y-81542500D02*
X161505000Y-81017500D01*
G75*
G02*
X161767500Y-80755000I262500J0D01*
G01*
X162392500Y-80755000D01*
G75*
G02*
X162655000Y-81017500I0J-262500D01*
G01*
X162655000Y-81542500D01*
G75*
G02*
X162392500Y-81805000I-262500J0D01*
G01*
X161767500Y-81805000D01*
G75*
G02*
X161505000Y-81542500I0J262500D01*
G01*
G37*
G36*
G01*
X163255000Y-81542500D02*
X163255000Y-81017500D01*
G75*
G02*
X163517500Y-80755000I262500J0D01*
G01*
X164142500Y-80755000D01*
G75*
G02*
X164405000Y-81017500I0J-262500D01*
G01*
X164405000Y-81542500D01*
G75*
G02*
X164142500Y-81805000I-262500J0D01*
G01*
X163517500Y-81805000D01*
G75*
G02*
X163255000Y-81542500I0J262500D01*
G01*
G37*
%TD*%
D10*
%TO.C,H1*%
X113030000Y-64770000D03*
%TD*%
%TO.C,H2*%
X161290000Y-123190000D03*
%TD*%
%TO.C,H3*%
X161290000Y-64770000D03*
%TD*%
%TO.C,H4*%
X113030000Y-123190000D03*
%TD*%
%TO.C,J3*%
G36*
G01*
X135810000Y-124490000D02*
X135810000Y-121890000D01*
G75*
G02*
X135860000Y-121840000I50000J0D01*
G01*
X138460000Y-121840000D01*
G75*
G02*
X138510000Y-121890000I0J-50000D01*
G01*
X138510000Y-124490000D01*
G75*
G02*
X138460000Y-124540000I-50000J0D01*
G01*
X135860000Y-124540000D01*
G75*
G02*
X135810000Y-124490000I0J50000D01*
G01*
G37*
D11*
X142160000Y-123190000D03*
%TD*%
%TO.C,R1*%
G36*
G01*
X157217500Y-68795000D02*
X157742500Y-68795000D01*
G75*
G02*
X158005000Y-69057500I0J-262500D01*
G01*
X158005000Y-69682500D01*
G75*
G02*
X157742500Y-69945000I-262500J0D01*
G01*
X157217500Y-69945000D01*
G75*
G02*
X156955000Y-69682500I0J262500D01*
G01*
X156955000Y-69057500D01*
G75*
G02*
X157217500Y-68795000I262500J0D01*
G01*
G37*
G36*
G01*
X157217500Y-70545000D02*
X157742500Y-70545000D01*
G75*
G02*
X158005000Y-70807500I0J-262500D01*
G01*
X158005000Y-71432500D01*
G75*
G02*
X157742500Y-71695000I-262500J0D01*
G01*
X157217500Y-71695000D01*
G75*
G02*
X156955000Y-71432500I0J262500D01*
G01*
X156955000Y-70807500D01*
G75*
G02*
X157217500Y-70545000I262500J0D01*
G01*
G37*
%TD*%
%TO.C,R2*%
G36*
G01*
X157742500Y-80585000D02*
X157217500Y-80585000D01*
G75*
G02*
X156955000Y-80322500I0J262500D01*
G01*
X156955000Y-79697500D01*
G75*
G02*
X157217500Y-79435000I262500J0D01*
G01*
X157742500Y-79435000D01*
G75*
G02*
X158005000Y-79697500I0J-262500D01*
G01*
X158005000Y-80322500D01*
G75*
G02*
X157742500Y-80585000I-262500J0D01*
G01*
G37*
G36*
G01*
X157742500Y-82335000D02*
X157217500Y-82335000D01*
G75*
G02*
X156955000Y-82072500I0J262500D01*
G01*
X156955000Y-81447500D01*
G75*
G02*
X157217500Y-81185000I262500J0D01*
G01*
X157742500Y-81185000D01*
G75*
G02*
X158005000Y-81447500I0J-262500D01*
G01*
X158005000Y-82072500D01*
G75*
G02*
X157742500Y-82335000I-262500J0D01*
G01*
G37*
%TD*%
%TO.C,U1*%
G36*
G01*
X163055000Y-77400000D02*
X162555000Y-77400000D01*
G75*
G02*
X162505000Y-77350000I0J50000D01*
G01*
X162505000Y-77000000D01*
G75*
G02*
X162555000Y-76950000I50000J0D01*
G01*
X163055000Y-76950000D01*
G75*
G02*
X163105000Y-77000000I0J-50000D01*
G01*
X163105000Y-77350000D01*
G75*
G02*
X163055000Y-77400000I-50000J0D01*
G01*
G37*
G36*
G01*
X163055000Y-76750000D02*
X162555000Y-76750000D01*
G75*
G02*
X162505000Y-76700000I0J50000D01*
G01*
X162505000Y-76350000D01*
G75*
G02*
X162555000Y-76300000I50000J0D01*
G01*
X163055000Y-76300000D01*
G75*
G02*
X163105000Y-76350000I0J-50000D01*
G01*
X163105000Y-76700000D01*
G75*
G02*
X163055000Y-76750000I-50000J0D01*
G01*
G37*
G36*
G01*
X163055000Y-76100000D02*
X162555000Y-76100000D01*
G75*
G02*
X162505000Y-76050000I0J50000D01*
G01*
X162505000Y-75700000D01*
G75*
G02*
X162555000Y-75650000I50000J0D01*
G01*
X163055000Y-75650000D01*
G75*
G02*
X163105000Y-75700000I0J-50000D01*
G01*
X163105000Y-76050000D01*
G75*
G02*
X163055000Y-76100000I-50000J0D01*
G01*
G37*
G36*
G01*
X163055000Y-75450000D02*
X162555000Y-75450000D01*
G75*
G02*
X162505000Y-75400000I0J50000D01*
G01*
X162505000Y-75050000D01*
G75*
G02*
X162555000Y-75000000I50000J0D01*
G01*
X163055000Y-75000000D01*
G75*
G02*
X163105000Y-75050000I0J-50000D01*
G01*
X163105000Y-75400000D01*
G75*
G02*
X163055000Y-75450000I-50000J0D01*
G01*
G37*
G36*
G01*
X165104999Y-75450000D02*
X164604999Y-75450000D01*
G75*
G02*
X164554999Y-75400000I0J50000D01*
G01*
X164554999Y-75050000D01*
G75*
G02*
X164604999Y-75000000I50000J0D01*
G01*
X165104999Y-75000000D01*
G75*
G02*
X165154999Y-75050000I0J-50000D01*
G01*
X165154999Y-75400000D01*
G75*
G02*
X165104999Y-75450000I-50000J0D01*
G01*
G37*
G36*
G01*
X165104999Y-76100000D02*
X164604999Y-76100000D01*
G75*
G02*
X164554999Y-76050000I0J50000D01*
G01*
X164554999Y-75700000D01*
G75*
G02*
X164604999Y-75650000I50000J0D01*
G01*
X165104999Y-75650000D01*
G75*
G02*
X165154999Y-75700000I0J-50000D01*
G01*
X165154999Y-76050000D01*
G75*
G02*
X165104999Y-76100000I-50000J0D01*
G01*
G37*
G36*
G01*
X165104999Y-76750000D02*
X164604999Y-76750000D01*
G75*
G02*
X164554999Y-76700000I0J50000D01*
G01*
X164554999Y-76350000D01*
G75*
G02*
X164604999Y-76300000I50000J0D01*
G01*
X165104999Y-76300000D01*
G75*
G02*
X165154999Y-76350000I0J-50000D01*
G01*
X165154999Y-76700000D01*
G75*
G02*
X165104999Y-76750000I-50000J0D01*
G01*
G37*
G36*
G01*
X165104999Y-77400000D02*
X164604999Y-77400000D01*
G75*
G02*
X164554999Y-77350000I0J50000D01*
G01*
X164554999Y-77000000D01*
G75*
G02*
X164604999Y-76950000I50000J0D01*
G01*
X165104999Y-76950000D01*
G75*
G02*
X165154999Y-77000000I0J-50000D01*
G01*
X165154999Y-77350000D01*
G75*
G02*
X165104999Y-77400000I-50000J0D01*
G01*
G37*
%TD*%
%TO.C,U2*%
G36*
G01*
X126170000Y-67380000D02*
X126170000Y-65820000D01*
G75*
G02*
X126220000Y-65770000I50000J0D01*
G01*
X127780000Y-65770000D01*
G75*
G02*
X127830000Y-65820000I0J-50000D01*
G01*
X127830000Y-67380000D01*
G75*
G02*
X127780000Y-67430000I-50000J0D01*
G01*
X126220000Y-67430000D01*
G75*
G02*
X126170000Y-67380000I0J50000D01*
G01*
G37*
D12*
X127000000Y-69140000D03*
X127000000Y-112320000D03*
X127000000Y-71680000D03*
X127000000Y-74220000D03*
X127000000Y-76760000D03*
X127000000Y-79300000D03*
X127000000Y-81840000D03*
X127000000Y-84380000D03*
X127000000Y-86920000D03*
X127000000Y-89460000D03*
X127000000Y-92000000D03*
X127000000Y-94540000D03*
X127000000Y-97080000D03*
X127000000Y-99620000D03*
X127000000Y-102160000D03*
X127000000Y-104700000D03*
X127000000Y-107240000D03*
X127000000Y-109780000D03*
X152400000Y-66600000D03*
X152400000Y-69140000D03*
X152400000Y-71680000D03*
X152400000Y-74220000D03*
X152400000Y-76760000D03*
X152400000Y-79300000D03*
X152400000Y-81840000D03*
X152400000Y-84380000D03*
X152400000Y-86920000D03*
X152400000Y-89460000D03*
X152400000Y-92000000D03*
X152400000Y-94540000D03*
X152400000Y-97080000D03*
X152400000Y-99620000D03*
X152400000Y-102160000D03*
X152400000Y-104700000D03*
X152400000Y-107240000D03*
X152400000Y-109780000D03*
X152400000Y-112320000D03*
%TD*%
%TO.C,U3*%
G36*
G01*
X158290000Y-95965000D02*
X157940000Y-95965000D01*
G75*
G02*
X157765000Y-95790000I0J175000D01*
G01*
X157765000Y-94315000D01*
G75*
G02*
X157940000Y-94140000I175000J0D01*
G01*
X158290000Y-94140000D01*
G75*
G02*
X158465000Y-94315000I0J-175000D01*
G01*
X158465000Y-95790000D01*
G75*
G02*
X158290000Y-95965000I-175000J0D01*
G01*
G37*
G36*
G01*
X159560000Y-95965000D02*
X159210000Y-95965000D01*
G75*
G02*
X159035000Y-95790000I0J175000D01*
G01*
X159035000Y-94315000D01*
G75*
G02*
X159210000Y-94140000I175000J0D01*
G01*
X159560000Y-94140000D01*
G75*
G02*
X159735000Y-94315000I0J-175000D01*
G01*
X159735000Y-95790000D01*
G75*
G02*
X159560000Y-95965000I-175000J0D01*
G01*
G37*
G36*
G01*
X160830000Y-95965000D02*
X160480000Y-95965000D01*
G75*
G02*
X160305000Y-95790000I0J175000D01*
G01*
X160305000Y-94315000D01*
G75*
G02*
X160480000Y-94140000I175000J0D01*
G01*
X160830000Y-94140000D01*
G75*
G02*
X161005000Y-94315000I0J-175000D01*
G01*
X161005000Y-95790000D01*
G75*
G02*
X160830000Y-95965000I-175000J0D01*
G01*
G37*
G36*
G01*
X162100000Y-95965000D02*
X161750000Y-95965000D01*
G75*
G02*
X161575000Y-95790000I0J175000D01*
G01*
X161575000Y-94315000D01*
G75*
G02*
X161750000Y-94140000I175000J0D01*
G01*
X162100000Y-94140000D01*
G75*
G02*
X162275000Y-94315000I0J-175000D01*
G01*
X162275000Y-95790000D01*
G75*
G02*
X162100000Y-95965000I-175000J0D01*
G01*
G37*
G36*
G01*
X162100000Y-88740000D02*
X161750000Y-88740000D01*
G75*
G02*
X161575000Y-88565000I0J175000D01*
G01*
X161575000Y-87090000D01*
G75*
G02*
X161750000Y-86915000I175000J0D01*
G01*
X162100000Y-86915000D01*
G75*
G02*
X162275000Y-87090000I0J-175000D01*
G01*
X162275000Y-88565000D01*
G75*
G02*
X162100000Y-88740000I-175000J0D01*
G01*
G37*
G36*
G01*
X160830000Y-88740000D02*
X160480000Y-88740000D01*
G75*
G02*
X160305000Y-88565000I0J175000D01*
G01*
X160305000Y-87090000D01*
G75*
G02*
X160480000Y-86915000I175000J0D01*
G01*
X160830000Y-86915000D01*
G75*
G02*
X161005000Y-87090000I0J-175000D01*
G01*
X161005000Y-88565000D01*
G75*
G02*
X160830000Y-88740000I-175000J0D01*
G01*
G37*
G36*
G01*
X159560000Y-88740000D02*
X159210000Y-88740000D01*
G75*
G02*
X159035000Y-88565000I0J175000D01*
G01*
X159035000Y-87090000D01*
G75*
G02*
X159210000Y-86915000I175000J0D01*
G01*
X159560000Y-86915000D01*
G75*
G02*
X159735000Y-87090000I0J-175000D01*
G01*
X159735000Y-88565000D01*
G75*
G02*
X159560000Y-88740000I-175000J0D01*
G01*
G37*
G36*
G01*
X158290000Y-88740000D02*
X157940000Y-88740000D01*
G75*
G02*
X157765000Y-88565000I0J175000D01*
G01*
X157765000Y-87090000D01*
G75*
G02*
X157940000Y-86915000I175000J0D01*
G01*
X158290000Y-86915000D01*
G75*
G02*
X158465000Y-87090000I0J-175000D01*
G01*
X158465000Y-88565000D01*
G75*
G02*
X158290000Y-88740000I-175000J0D01*
G01*
G37*
%TD*%
%TO.C,C4*%
G36*
G01*
X161110000Y-100592500D02*
X161110000Y-100067500D01*
G75*
G02*
X161372500Y-99805000I262500J0D01*
G01*
X162022500Y-99805000D01*
G75*
G02*
X162285000Y-100067500I0J-262500D01*
G01*
X162285000Y-100592500D01*
G75*
G02*
X162022500Y-100855000I-262500J0D01*
G01*
X161372500Y-100855000D01*
G75*
G02*
X161110000Y-100592500I0J262500D01*
G01*
G37*
G36*
G01*
X162835000Y-100592500D02*
X162835000Y-100067500D01*
G75*
G02*
X163097500Y-99805000I262500J0D01*
G01*
X163747500Y-99805000D01*
G75*
G02*
X164010000Y-100067500I0J-262500D01*
G01*
X164010000Y-100592500D01*
G75*
G02*
X163747500Y-100855000I-262500J0D01*
G01*
X163097500Y-100855000D01*
G75*
G02*
X162835000Y-100592500I0J262500D01*
G01*
G37*
%TD*%
%TO.C,R6*%
G36*
G01*
X158930000Y-100067500D02*
X158930000Y-100592500D01*
G75*
G02*
X158667500Y-100855000I-262500J0D01*
G01*
X158117500Y-100855000D01*
G75*
G02*
X157855000Y-100592500I0J262500D01*
G01*
X157855000Y-100067500D01*
G75*
G02*
X158117500Y-99805000I262500J0D01*
G01*
X158667500Y-99805000D01*
G75*
G02*
X158930000Y-100067500I0J-262500D01*
G01*
G37*
G36*
G01*
X157105000Y-100067500D02*
X157105000Y-100592500D01*
G75*
G02*
X156842500Y-100855000I-262500J0D01*
G01*
X156292500Y-100855000D01*
G75*
G02*
X156030000Y-100592500I0J262500D01*
G01*
X156030000Y-100067500D01*
G75*
G02*
X156292500Y-99805000I262500J0D01*
G01*
X156842500Y-99805000D01*
G75*
G02*
X157105000Y-100067500I0J-262500D01*
G01*
G37*
%TD*%
%TO.C,J1*%
G36*
G01*
X110460000Y-74850000D02*
X113060000Y-74850000D01*
G75*
G02*
X113110000Y-74900000I0J-50000D01*
G01*
X113110000Y-77500000D01*
G75*
G02*
X113060000Y-77550000I-50000J0D01*
G01*
X110460000Y-77550000D01*
G75*
G02*
X110410000Y-77500000I0J50000D01*
G01*
X110410000Y-74900000D01*
G75*
G02*
X110460000Y-74850000I50000J0D01*
G01*
G37*
D11*
X111760000Y-81200000D03*
%TD*%
%TO.C,J2*%
G36*
G01*
X110460000Y-92630000D02*
X113060000Y-92630000D01*
G75*
G02*
X113110000Y-92680000I0J-50000D01*
G01*
X113110000Y-95280000D01*
G75*
G02*
X113060000Y-95330000I-50000J0D01*
G01*
X110460000Y-95330000D01*
G75*
G02*
X110410000Y-95280000I0J50000D01*
G01*
X110410000Y-92680000D01*
G75*
G02*
X110460000Y-92630000I50000J0D01*
G01*
G37*
X111760000Y-98980000D03*
X111760000Y-103980000D03*
%TD*%
M02*
