M48
; DRILL file {KiCad 5.1.9} date Tue Mar 30 17:04:28 2021
; FORMAT={-:-/ absolute / inch / decimal}
; #@! TF.CreationDate,2021-03-30T17:04:28-04:00
; #@! TF.GenerationSoftware,Kicad,Pcbnew,5.1.9
; #@! TF.FileFunction,Plated,1,2,PTH
FMAT,2
INCH
T1C0.0157
T2C0.0409
T3C0.0512
T4C0.1260
%
G90
G05
T1
X4.6Y-3.4
X4.7Y-3.2
X4.9Y-2.95
X6.25Y-3.05
X6.3Y-2.95
X6.3Y-3.3
X6.3Y-3.85
X6.35Y-3.35
T2
X5.0Y-2.622
X5.0Y-2.722
X5.0Y-2.822
X5.0Y-2.922
X5.0Y-3.022
X5.0Y-3.122
X5.0Y-3.222
X5.0Y-3.322
X5.0Y-3.422
X5.0Y-3.522
X5.0Y-3.622
X5.0Y-3.722
X5.0Y-3.822
X5.0Y-3.922
X5.0Y-4.022
X5.0Y-4.122
X5.0Y-4.222
X5.0Y-4.322
X5.0Y-4.422
X6.0Y-2.622
X6.0Y-2.722
X6.0Y-2.822
X6.0Y-2.922
X6.0Y-3.022
X6.0Y-3.122
X6.0Y-3.222
X6.0Y-3.322
X6.0Y-3.422
X6.0Y-3.522
X6.0Y-3.622
X6.0Y-3.722
X6.0Y-3.822
X6.0Y-3.922
X6.0Y-4.022
X6.0Y-4.122
X6.0Y-4.222
X6.0Y-4.322
X6.0Y-4.422
T3
X4.4Y-3.0
X4.4Y-3.1969
X4.4Y-3.7
X4.4Y-3.8969
X4.4Y-4.0937
X5.4Y-4.85
X5.5969Y-4.85
T4
X4.45Y-2.55
X4.45Y-4.85
X6.35Y-2.55
X6.35Y-4.85
T0
M30
