%TF.GenerationSoftware,KiCad,Pcbnew,5.1.7-a382d34a8~88~ubuntu20.04.1*%
%TF.CreationDate,2021-03-16T20:42:08-04:00*%
%TF.ProjectId,weather_station,77656174-6865-4725-9f73-746174696f6e,rev?*%
%TF.SameCoordinates,Original*%
%TF.FileFunction,Paste,Top*%
%TF.FilePolarity,Positive*%
%FSLAX46Y46*%
G04 Gerber Fmt 4.6, Leading zero omitted, Abs format (unit mm)*
G04 Created by KiCad (PCBNEW 5.1.7-a382d34a8~88~ubuntu20.04.1) date 2021-03-16 20:42:08*
%MOMM*%
%LPD*%
G01*
G04 APERTURE LIST*
%ADD10R,0.500000X0.350000*%
G04 APERTURE END LIST*
%TO.C,C3*%
G36*
G01*
X143747500Y-76245000D02*
X143272500Y-76245000D01*
G75*
G02*
X143035000Y-76007500I0J237500D01*
G01*
X143035000Y-75432500D01*
G75*
G02*
X143272500Y-75195000I237500J0D01*
G01*
X143747500Y-75195000D01*
G75*
G02*
X143985000Y-75432500I0J-237500D01*
G01*
X143985000Y-76007500D01*
G75*
G02*
X143747500Y-76245000I-237500J0D01*
G01*
G37*
G36*
G01*
X143747500Y-77995000D02*
X143272500Y-77995000D01*
G75*
G02*
X143035000Y-77757500I0J237500D01*
G01*
X143035000Y-77182500D01*
G75*
G02*
X143272500Y-76945000I237500J0D01*
G01*
X143747500Y-76945000D01*
G75*
G02*
X143985000Y-77182500I0J-237500D01*
G01*
X143985000Y-77757500D01*
G75*
G02*
X143747500Y-77995000I-237500J0D01*
G01*
G37*
%TD*%
%TO.C,R5*%
G36*
G01*
X133112500Y-76945000D02*
X133587500Y-76945000D01*
G75*
G02*
X133825000Y-77182500I0J-237500D01*
G01*
X133825000Y-77757500D01*
G75*
G02*
X133587500Y-77995000I-237500J0D01*
G01*
X133112500Y-77995000D01*
G75*
G02*
X132875000Y-77757500I0J237500D01*
G01*
X132875000Y-77182500D01*
G75*
G02*
X133112500Y-76945000I237500J0D01*
G01*
G37*
G36*
G01*
X133112500Y-75195000D02*
X133587500Y-75195000D01*
G75*
G02*
X133825000Y-75432500I0J-237500D01*
G01*
X133825000Y-76007500D01*
G75*
G02*
X133587500Y-76245000I-237500J0D01*
G01*
X133112500Y-76245000D01*
G75*
G02*
X132875000Y-76007500I0J237500D01*
G01*
X132875000Y-75432500D01*
G75*
G02*
X133112500Y-75195000I237500J0D01*
G01*
G37*
%TD*%
%TO.C,R4*%
G36*
G01*
X138192500Y-77425000D02*
X138667500Y-77425000D01*
G75*
G02*
X138905000Y-77662500I0J-237500D01*
G01*
X138905000Y-78237500D01*
G75*
G02*
X138667500Y-78475000I-237500J0D01*
G01*
X138192500Y-78475000D01*
G75*
G02*
X137955000Y-78237500I0J237500D01*
G01*
X137955000Y-77662500D01*
G75*
G02*
X138192500Y-77425000I237500J0D01*
G01*
G37*
G36*
G01*
X138192500Y-75675000D02*
X138667500Y-75675000D01*
G75*
G02*
X138905000Y-75912500I0J-237500D01*
G01*
X138905000Y-76487500D01*
G75*
G02*
X138667500Y-76725000I-237500J0D01*
G01*
X138192500Y-76725000D01*
G75*
G02*
X137955000Y-76487500I0J237500D01*
G01*
X137955000Y-75912500D01*
G75*
G02*
X138192500Y-75675000I237500J0D01*
G01*
G37*
%TD*%
%TO.C,R3*%
G36*
G01*
X121682500Y-76155000D02*
X122157500Y-76155000D01*
G75*
G02*
X122395000Y-76392500I0J-237500D01*
G01*
X122395000Y-76967500D01*
G75*
G02*
X122157500Y-77205000I-237500J0D01*
G01*
X121682500Y-77205000D01*
G75*
G02*
X121445000Y-76967500I0J237500D01*
G01*
X121445000Y-76392500D01*
G75*
G02*
X121682500Y-76155000I237500J0D01*
G01*
G37*
G36*
G01*
X121682500Y-74405000D02*
X122157500Y-74405000D01*
G75*
G02*
X122395000Y-74642500I0J-237500D01*
G01*
X122395000Y-75217500D01*
G75*
G02*
X122157500Y-75455000I-237500J0D01*
G01*
X121682500Y-75455000D01*
G75*
G02*
X121445000Y-75217500I0J237500D01*
G01*
X121445000Y-74642500D01*
G75*
G02*
X121682500Y-74405000I237500J0D01*
G01*
G37*
%TD*%
%TO.C,C1*%
G36*
G01*
X119617500Y-70375000D02*
X119142500Y-70375000D01*
G75*
G02*
X118905000Y-70137500I0J237500D01*
G01*
X118905000Y-69562500D01*
G75*
G02*
X119142500Y-69325000I237500J0D01*
G01*
X119617500Y-69325000D01*
G75*
G02*
X119855000Y-69562500I0J-237500D01*
G01*
X119855000Y-70137500D01*
G75*
G02*
X119617500Y-70375000I-237500J0D01*
G01*
G37*
G36*
G01*
X119617500Y-72125000D02*
X119142500Y-72125000D01*
G75*
G02*
X118905000Y-71887500I0J237500D01*
G01*
X118905000Y-71312500D01*
G75*
G02*
X119142500Y-71075000I237500J0D01*
G01*
X119617500Y-71075000D01*
G75*
G02*
X119855000Y-71312500I0J-237500D01*
G01*
X119855000Y-71887500D01*
G75*
G02*
X119617500Y-72125000I-237500J0D01*
G01*
G37*
%TD*%
%TO.C,C2*%
G36*
G01*
X161555000Y-81517500D02*
X161555000Y-81042500D01*
G75*
G02*
X161792500Y-80805000I237500J0D01*
G01*
X162367500Y-80805000D01*
G75*
G02*
X162605000Y-81042500I0J-237500D01*
G01*
X162605000Y-81517500D01*
G75*
G02*
X162367500Y-81755000I-237500J0D01*
G01*
X161792500Y-81755000D01*
G75*
G02*
X161555000Y-81517500I0J237500D01*
G01*
G37*
G36*
G01*
X163305000Y-81517500D02*
X163305000Y-81042500D01*
G75*
G02*
X163542500Y-80805000I237500J0D01*
G01*
X164117500Y-80805000D01*
G75*
G02*
X164355000Y-81042500I0J-237500D01*
G01*
X164355000Y-81517500D01*
G75*
G02*
X164117500Y-81755000I-237500J0D01*
G01*
X163542500Y-81755000D01*
G75*
G02*
X163305000Y-81517500I0J237500D01*
G01*
G37*
%TD*%
%TO.C,R1*%
G36*
G01*
X157242500Y-68845000D02*
X157717500Y-68845000D01*
G75*
G02*
X157955000Y-69082500I0J-237500D01*
G01*
X157955000Y-69657500D01*
G75*
G02*
X157717500Y-69895000I-237500J0D01*
G01*
X157242500Y-69895000D01*
G75*
G02*
X157005000Y-69657500I0J237500D01*
G01*
X157005000Y-69082500D01*
G75*
G02*
X157242500Y-68845000I237500J0D01*
G01*
G37*
G36*
G01*
X157242500Y-70595000D02*
X157717500Y-70595000D01*
G75*
G02*
X157955000Y-70832500I0J-237500D01*
G01*
X157955000Y-71407500D01*
G75*
G02*
X157717500Y-71645000I-237500J0D01*
G01*
X157242500Y-71645000D01*
G75*
G02*
X157005000Y-71407500I0J237500D01*
G01*
X157005000Y-70832500D01*
G75*
G02*
X157242500Y-70595000I237500J0D01*
G01*
G37*
%TD*%
%TO.C,R2*%
G36*
G01*
X157717500Y-80535000D02*
X157242500Y-80535000D01*
G75*
G02*
X157005000Y-80297500I0J237500D01*
G01*
X157005000Y-79722500D01*
G75*
G02*
X157242500Y-79485000I237500J0D01*
G01*
X157717500Y-79485000D01*
G75*
G02*
X157955000Y-79722500I0J-237500D01*
G01*
X157955000Y-80297500D01*
G75*
G02*
X157717500Y-80535000I-237500J0D01*
G01*
G37*
G36*
G01*
X157717500Y-82285000D02*
X157242500Y-82285000D01*
G75*
G02*
X157005000Y-82047500I0J237500D01*
G01*
X157005000Y-81472500D01*
G75*
G02*
X157242500Y-81235000I237500J0D01*
G01*
X157717500Y-81235000D01*
G75*
G02*
X157955000Y-81472500I0J-237500D01*
G01*
X157955000Y-82047500D01*
G75*
G02*
X157717500Y-82285000I-237500J0D01*
G01*
G37*
%TD*%
D10*
%TO.C,U1*%
X162805000Y-77175000D03*
X162805000Y-76525000D03*
X162805000Y-75875000D03*
X162805000Y-75225000D03*
X164854999Y-75225000D03*
X164854999Y-75875000D03*
X164854999Y-76525000D03*
X164854999Y-77175000D03*
%TD*%
M02*
