%TF.GenerationSoftware,KiCad,Pcbnew,5.1.7-a382d34a8~88~ubuntu20.04.1*%
%TF.CreationDate,2021-03-16T20:42:08-04:00*%
%TF.ProjectId,weather_station,77656174-6865-4725-9f73-746174696f6e,rev?*%
%TF.SameCoordinates,Original*%
%TF.FileFunction,Soldermask,Top*%
%TF.FilePolarity,Negative*%
%FSLAX46Y46*%
G04 Gerber Fmt 4.6, Leading zero omitted, Abs format (unit mm)*
G04 Created by KiCad (PCBNEW 5.1.7-a382d34a8~88~ubuntu20.04.1) date 2021-03-16 20:42:08*
%MOMM*%
%LPD*%
G01*
G04 APERTURE LIST*
%ADD10C,6.500000*%
%ADD11C,2.082800*%
%ADD12C,3.454400*%
%ADD13C,2.700000*%
%ADD14C,1.660000*%
G04 APERTURE END LIST*
%TO.C,C3*%
G36*
G01*
X143772500Y-76295000D02*
X143247500Y-76295000D01*
G75*
G02*
X142985000Y-76032500I0J262500D01*
G01*
X142985000Y-75407500D01*
G75*
G02*
X143247500Y-75145000I262500J0D01*
G01*
X143772500Y-75145000D01*
G75*
G02*
X144035000Y-75407500I0J-262500D01*
G01*
X144035000Y-76032500D01*
G75*
G02*
X143772500Y-76295000I-262500J0D01*
G01*
G37*
G36*
G01*
X143772500Y-78045000D02*
X143247500Y-78045000D01*
G75*
G02*
X142985000Y-77782500I0J262500D01*
G01*
X142985000Y-77157500D01*
G75*
G02*
X143247500Y-76895000I262500J0D01*
G01*
X143772500Y-76895000D01*
G75*
G02*
X144035000Y-77157500I0J-262500D01*
G01*
X144035000Y-77782500D01*
G75*
G02*
X143772500Y-78045000I-262500J0D01*
G01*
G37*
%TD*%
%TO.C,R5*%
G36*
G01*
X133087500Y-76895000D02*
X133612500Y-76895000D01*
G75*
G02*
X133875000Y-77157500I0J-262500D01*
G01*
X133875000Y-77782500D01*
G75*
G02*
X133612500Y-78045000I-262500J0D01*
G01*
X133087500Y-78045000D01*
G75*
G02*
X132825000Y-77782500I0J262500D01*
G01*
X132825000Y-77157500D01*
G75*
G02*
X133087500Y-76895000I262500J0D01*
G01*
G37*
G36*
G01*
X133087500Y-75145000D02*
X133612500Y-75145000D01*
G75*
G02*
X133875000Y-75407500I0J-262500D01*
G01*
X133875000Y-76032500D01*
G75*
G02*
X133612500Y-76295000I-262500J0D01*
G01*
X133087500Y-76295000D01*
G75*
G02*
X132825000Y-76032500I0J262500D01*
G01*
X132825000Y-75407500D01*
G75*
G02*
X133087500Y-75145000I262500J0D01*
G01*
G37*
%TD*%
%TO.C,R4*%
G36*
G01*
X138167500Y-77375000D02*
X138692500Y-77375000D01*
G75*
G02*
X138955000Y-77637500I0J-262500D01*
G01*
X138955000Y-78262500D01*
G75*
G02*
X138692500Y-78525000I-262500J0D01*
G01*
X138167500Y-78525000D01*
G75*
G02*
X137905000Y-78262500I0J262500D01*
G01*
X137905000Y-77637500D01*
G75*
G02*
X138167500Y-77375000I262500J0D01*
G01*
G37*
G36*
G01*
X138167500Y-75625000D02*
X138692500Y-75625000D01*
G75*
G02*
X138955000Y-75887500I0J-262500D01*
G01*
X138955000Y-76512500D01*
G75*
G02*
X138692500Y-76775000I-262500J0D01*
G01*
X138167500Y-76775000D01*
G75*
G02*
X137905000Y-76512500I0J262500D01*
G01*
X137905000Y-75887500D01*
G75*
G02*
X138167500Y-75625000I262500J0D01*
G01*
G37*
%TD*%
%TO.C,R3*%
G36*
G01*
X121657500Y-76105000D02*
X122182500Y-76105000D01*
G75*
G02*
X122445000Y-76367500I0J-262500D01*
G01*
X122445000Y-76992500D01*
G75*
G02*
X122182500Y-77255000I-262500J0D01*
G01*
X121657500Y-77255000D01*
G75*
G02*
X121395000Y-76992500I0J262500D01*
G01*
X121395000Y-76367500D01*
G75*
G02*
X121657500Y-76105000I262500J0D01*
G01*
G37*
G36*
G01*
X121657500Y-74355000D02*
X122182500Y-74355000D01*
G75*
G02*
X122445000Y-74617500I0J-262500D01*
G01*
X122445000Y-75242500D01*
G75*
G02*
X122182500Y-75505000I-262500J0D01*
G01*
X121657500Y-75505000D01*
G75*
G02*
X121395000Y-75242500I0J262500D01*
G01*
X121395000Y-74617500D01*
G75*
G02*
X121657500Y-74355000I262500J0D01*
G01*
G37*
%TD*%
%TO.C,C1*%
G36*
G01*
X119642500Y-70425000D02*
X119117500Y-70425000D01*
G75*
G02*
X118855000Y-70162500I0J262500D01*
G01*
X118855000Y-69537500D01*
G75*
G02*
X119117500Y-69275000I262500J0D01*
G01*
X119642500Y-69275000D01*
G75*
G02*
X119905000Y-69537500I0J-262500D01*
G01*
X119905000Y-70162500D01*
G75*
G02*
X119642500Y-70425000I-262500J0D01*
G01*
G37*
G36*
G01*
X119642500Y-72175000D02*
X119117500Y-72175000D01*
G75*
G02*
X118855000Y-71912500I0J262500D01*
G01*
X118855000Y-71287500D01*
G75*
G02*
X119117500Y-71025000I262500J0D01*
G01*
X119642500Y-71025000D01*
G75*
G02*
X119905000Y-71287500I0J-262500D01*
G01*
X119905000Y-71912500D01*
G75*
G02*
X119642500Y-72175000I-262500J0D01*
G01*
G37*
%TD*%
%TO.C,C2*%
G36*
G01*
X161505000Y-81542500D02*
X161505000Y-81017500D01*
G75*
G02*
X161767500Y-80755000I262500J0D01*
G01*
X162392500Y-80755000D01*
G75*
G02*
X162655000Y-81017500I0J-262500D01*
G01*
X162655000Y-81542500D01*
G75*
G02*
X162392500Y-81805000I-262500J0D01*
G01*
X161767500Y-81805000D01*
G75*
G02*
X161505000Y-81542500I0J262500D01*
G01*
G37*
G36*
G01*
X163255000Y-81542500D02*
X163255000Y-81017500D01*
G75*
G02*
X163517500Y-80755000I262500J0D01*
G01*
X164142500Y-80755000D01*
G75*
G02*
X164405000Y-81017500I0J-262500D01*
G01*
X164405000Y-81542500D01*
G75*
G02*
X164142500Y-81805000I-262500J0D01*
G01*
X163517500Y-81805000D01*
G75*
G02*
X163255000Y-81542500I0J262500D01*
G01*
G37*
%TD*%
D10*
%TO.C,H1*%
X113030000Y-64770000D03*
%TD*%
%TO.C,H2*%
X161290000Y-123190000D03*
%TD*%
%TO.C,H3*%
X161290000Y-64770000D03*
%TD*%
%TO.C,H4*%
X113030000Y-123190000D03*
%TD*%
D11*
%TO.C,J1*%
X116840000Y-76835000D03*
X114300000Y-78105000D03*
X116840000Y-79375000D03*
X114300000Y-80645000D03*
X116840000Y-81915000D03*
X114300000Y-83185000D03*
D12*
X107950000Y-74930000D03*
X107950000Y-85090000D03*
%TD*%
%TO.C,J2*%
X107950000Y-104140000D03*
X107950000Y-93980000D03*
D11*
X114300000Y-102235000D03*
X116840000Y-100965000D03*
X114300000Y-99695000D03*
X116840000Y-98425000D03*
X114300000Y-97155000D03*
X116840000Y-95885000D03*
%TD*%
%TO.C,J3*%
G36*
G01*
X135810000Y-124490000D02*
X135810000Y-121890000D01*
G75*
G02*
X135860000Y-121840000I50000J0D01*
G01*
X138460000Y-121840000D01*
G75*
G02*
X138510000Y-121890000I0J-50000D01*
G01*
X138510000Y-124490000D01*
G75*
G02*
X138460000Y-124540000I-50000J0D01*
G01*
X135860000Y-124540000D01*
G75*
G02*
X135810000Y-124490000I0J50000D01*
G01*
G37*
D13*
X142160000Y-123190000D03*
%TD*%
%TO.C,R1*%
G36*
G01*
X157217500Y-68795000D02*
X157742500Y-68795000D01*
G75*
G02*
X158005000Y-69057500I0J-262500D01*
G01*
X158005000Y-69682500D01*
G75*
G02*
X157742500Y-69945000I-262500J0D01*
G01*
X157217500Y-69945000D01*
G75*
G02*
X156955000Y-69682500I0J262500D01*
G01*
X156955000Y-69057500D01*
G75*
G02*
X157217500Y-68795000I262500J0D01*
G01*
G37*
G36*
G01*
X157217500Y-70545000D02*
X157742500Y-70545000D01*
G75*
G02*
X158005000Y-70807500I0J-262500D01*
G01*
X158005000Y-71432500D01*
G75*
G02*
X157742500Y-71695000I-262500J0D01*
G01*
X157217500Y-71695000D01*
G75*
G02*
X156955000Y-71432500I0J262500D01*
G01*
X156955000Y-70807500D01*
G75*
G02*
X157217500Y-70545000I262500J0D01*
G01*
G37*
%TD*%
%TO.C,R2*%
G36*
G01*
X157742500Y-80585000D02*
X157217500Y-80585000D01*
G75*
G02*
X156955000Y-80322500I0J262500D01*
G01*
X156955000Y-79697500D01*
G75*
G02*
X157217500Y-79435000I262500J0D01*
G01*
X157742500Y-79435000D01*
G75*
G02*
X158005000Y-79697500I0J-262500D01*
G01*
X158005000Y-80322500D01*
G75*
G02*
X157742500Y-80585000I-262500J0D01*
G01*
G37*
G36*
G01*
X157742500Y-82335000D02*
X157217500Y-82335000D01*
G75*
G02*
X156955000Y-82072500I0J262500D01*
G01*
X156955000Y-81447500D01*
G75*
G02*
X157217500Y-81185000I262500J0D01*
G01*
X157742500Y-81185000D01*
G75*
G02*
X158005000Y-81447500I0J-262500D01*
G01*
X158005000Y-82072500D01*
G75*
G02*
X157742500Y-82335000I-262500J0D01*
G01*
G37*
%TD*%
%TO.C,U1*%
G36*
G01*
X163055000Y-77400000D02*
X162555000Y-77400000D01*
G75*
G02*
X162505000Y-77350000I0J50000D01*
G01*
X162505000Y-77000000D01*
G75*
G02*
X162555000Y-76950000I50000J0D01*
G01*
X163055000Y-76950000D01*
G75*
G02*
X163105000Y-77000000I0J-50000D01*
G01*
X163105000Y-77350000D01*
G75*
G02*
X163055000Y-77400000I-50000J0D01*
G01*
G37*
G36*
G01*
X163055000Y-76750000D02*
X162555000Y-76750000D01*
G75*
G02*
X162505000Y-76700000I0J50000D01*
G01*
X162505000Y-76350000D01*
G75*
G02*
X162555000Y-76300000I50000J0D01*
G01*
X163055000Y-76300000D01*
G75*
G02*
X163105000Y-76350000I0J-50000D01*
G01*
X163105000Y-76700000D01*
G75*
G02*
X163055000Y-76750000I-50000J0D01*
G01*
G37*
G36*
G01*
X163055000Y-76100000D02*
X162555000Y-76100000D01*
G75*
G02*
X162505000Y-76050000I0J50000D01*
G01*
X162505000Y-75700000D01*
G75*
G02*
X162555000Y-75650000I50000J0D01*
G01*
X163055000Y-75650000D01*
G75*
G02*
X163105000Y-75700000I0J-50000D01*
G01*
X163105000Y-76050000D01*
G75*
G02*
X163055000Y-76100000I-50000J0D01*
G01*
G37*
G36*
G01*
X163055000Y-75450000D02*
X162555000Y-75450000D01*
G75*
G02*
X162505000Y-75400000I0J50000D01*
G01*
X162505000Y-75050000D01*
G75*
G02*
X162555000Y-75000000I50000J0D01*
G01*
X163055000Y-75000000D01*
G75*
G02*
X163105000Y-75050000I0J-50000D01*
G01*
X163105000Y-75400000D01*
G75*
G02*
X163055000Y-75450000I-50000J0D01*
G01*
G37*
G36*
G01*
X165104999Y-75450000D02*
X164604999Y-75450000D01*
G75*
G02*
X164554999Y-75400000I0J50000D01*
G01*
X164554999Y-75050000D01*
G75*
G02*
X164604999Y-75000000I50000J0D01*
G01*
X165104999Y-75000000D01*
G75*
G02*
X165154999Y-75050000I0J-50000D01*
G01*
X165154999Y-75400000D01*
G75*
G02*
X165104999Y-75450000I-50000J0D01*
G01*
G37*
G36*
G01*
X165104999Y-76100000D02*
X164604999Y-76100000D01*
G75*
G02*
X164554999Y-76050000I0J50000D01*
G01*
X164554999Y-75700000D01*
G75*
G02*
X164604999Y-75650000I50000J0D01*
G01*
X165104999Y-75650000D01*
G75*
G02*
X165154999Y-75700000I0J-50000D01*
G01*
X165154999Y-76050000D01*
G75*
G02*
X165104999Y-76100000I-50000J0D01*
G01*
G37*
G36*
G01*
X165104999Y-76750000D02*
X164604999Y-76750000D01*
G75*
G02*
X164554999Y-76700000I0J50000D01*
G01*
X164554999Y-76350000D01*
G75*
G02*
X164604999Y-76300000I50000J0D01*
G01*
X165104999Y-76300000D01*
G75*
G02*
X165154999Y-76350000I0J-50000D01*
G01*
X165154999Y-76700000D01*
G75*
G02*
X165104999Y-76750000I-50000J0D01*
G01*
G37*
G36*
G01*
X165104999Y-77400000D02*
X164604999Y-77400000D01*
G75*
G02*
X164554999Y-77350000I0J50000D01*
G01*
X164554999Y-77000000D01*
G75*
G02*
X164604999Y-76950000I50000J0D01*
G01*
X165104999Y-76950000D01*
G75*
G02*
X165154999Y-77000000I0J-50000D01*
G01*
X165154999Y-77350000D01*
G75*
G02*
X165104999Y-77400000I-50000J0D01*
G01*
G37*
%TD*%
%TO.C,U2*%
G36*
G01*
X126170000Y-67380000D02*
X126170000Y-65820000D01*
G75*
G02*
X126220000Y-65770000I50000J0D01*
G01*
X127780000Y-65770000D01*
G75*
G02*
X127830000Y-65820000I0J-50000D01*
G01*
X127830000Y-67380000D01*
G75*
G02*
X127780000Y-67430000I-50000J0D01*
G01*
X126220000Y-67430000D01*
G75*
G02*
X126170000Y-67380000I0J50000D01*
G01*
G37*
D14*
X127000000Y-69140000D03*
X127000000Y-112320000D03*
X127000000Y-71680000D03*
X127000000Y-74220000D03*
X127000000Y-76760000D03*
X127000000Y-79300000D03*
X127000000Y-81840000D03*
X127000000Y-84380000D03*
X127000000Y-86920000D03*
X127000000Y-89460000D03*
X127000000Y-92000000D03*
X127000000Y-94540000D03*
X127000000Y-97080000D03*
X127000000Y-99620000D03*
X127000000Y-102160000D03*
X127000000Y-104700000D03*
X127000000Y-107240000D03*
X127000000Y-109780000D03*
X152400000Y-66600000D03*
X152400000Y-69140000D03*
X152400000Y-71680000D03*
X152400000Y-74220000D03*
X152400000Y-76760000D03*
X152400000Y-79300000D03*
X152400000Y-81840000D03*
X152400000Y-84380000D03*
X152400000Y-86920000D03*
X152400000Y-89460000D03*
X152400000Y-92000000D03*
X152400000Y-94540000D03*
X152400000Y-97080000D03*
X152400000Y-99620000D03*
X152400000Y-102160000D03*
X152400000Y-104700000D03*
X152400000Y-107240000D03*
X152400000Y-109780000D03*
X152400000Y-112320000D03*
%TD*%
M02*
