%TF.GenerationSoftware,KiCad,Pcbnew,5.1.7-a382d34a8~88~ubuntu20.04.1*%
%TF.CreationDate,2021-03-16T20:42:08-04:00*%
%TF.ProjectId,weather_station,77656174-6865-4725-9f73-746174696f6e,rev?*%
%TF.SameCoordinates,Original*%
%TF.FileFunction,Copper,L1,Top*%
%TF.FilePolarity,Positive*%
%FSLAX46Y46*%
G04 Gerber Fmt 4.6, Leading zero omitted, Abs format (unit mm)*
G04 Created by KiCad (PCBNEW 5.1.7-a382d34a8~88~ubuntu20.04.1) date 2021-03-16 20:42:08*
%MOMM*%
%LPD*%
G01*
G04 APERTURE LIST*
%TA.AperFunction,ComponentPad*%
%ADD10C,6.400000*%
%TD*%
%TA.AperFunction,ComponentPad*%
%ADD11C,1.879600*%
%TD*%
%TA.AperFunction,ComponentPad*%
%ADD12R,2.600000X2.600000*%
%TD*%
%TA.AperFunction,ComponentPad*%
%ADD13C,2.600000*%
%TD*%
%TA.AperFunction,SMDPad,CuDef*%
%ADD14R,0.500000X0.350000*%
%TD*%
%TA.AperFunction,ComponentPad*%
%ADD15R,1.560000X1.560000*%
%TD*%
%TA.AperFunction,ComponentPad*%
%ADD16C,1.560000*%
%TD*%
%TA.AperFunction,ViaPad*%
%ADD17C,0.800000*%
%TD*%
%TA.AperFunction,Conductor*%
%ADD18C,0.250000*%
%TD*%
%TA.AperFunction,Conductor*%
%ADD19C,0.254000*%
%TD*%
%TA.AperFunction,Conductor*%
%ADD20C,0.100000*%
%TD*%
G04 APERTURE END LIST*
%TO.P,C3,2*%
%TO.N,GND*%
%TA.AperFunction,SMDPad,CuDef*%
G36*
G01*
X143747500Y-76245000D02*
X143272500Y-76245000D01*
G75*
G02*
X143035000Y-76007500I0J237500D01*
G01*
X143035000Y-75432500D01*
G75*
G02*
X143272500Y-75195000I237500J0D01*
G01*
X143747500Y-75195000D01*
G75*
G02*
X143985000Y-75432500I0J-237500D01*
G01*
X143985000Y-76007500D01*
G75*
G02*
X143747500Y-76245000I-237500J0D01*
G01*
G37*
%TD.AperFunction*%
%TO.P,C3,1*%
%TO.N,/WIND_SPD*%
%TA.AperFunction,SMDPad,CuDef*%
G36*
G01*
X143747500Y-77995000D02*
X143272500Y-77995000D01*
G75*
G02*
X143035000Y-77757500I0J237500D01*
G01*
X143035000Y-77182500D01*
G75*
G02*
X143272500Y-76945000I237500J0D01*
G01*
X143747500Y-76945000D01*
G75*
G02*
X143985000Y-77182500I0J-237500D01*
G01*
X143985000Y-77757500D01*
G75*
G02*
X143747500Y-77995000I-237500J0D01*
G01*
G37*
%TD.AperFunction*%
%TD*%
%TO.P,R5,2*%
%TO.N,/WIND_DIR*%
%TA.AperFunction,SMDPad,CuDef*%
G36*
G01*
X133112500Y-76945000D02*
X133587500Y-76945000D01*
G75*
G02*
X133825000Y-77182500I0J-237500D01*
G01*
X133825000Y-77757500D01*
G75*
G02*
X133587500Y-77995000I-237500J0D01*
G01*
X133112500Y-77995000D01*
G75*
G02*
X132875000Y-77757500I0J237500D01*
G01*
X132875000Y-77182500D01*
G75*
G02*
X133112500Y-76945000I237500J0D01*
G01*
G37*
%TD.AperFunction*%
%TO.P,R5,1*%
%TO.N,VDD*%
%TA.AperFunction,SMDPad,CuDef*%
G36*
G01*
X133112500Y-75195000D02*
X133587500Y-75195000D01*
G75*
G02*
X133825000Y-75432500I0J-237500D01*
G01*
X133825000Y-76007500D01*
G75*
G02*
X133587500Y-76245000I-237500J0D01*
G01*
X133112500Y-76245000D01*
G75*
G02*
X132875000Y-76007500I0J237500D01*
G01*
X132875000Y-75432500D01*
G75*
G02*
X133112500Y-75195000I237500J0D01*
G01*
G37*
%TD.AperFunction*%
%TD*%
%TO.P,R4,2*%
%TO.N,/WIND_SPD*%
%TA.AperFunction,SMDPad,CuDef*%
G36*
G01*
X138192500Y-77425000D02*
X138667500Y-77425000D01*
G75*
G02*
X138905000Y-77662500I0J-237500D01*
G01*
X138905000Y-78237500D01*
G75*
G02*
X138667500Y-78475000I-237500J0D01*
G01*
X138192500Y-78475000D01*
G75*
G02*
X137955000Y-78237500I0J237500D01*
G01*
X137955000Y-77662500D01*
G75*
G02*
X138192500Y-77425000I237500J0D01*
G01*
G37*
%TD.AperFunction*%
%TO.P,R4,1*%
%TO.N,VDD*%
%TA.AperFunction,SMDPad,CuDef*%
G36*
G01*
X138192500Y-75675000D02*
X138667500Y-75675000D01*
G75*
G02*
X138905000Y-75912500I0J-237500D01*
G01*
X138905000Y-76487500D01*
G75*
G02*
X138667500Y-76725000I-237500J0D01*
G01*
X138192500Y-76725000D01*
G75*
G02*
X137955000Y-76487500I0J237500D01*
G01*
X137955000Y-75912500D01*
G75*
G02*
X138192500Y-75675000I237500J0D01*
G01*
G37*
%TD.AperFunction*%
%TD*%
%TO.P,R3,2*%
%TO.N,/RAIN*%
%TA.AperFunction,SMDPad,CuDef*%
G36*
G01*
X121682500Y-76155000D02*
X122157500Y-76155000D01*
G75*
G02*
X122395000Y-76392500I0J-237500D01*
G01*
X122395000Y-76967500D01*
G75*
G02*
X122157500Y-77205000I-237500J0D01*
G01*
X121682500Y-77205000D01*
G75*
G02*
X121445000Y-76967500I0J237500D01*
G01*
X121445000Y-76392500D01*
G75*
G02*
X121682500Y-76155000I237500J0D01*
G01*
G37*
%TD.AperFunction*%
%TO.P,R3,1*%
%TO.N,VDD*%
%TA.AperFunction,SMDPad,CuDef*%
G36*
G01*
X121682500Y-74405000D02*
X122157500Y-74405000D01*
G75*
G02*
X122395000Y-74642500I0J-237500D01*
G01*
X122395000Y-75217500D01*
G75*
G02*
X122157500Y-75455000I-237500J0D01*
G01*
X121682500Y-75455000D01*
G75*
G02*
X121445000Y-75217500I0J237500D01*
G01*
X121445000Y-74642500D01*
G75*
G02*
X121682500Y-74405000I237500J0D01*
G01*
G37*
%TD.AperFunction*%
%TD*%
%TO.P,C1,2*%
%TO.N,GND*%
%TA.AperFunction,SMDPad,CuDef*%
G36*
G01*
X119617500Y-70375000D02*
X119142500Y-70375000D01*
G75*
G02*
X118905000Y-70137500I0J237500D01*
G01*
X118905000Y-69562500D01*
G75*
G02*
X119142500Y-69325000I237500J0D01*
G01*
X119617500Y-69325000D01*
G75*
G02*
X119855000Y-69562500I0J-237500D01*
G01*
X119855000Y-70137500D01*
G75*
G02*
X119617500Y-70375000I-237500J0D01*
G01*
G37*
%TD.AperFunction*%
%TO.P,C1,1*%
%TO.N,/RAIN*%
%TA.AperFunction,SMDPad,CuDef*%
G36*
G01*
X119617500Y-72125000D02*
X119142500Y-72125000D01*
G75*
G02*
X118905000Y-71887500I0J237500D01*
G01*
X118905000Y-71312500D01*
G75*
G02*
X119142500Y-71075000I237500J0D01*
G01*
X119617500Y-71075000D01*
G75*
G02*
X119855000Y-71312500I0J-237500D01*
G01*
X119855000Y-71887500D01*
G75*
G02*
X119617500Y-72125000I-237500J0D01*
G01*
G37*
%TD.AperFunction*%
%TD*%
%TO.P,C2,1*%
%TO.N,VDD*%
%TA.AperFunction,SMDPad,CuDef*%
G36*
G01*
X161555000Y-81517500D02*
X161555000Y-81042500D01*
G75*
G02*
X161792500Y-80805000I237500J0D01*
G01*
X162367500Y-80805000D01*
G75*
G02*
X162605000Y-81042500I0J-237500D01*
G01*
X162605000Y-81517500D01*
G75*
G02*
X162367500Y-81755000I-237500J0D01*
G01*
X161792500Y-81755000D01*
G75*
G02*
X161555000Y-81517500I0J237500D01*
G01*
G37*
%TD.AperFunction*%
%TO.P,C2,2*%
%TO.N,GND*%
%TA.AperFunction,SMDPad,CuDef*%
G36*
G01*
X163305000Y-81517500D02*
X163305000Y-81042500D01*
G75*
G02*
X163542500Y-80805000I237500J0D01*
G01*
X164117500Y-80805000D01*
G75*
G02*
X164355000Y-81042500I0J-237500D01*
G01*
X164355000Y-81517500D01*
G75*
G02*
X164117500Y-81755000I-237500J0D01*
G01*
X163542500Y-81755000D01*
G75*
G02*
X163305000Y-81517500I0J237500D01*
G01*
G37*
%TD.AperFunction*%
%TD*%
D10*
%TO.P,H1,1*%
%TO.N,GND*%
X113030000Y-64770000D03*
%TD*%
%TO.P,H2,1*%
%TO.N,GND*%
X161290000Y-123190000D03*
%TD*%
%TO.P,H3,1*%
%TO.N,GND*%
X161290000Y-64770000D03*
%TD*%
%TO.P,H4,1*%
%TO.N,GND*%
X113030000Y-123190000D03*
%TD*%
D11*
%TO.P,J1,1*%
%TO.N,GND*%
X116840000Y-76835000D03*
%TO.P,J1,2*%
X114300000Y-78105000D03*
%TO.P,J1,3*%
%TO.N,/RAIN*%
X116840000Y-79375000D03*
%TO.P,J1,4*%
%TO.N,GND*%
X114300000Y-80645000D03*
%TO.P,J1,5*%
X116840000Y-81915000D03*
%TO.P,J1,6*%
X114300000Y-83185000D03*
%TD*%
%TO.P,J2,6*%
%TO.N,Net-(J2-Pad6)*%
X114300000Y-102235000D03*
%TO.P,J2,5*%
%TO.N,/WIND_DIR*%
X116840000Y-100965000D03*
%TO.P,J2,4*%
%TO.N,/WIND_SPD*%
X114300000Y-99695000D03*
%TO.P,J2,3*%
%TO.N,GND*%
X116840000Y-98425000D03*
%TO.P,J2,2*%
X114300000Y-97155000D03*
%TO.P,J2,1*%
X116840000Y-95885000D03*
%TD*%
D12*
%TO.P,J3,1*%
%TO.N,VDD*%
X137160000Y-123190000D03*
D13*
%TO.P,J3,2*%
%TO.N,GND*%
X142160000Y-123190000D03*
%TD*%
%TO.P,R1,1*%
%TO.N,VDD*%
%TA.AperFunction,SMDPad,CuDef*%
G36*
G01*
X157242500Y-68845000D02*
X157717500Y-68845000D01*
G75*
G02*
X157955000Y-69082500I0J-237500D01*
G01*
X157955000Y-69657500D01*
G75*
G02*
X157717500Y-69895000I-237500J0D01*
G01*
X157242500Y-69895000D01*
G75*
G02*
X157005000Y-69657500I0J237500D01*
G01*
X157005000Y-69082500D01*
G75*
G02*
X157242500Y-68845000I237500J0D01*
G01*
G37*
%TD.AperFunction*%
%TO.P,R1,2*%
%TO.N,/SCL*%
%TA.AperFunction,SMDPad,CuDef*%
G36*
G01*
X157242500Y-70595000D02*
X157717500Y-70595000D01*
G75*
G02*
X157955000Y-70832500I0J-237500D01*
G01*
X157955000Y-71407500D01*
G75*
G02*
X157717500Y-71645000I-237500J0D01*
G01*
X157242500Y-71645000D01*
G75*
G02*
X157005000Y-71407500I0J237500D01*
G01*
X157005000Y-70832500D01*
G75*
G02*
X157242500Y-70595000I237500J0D01*
G01*
G37*
%TD.AperFunction*%
%TD*%
%TO.P,R2,2*%
%TO.N,/SDA*%
%TA.AperFunction,SMDPad,CuDef*%
G36*
G01*
X157717500Y-80535000D02*
X157242500Y-80535000D01*
G75*
G02*
X157005000Y-80297500I0J237500D01*
G01*
X157005000Y-79722500D01*
G75*
G02*
X157242500Y-79485000I237500J0D01*
G01*
X157717500Y-79485000D01*
G75*
G02*
X157955000Y-79722500I0J-237500D01*
G01*
X157955000Y-80297500D01*
G75*
G02*
X157717500Y-80535000I-237500J0D01*
G01*
G37*
%TD.AperFunction*%
%TO.P,R2,1*%
%TO.N,VDD*%
%TA.AperFunction,SMDPad,CuDef*%
G36*
G01*
X157717500Y-82285000D02*
X157242500Y-82285000D01*
G75*
G02*
X157005000Y-82047500I0J237500D01*
G01*
X157005000Y-81472500D01*
G75*
G02*
X157242500Y-81235000I237500J0D01*
G01*
X157717500Y-81235000D01*
G75*
G02*
X157955000Y-81472500I0J-237500D01*
G01*
X157955000Y-82047500D01*
G75*
G02*
X157717500Y-82285000I-237500J0D01*
G01*
G37*
%TD.AperFunction*%
%TD*%
D14*
%TO.P,U1,1*%
%TO.N,GND*%
X162805000Y-77175000D03*
%TO.P,U1,2*%
%TO.N,VDD*%
X162805000Y-76525000D03*
%TO.P,U1,3*%
%TO.N,/SDA*%
X162805000Y-75875000D03*
%TO.P,U1,4*%
%TO.N,/SCL*%
X162805000Y-75225000D03*
%TO.P,U1,5*%
%TO.N,VDD*%
X164854999Y-75225000D03*
%TO.P,U1,6*%
X164854999Y-75875000D03*
%TO.P,U1,7*%
%TO.N,GND*%
X164854999Y-76525000D03*
%TO.P,U1,8*%
%TO.N,VDD*%
X164854999Y-77175000D03*
%TD*%
D15*
%TO.P,U2,1*%
%TO.N,VDD*%
X127000000Y-66600000D03*
D16*
%TO.P,U2,2*%
%TO.N,Net-(U2-Pad2)*%
X127000000Y-69140000D03*
%TO.P,U2,19*%
%TO.N,Net-(U2-Pad19)*%
X127000000Y-112320000D03*
%TO.P,U2,3*%
%TO.N,Net-(U2-Pad3)*%
X127000000Y-71680000D03*
%TO.P,U2,4*%
%TO.N,Net-(U2-Pad4)*%
X127000000Y-74220000D03*
%TO.P,U2,5*%
%TO.N,/RAIN*%
X127000000Y-76760000D03*
%TO.P,U2,6*%
%TO.N,/WIND_DIR*%
X127000000Y-79300000D03*
%TO.P,U2,7*%
%TO.N,/WIND_SPD*%
X127000000Y-81840000D03*
%TO.P,U2,8*%
%TO.N,Net-(U2-Pad8)*%
X127000000Y-84380000D03*
%TO.P,U2,9*%
%TO.N,Net-(U2-Pad9)*%
X127000000Y-86920000D03*
%TO.P,U2,10*%
%TO.N,Net-(U2-Pad10)*%
X127000000Y-89460000D03*
%TO.P,U2,11*%
%TO.N,Net-(U2-Pad11)*%
X127000000Y-92000000D03*
%TO.P,U2,12*%
%TO.N,Net-(U2-Pad12)*%
X127000000Y-94540000D03*
%TO.P,U2,13*%
%TO.N,Net-(U2-Pad13)*%
X127000000Y-97080000D03*
%TO.P,U2,14*%
%TO.N,Net-(U2-Pad14)*%
X127000000Y-99620000D03*
%TO.P,U2,15*%
%TO.N,Net-(U2-Pad15)*%
X127000000Y-102160000D03*
%TO.P,U2,16*%
%TO.N,Net-(U2-Pad16)*%
X127000000Y-104700000D03*
%TO.P,U2,17*%
%TO.N,Net-(U2-Pad17)*%
X127000000Y-107240000D03*
%TO.P,U2,18*%
%TO.N,Net-(U2-Pad18)*%
X127000000Y-109780000D03*
%TO.P,U2,20*%
%TO.N,GND*%
X152400000Y-66600000D03*
%TO.P,U2,21*%
%TO.N,Net-(U2-Pad21)*%
X152400000Y-69140000D03*
%TO.P,U2,22*%
%TO.N,/SCL*%
X152400000Y-71680000D03*
%TO.P,U2,23*%
%TO.N,Net-(U2-Pad23)*%
X152400000Y-74220000D03*
%TO.P,U2,24*%
%TO.N,Net-(U2-Pad24)*%
X152400000Y-76760000D03*
%TO.P,U2,25*%
%TO.N,/SDA*%
X152400000Y-79300000D03*
%TO.P,U2,26*%
%TO.N,Net-(U2-Pad26)*%
X152400000Y-81840000D03*
%TO.P,U2,27*%
%TO.N,Net-(U2-Pad27)*%
X152400000Y-84380000D03*
%TO.P,U2,28*%
%TO.N,Net-(U2-Pad28)*%
X152400000Y-86920000D03*
%TO.P,U2,29*%
%TO.N,Net-(U2-Pad29)*%
X152400000Y-89460000D03*
%TO.P,U2,30*%
%TO.N,Net-(U2-Pad30)*%
X152400000Y-92000000D03*
%TO.P,U2,31*%
%TO.N,Net-(U2-Pad31)*%
X152400000Y-94540000D03*
%TO.P,U2,32*%
%TO.N,Net-(U2-Pad32)*%
X152400000Y-97080000D03*
%TO.P,U2,33*%
%TO.N,Net-(U2-Pad33)*%
X152400000Y-99620000D03*
%TO.P,U2,34*%
%TO.N,Net-(U2-Pad34)*%
X152400000Y-102160000D03*
%TO.P,U2,35*%
%TO.N,Net-(U2-Pad35)*%
X152400000Y-104700000D03*
%TO.P,U2,36*%
%TO.N,Net-(U2-Pad36)*%
X152400000Y-107240000D03*
%TO.P,U2,37*%
%TO.N,Net-(U2-Pad37)*%
X152400000Y-109780000D03*
%TO.P,U2,38*%
%TO.N,Net-(U2-Pad38)*%
X152400000Y-112320000D03*
%TD*%
D17*
%TO.N,VDD*%
X164854999Y-78494999D03*
X157480000Y-83820000D03*
X156210000Y-67310000D03*
%TD*%
D18*
%TO.N,VDD*%
X121920000Y-71680000D02*
X127000000Y-66600000D01*
X121920000Y-74930000D02*
X121920000Y-71680000D01*
X157960000Y-81280000D02*
X157480000Y-81760000D01*
X162080000Y-81280000D02*
X157960000Y-81280000D01*
X163955000Y-77175000D02*
X164854999Y-77175000D01*
X162805000Y-76525000D02*
X163305000Y-76525000D01*
X164155000Y-75875000D02*
X163405000Y-76625000D01*
X164854999Y-75875000D02*
X164155000Y-75875000D01*
X163405000Y-76625000D02*
X163955000Y-77175000D01*
X163305000Y-76525000D02*
X163405000Y-76625000D01*
X164854999Y-75225000D02*
X164854999Y-75875000D01*
X164854999Y-77175000D02*
X164854999Y-78494999D01*
X157480000Y-81760000D02*
X157480000Y-83820000D01*
X133830000Y-76200000D02*
X133350000Y-75720000D01*
X138430000Y-76200000D02*
X133830000Y-76200000D01*
X133350000Y-72950000D02*
X127000000Y-66600000D01*
X133350000Y-75720000D02*
X133350000Y-72950000D01*
X157480000Y-68580000D02*
X156210000Y-67310000D01*
X157480000Y-69370000D02*
X157480000Y-68580000D01*
%TO.N,GND*%
X163830000Y-78200000D02*
X162805000Y-77175000D01*
X163830000Y-81280000D02*
X163830000Y-78200000D01*
X166370000Y-78740000D02*
X163830000Y-81280000D01*
X166370000Y-77470000D02*
X166370000Y-78740000D01*
X165425000Y-76525000D02*
X166370000Y-77470000D01*
X164854999Y-76525000D02*
X165425000Y-76525000D01*
X115570000Y-95885000D02*
X116840000Y-95885000D01*
X114300000Y-97155000D02*
X115570000Y-95885000D01*
%TO.N,/SCL*%
X156920000Y-71680000D02*
X157480000Y-71120000D01*
X152400000Y-71680000D02*
X156920000Y-71680000D01*
X158700000Y-71120000D02*
X162805000Y-75225000D01*
X157480000Y-71120000D02*
X158700000Y-71120000D01*
%TO.N,/SDA*%
X156770000Y-79300000D02*
X157480000Y-80010000D01*
X152400000Y-79300000D02*
X156770000Y-79300000D01*
X158170000Y-80010000D02*
X157480000Y-80010000D01*
X162305000Y-75875000D02*
X158170000Y-80010000D01*
X162805000Y-75875000D02*
X162305000Y-75875000D01*
%TO.N,/RAIN*%
X124385000Y-79375000D02*
X127000000Y-76760000D01*
X116840000Y-79375000D02*
X124385000Y-79375000D01*
X126920000Y-76680000D02*
X127000000Y-76760000D01*
X121920000Y-76680000D02*
X126920000Y-76680000D01*
X119380000Y-74140000D02*
X121920000Y-76680000D01*
X119380000Y-71600000D02*
X119380000Y-74140000D01*
%TO.N,/WIND_DIR*%
X132045000Y-79300000D02*
X127000000Y-79300000D01*
X133350000Y-77995000D02*
X132045000Y-79300000D01*
X133350000Y-77470000D02*
X133350000Y-77995000D01*
%TO.N,/WIND_SPD*%
X114300000Y-99695000D02*
X112395000Y-99695000D01*
X112395000Y-99695000D02*
X111760000Y-99060000D01*
X111760000Y-99060000D02*
X111760000Y-96520000D01*
X126440000Y-81840000D02*
X127000000Y-81840000D01*
X111760000Y-96520000D02*
X126440000Y-81840000D01*
X134540000Y-81840000D02*
X127000000Y-81840000D01*
X138430000Y-77950000D02*
X134540000Y-81840000D01*
X138910000Y-77470000D02*
X138430000Y-77950000D01*
X143510000Y-77470000D02*
X138910000Y-77470000D01*
%TD*%
D19*
%TO.N,GND*%
X166980001Y-127610000D02*
X103530000Y-127610000D01*
X103530000Y-125890881D01*
X110508724Y-125890881D01*
X110868912Y-126380548D01*
X111532882Y-126740849D01*
X112254385Y-126964694D01*
X113005695Y-127043480D01*
X113757938Y-126974178D01*
X114482208Y-126759452D01*
X115150670Y-126407555D01*
X115191088Y-126380548D01*
X115551276Y-125890881D01*
X158768724Y-125890881D01*
X159128912Y-126380548D01*
X159792882Y-126740849D01*
X160514385Y-126964694D01*
X161265695Y-127043480D01*
X162017938Y-126974178D01*
X162742208Y-126759452D01*
X163410670Y-126407555D01*
X163451088Y-126380548D01*
X163811276Y-125890881D01*
X161290000Y-123369605D01*
X158768724Y-125890881D01*
X115551276Y-125890881D01*
X113030000Y-123369605D01*
X110508724Y-125890881D01*
X103530000Y-125890881D01*
X103530000Y-123165695D01*
X109176520Y-123165695D01*
X109245822Y-123917938D01*
X109460548Y-124642208D01*
X109812445Y-125310670D01*
X109839452Y-125351088D01*
X110329119Y-125711276D01*
X112850395Y-123190000D01*
X113209605Y-123190000D01*
X115730881Y-125711276D01*
X116220548Y-125351088D01*
X116580849Y-124687118D01*
X116804694Y-123965615D01*
X116883480Y-123214305D01*
X116814178Y-122462062D01*
X116644578Y-121890000D01*
X135221928Y-121890000D01*
X135221928Y-124490000D01*
X135234188Y-124614482D01*
X135270498Y-124734180D01*
X135329463Y-124844494D01*
X135408815Y-124941185D01*
X135505506Y-125020537D01*
X135615820Y-125079502D01*
X135735518Y-125115812D01*
X135860000Y-125128072D01*
X138460000Y-125128072D01*
X138584482Y-125115812D01*
X138704180Y-125079502D01*
X138814494Y-125020537D01*
X138911185Y-124941185D01*
X138990537Y-124844494D01*
X139049502Y-124734180D01*
X139085812Y-124614482D01*
X139093224Y-124539224D01*
X140990381Y-124539224D01*
X141122317Y-124834312D01*
X141463045Y-125005159D01*
X141830557Y-125106250D01*
X142210729Y-125133701D01*
X142588951Y-125086457D01*
X142950690Y-124966333D01*
X143197683Y-124834312D01*
X143329619Y-124539224D01*
X142160000Y-123369605D01*
X140990381Y-124539224D01*
X139093224Y-124539224D01*
X139098072Y-124490000D01*
X139098072Y-123240729D01*
X140216299Y-123240729D01*
X140263543Y-123618951D01*
X140383667Y-123980690D01*
X140515688Y-124227683D01*
X140810776Y-124359619D01*
X141980395Y-123190000D01*
X142339605Y-123190000D01*
X143509224Y-124359619D01*
X143804312Y-124227683D01*
X143975159Y-123886955D01*
X144076250Y-123519443D01*
X144101793Y-123165695D01*
X157436520Y-123165695D01*
X157505822Y-123917938D01*
X157720548Y-124642208D01*
X158072445Y-125310670D01*
X158099452Y-125351088D01*
X158589119Y-125711276D01*
X161110395Y-123190000D01*
X161469605Y-123190000D01*
X163990881Y-125711276D01*
X164480548Y-125351088D01*
X164840849Y-124687118D01*
X165064694Y-123965615D01*
X165143480Y-123214305D01*
X165074178Y-122462062D01*
X164859452Y-121737792D01*
X164507555Y-121069330D01*
X164480548Y-121028912D01*
X163990881Y-120668724D01*
X161469605Y-123190000D01*
X161110395Y-123190000D01*
X158589119Y-120668724D01*
X158099452Y-121028912D01*
X157739151Y-121692882D01*
X157515306Y-122414385D01*
X157436520Y-123165695D01*
X144101793Y-123165695D01*
X144103701Y-123139271D01*
X144056457Y-122761049D01*
X143936333Y-122399310D01*
X143804312Y-122152317D01*
X143509224Y-122020381D01*
X142339605Y-123190000D01*
X141980395Y-123190000D01*
X140810776Y-122020381D01*
X140515688Y-122152317D01*
X140344841Y-122493045D01*
X140243750Y-122860557D01*
X140216299Y-123240729D01*
X139098072Y-123240729D01*
X139098072Y-121890000D01*
X139093225Y-121840776D01*
X140990381Y-121840776D01*
X142160000Y-123010395D01*
X143329619Y-121840776D01*
X143197683Y-121545688D01*
X142856955Y-121374841D01*
X142489443Y-121273750D01*
X142109271Y-121246299D01*
X141731049Y-121293543D01*
X141369310Y-121413667D01*
X141122317Y-121545688D01*
X140990381Y-121840776D01*
X139093225Y-121840776D01*
X139085812Y-121765518D01*
X139049502Y-121645820D01*
X138990537Y-121535506D01*
X138911185Y-121438815D01*
X138814494Y-121359463D01*
X138704180Y-121300498D01*
X138584482Y-121264188D01*
X138460000Y-121251928D01*
X135860000Y-121251928D01*
X135735518Y-121264188D01*
X135615820Y-121300498D01*
X135505506Y-121359463D01*
X135408815Y-121438815D01*
X135329463Y-121535506D01*
X135270498Y-121645820D01*
X135234188Y-121765518D01*
X135221928Y-121890000D01*
X116644578Y-121890000D01*
X116599452Y-121737792D01*
X116247555Y-121069330D01*
X116220548Y-121028912D01*
X115730881Y-120668724D01*
X113209605Y-123190000D01*
X112850395Y-123190000D01*
X110329119Y-120668724D01*
X109839452Y-121028912D01*
X109479151Y-121692882D01*
X109255306Y-122414385D01*
X109176520Y-123165695D01*
X103530000Y-123165695D01*
X103530000Y-120489119D01*
X110508724Y-120489119D01*
X113030000Y-123010395D01*
X115551276Y-120489119D01*
X158768724Y-120489119D01*
X161290000Y-123010395D01*
X163811276Y-120489119D01*
X163451088Y-119999452D01*
X162787118Y-119639151D01*
X162065615Y-119415306D01*
X161314305Y-119336520D01*
X160562062Y-119405822D01*
X159837792Y-119620548D01*
X159169330Y-119972445D01*
X159128912Y-119999452D01*
X158768724Y-120489119D01*
X115551276Y-120489119D01*
X115191088Y-119999452D01*
X114527118Y-119639151D01*
X113805615Y-119415306D01*
X113054305Y-119336520D01*
X112302062Y-119405822D01*
X111577792Y-119620548D01*
X110909330Y-119972445D01*
X110868912Y-119999452D01*
X110508724Y-120489119D01*
X103530000Y-120489119D01*
X103530000Y-103917350D01*
X105689400Y-103917350D01*
X105689400Y-104362650D01*
X105776274Y-104799393D01*
X105946682Y-105210796D01*
X106194077Y-105581048D01*
X106508952Y-105895923D01*
X106879204Y-106143318D01*
X107290607Y-106313726D01*
X107727350Y-106400600D01*
X108172650Y-106400600D01*
X108609393Y-106313726D01*
X109020796Y-106143318D01*
X109391048Y-105895923D01*
X109705923Y-105581048D01*
X109953318Y-105210796D01*
X110123726Y-104799393D01*
X110210600Y-104362650D01*
X110210600Y-103917350D01*
X110123726Y-103480607D01*
X109953318Y-103069204D01*
X109705923Y-102698952D01*
X109391048Y-102384077D01*
X109020796Y-102136682D01*
X108609393Y-101966274D01*
X108172650Y-101879400D01*
X107727350Y-101879400D01*
X107290607Y-101966274D01*
X106879204Y-102136682D01*
X106508952Y-102384077D01*
X106194077Y-102698952D01*
X105946682Y-103069204D01*
X105776274Y-103480607D01*
X105689400Y-103917350D01*
X103530000Y-103917350D01*
X103530000Y-96520000D01*
X110996324Y-96520000D01*
X111000001Y-96557332D01*
X111000000Y-99022677D01*
X110996324Y-99060000D01*
X111000000Y-99097322D01*
X111000000Y-99097332D01*
X111010997Y-99208985D01*
X111054454Y-99352246D01*
X111125026Y-99484276D01*
X111152273Y-99517476D01*
X111219999Y-99600001D01*
X111249002Y-99623803D01*
X111831200Y-100206002D01*
X111854999Y-100235001D01*
X111883997Y-100258799D01*
X111970724Y-100329974D01*
X112102753Y-100400546D01*
X112246014Y-100444003D01*
X112395000Y-100458677D01*
X112432333Y-100455000D01*
X112913819Y-100455000D01*
X113076773Y-100698877D01*
X113296123Y-100918227D01*
X113366124Y-100965000D01*
X113296123Y-101011773D01*
X113076773Y-101231123D01*
X112904430Y-101489052D01*
X112785718Y-101775648D01*
X112725200Y-102079896D01*
X112725200Y-102390104D01*
X112785718Y-102694352D01*
X112904430Y-102980948D01*
X113076773Y-103238877D01*
X113296123Y-103458227D01*
X113554052Y-103630570D01*
X113840648Y-103749282D01*
X114144896Y-103809800D01*
X114455104Y-103809800D01*
X114759352Y-103749282D01*
X115045948Y-103630570D01*
X115303877Y-103458227D01*
X115523227Y-103238877D01*
X115695570Y-102980948D01*
X115814282Y-102694352D01*
X115874800Y-102390104D01*
X115874800Y-102214070D01*
X116094052Y-102360570D01*
X116380648Y-102479282D01*
X116684896Y-102539800D01*
X116995104Y-102539800D01*
X117299352Y-102479282D01*
X117585948Y-102360570D01*
X117843877Y-102188227D01*
X118063227Y-101968877D01*
X118235570Y-101710948D01*
X118354282Y-101424352D01*
X118414800Y-101120104D01*
X118414800Y-100809896D01*
X118354282Y-100505648D01*
X118235570Y-100219052D01*
X118063227Y-99961123D01*
X117843877Y-99741773D01*
X117707286Y-99650505D01*
X117752871Y-99517476D01*
X116840000Y-98604605D01*
X116825858Y-98618748D01*
X116646253Y-98439143D01*
X116660395Y-98425000D01*
X117019605Y-98425000D01*
X117932476Y-99337871D01*
X118190723Y-99249377D01*
X118325597Y-98970024D01*
X118403381Y-98669725D01*
X118421084Y-98360023D01*
X118378027Y-98052816D01*
X118275865Y-97759914D01*
X118190723Y-97600623D01*
X117932476Y-97512129D01*
X117019605Y-98425000D01*
X116660395Y-98425000D01*
X116646253Y-98410858D01*
X116825858Y-98231253D01*
X116840000Y-98245395D01*
X117752871Y-97332524D01*
X117692039Y-97155000D01*
X117752871Y-96977476D01*
X116840000Y-96064605D01*
X116825858Y-96078748D01*
X116646253Y-95899143D01*
X116660395Y-95885000D01*
X117019605Y-95885000D01*
X117932476Y-96797871D01*
X118190723Y-96709377D01*
X118325597Y-96430024D01*
X118403381Y-96129725D01*
X118421084Y-95820023D01*
X118378027Y-95512816D01*
X118275865Y-95219914D01*
X118190723Y-95060623D01*
X117932476Y-94972129D01*
X117019605Y-95885000D01*
X116660395Y-95885000D01*
X115747524Y-94972129D01*
X115489277Y-95060623D01*
X115354403Y-95339976D01*
X115276619Y-95640275D01*
X115258916Y-95949977D01*
X115267091Y-96008301D01*
X115212870Y-96062522D01*
X115124377Y-95804277D01*
X114845024Y-95669403D01*
X114544725Y-95591619D01*
X114235023Y-95573916D01*
X113927816Y-95616973D01*
X113636069Y-95718732D01*
X114562277Y-94792524D01*
X115927129Y-94792524D01*
X116840000Y-95705395D01*
X117752871Y-94792524D01*
X117664377Y-94534277D01*
X117385024Y-94399403D01*
X117084725Y-94321619D01*
X116775023Y-94303916D01*
X116467816Y-94346973D01*
X116174914Y-94449135D01*
X116015623Y-94534277D01*
X115927129Y-94792524D01*
X114562277Y-94792524D01*
X126288443Y-83066359D01*
X126329746Y-83093957D01*
X126368477Y-83110000D01*
X126329746Y-83126043D01*
X126097990Y-83280897D01*
X125900897Y-83477990D01*
X125746043Y-83709746D01*
X125639377Y-83967260D01*
X125585000Y-84240635D01*
X125585000Y-84519365D01*
X125639377Y-84792740D01*
X125746043Y-85050254D01*
X125900897Y-85282010D01*
X126097990Y-85479103D01*
X126329746Y-85633957D01*
X126368477Y-85650000D01*
X126329746Y-85666043D01*
X126097990Y-85820897D01*
X125900897Y-86017990D01*
X125746043Y-86249746D01*
X125639377Y-86507260D01*
X125585000Y-86780635D01*
X125585000Y-87059365D01*
X125639377Y-87332740D01*
X125746043Y-87590254D01*
X125900897Y-87822010D01*
X126097990Y-88019103D01*
X126329746Y-88173957D01*
X126368477Y-88190000D01*
X126329746Y-88206043D01*
X126097990Y-88360897D01*
X125900897Y-88557990D01*
X125746043Y-88789746D01*
X125639377Y-89047260D01*
X125585000Y-89320635D01*
X125585000Y-89599365D01*
X125639377Y-89872740D01*
X125746043Y-90130254D01*
X125900897Y-90362010D01*
X126097990Y-90559103D01*
X126329746Y-90713957D01*
X126368477Y-90730000D01*
X126329746Y-90746043D01*
X126097990Y-90900897D01*
X125900897Y-91097990D01*
X125746043Y-91329746D01*
X125639377Y-91587260D01*
X125585000Y-91860635D01*
X125585000Y-92139365D01*
X125639377Y-92412740D01*
X125746043Y-92670254D01*
X125900897Y-92902010D01*
X126097990Y-93099103D01*
X126329746Y-93253957D01*
X126368477Y-93270000D01*
X126329746Y-93286043D01*
X126097990Y-93440897D01*
X125900897Y-93637990D01*
X125746043Y-93869746D01*
X125639377Y-94127260D01*
X125585000Y-94400635D01*
X125585000Y-94679365D01*
X125639377Y-94952740D01*
X125746043Y-95210254D01*
X125900897Y-95442010D01*
X126097990Y-95639103D01*
X126329746Y-95793957D01*
X126368477Y-95810000D01*
X126329746Y-95826043D01*
X126097990Y-95980897D01*
X125900897Y-96177990D01*
X125746043Y-96409746D01*
X125639377Y-96667260D01*
X125585000Y-96940635D01*
X125585000Y-97219365D01*
X125639377Y-97492740D01*
X125746043Y-97750254D01*
X125900897Y-97982010D01*
X126097990Y-98179103D01*
X126329746Y-98333957D01*
X126368477Y-98350000D01*
X126329746Y-98366043D01*
X126097990Y-98520897D01*
X125900897Y-98717990D01*
X125746043Y-98949746D01*
X125639377Y-99207260D01*
X125585000Y-99480635D01*
X125585000Y-99759365D01*
X125639377Y-100032740D01*
X125746043Y-100290254D01*
X125900897Y-100522010D01*
X126097990Y-100719103D01*
X126329746Y-100873957D01*
X126368477Y-100890000D01*
X126329746Y-100906043D01*
X126097990Y-101060897D01*
X125900897Y-101257990D01*
X125746043Y-101489746D01*
X125639377Y-101747260D01*
X125585000Y-102020635D01*
X125585000Y-102299365D01*
X125639377Y-102572740D01*
X125746043Y-102830254D01*
X125900897Y-103062010D01*
X126097990Y-103259103D01*
X126329746Y-103413957D01*
X126368477Y-103430000D01*
X126329746Y-103446043D01*
X126097990Y-103600897D01*
X125900897Y-103797990D01*
X125746043Y-104029746D01*
X125639377Y-104287260D01*
X125585000Y-104560635D01*
X125585000Y-104839365D01*
X125639377Y-105112740D01*
X125746043Y-105370254D01*
X125900897Y-105602010D01*
X126097990Y-105799103D01*
X126329746Y-105953957D01*
X126368477Y-105970000D01*
X126329746Y-105986043D01*
X126097990Y-106140897D01*
X125900897Y-106337990D01*
X125746043Y-106569746D01*
X125639377Y-106827260D01*
X125585000Y-107100635D01*
X125585000Y-107379365D01*
X125639377Y-107652740D01*
X125746043Y-107910254D01*
X125900897Y-108142010D01*
X126097990Y-108339103D01*
X126329746Y-108493957D01*
X126368477Y-108510000D01*
X126329746Y-108526043D01*
X126097990Y-108680897D01*
X125900897Y-108877990D01*
X125746043Y-109109746D01*
X125639377Y-109367260D01*
X125585000Y-109640635D01*
X125585000Y-109919365D01*
X125639377Y-110192740D01*
X125746043Y-110450254D01*
X125900897Y-110682010D01*
X126097990Y-110879103D01*
X126329746Y-111033957D01*
X126368477Y-111050000D01*
X126329746Y-111066043D01*
X126097990Y-111220897D01*
X125900897Y-111417990D01*
X125746043Y-111649746D01*
X125639377Y-111907260D01*
X125585000Y-112180635D01*
X125585000Y-112459365D01*
X125639377Y-112732740D01*
X125746043Y-112990254D01*
X125900897Y-113222010D01*
X126097990Y-113419103D01*
X126329746Y-113573957D01*
X126587260Y-113680623D01*
X126860635Y-113735000D01*
X127139365Y-113735000D01*
X127412740Y-113680623D01*
X127670254Y-113573957D01*
X127902010Y-113419103D01*
X128099103Y-113222010D01*
X128253957Y-112990254D01*
X128360623Y-112732740D01*
X128415000Y-112459365D01*
X128415000Y-112180635D01*
X128360623Y-111907260D01*
X128253957Y-111649746D01*
X128099103Y-111417990D01*
X127902010Y-111220897D01*
X127670254Y-111066043D01*
X127631523Y-111050000D01*
X127670254Y-111033957D01*
X127902010Y-110879103D01*
X128099103Y-110682010D01*
X128253957Y-110450254D01*
X128360623Y-110192740D01*
X128415000Y-109919365D01*
X128415000Y-109640635D01*
X128360623Y-109367260D01*
X128253957Y-109109746D01*
X128099103Y-108877990D01*
X127902010Y-108680897D01*
X127670254Y-108526043D01*
X127631523Y-108510000D01*
X127670254Y-108493957D01*
X127902010Y-108339103D01*
X128099103Y-108142010D01*
X128253957Y-107910254D01*
X128360623Y-107652740D01*
X128415000Y-107379365D01*
X128415000Y-107100635D01*
X128360623Y-106827260D01*
X128253957Y-106569746D01*
X128099103Y-106337990D01*
X127902010Y-106140897D01*
X127670254Y-105986043D01*
X127631523Y-105970000D01*
X127670254Y-105953957D01*
X127902010Y-105799103D01*
X128099103Y-105602010D01*
X128253957Y-105370254D01*
X128360623Y-105112740D01*
X128415000Y-104839365D01*
X128415000Y-104560635D01*
X128360623Y-104287260D01*
X128253957Y-104029746D01*
X128099103Y-103797990D01*
X127902010Y-103600897D01*
X127670254Y-103446043D01*
X127631523Y-103430000D01*
X127670254Y-103413957D01*
X127902010Y-103259103D01*
X128099103Y-103062010D01*
X128253957Y-102830254D01*
X128360623Y-102572740D01*
X128415000Y-102299365D01*
X128415000Y-102020635D01*
X128360623Y-101747260D01*
X128253957Y-101489746D01*
X128099103Y-101257990D01*
X127902010Y-101060897D01*
X127670254Y-100906043D01*
X127631523Y-100890000D01*
X127670254Y-100873957D01*
X127902010Y-100719103D01*
X128099103Y-100522010D01*
X128253957Y-100290254D01*
X128360623Y-100032740D01*
X128415000Y-99759365D01*
X128415000Y-99480635D01*
X128360623Y-99207260D01*
X128253957Y-98949746D01*
X128099103Y-98717990D01*
X127902010Y-98520897D01*
X127670254Y-98366043D01*
X127631523Y-98350000D01*
X127670254Y-98333957D01*
X127902010Y-98179103D01*
X128099103Y-97982010D01*
X128253957Y-97750254D01*
X128360623Y-97492740D01*
X128415000Y-97219365D01*
X128415000Y-96940635D01*
X128360623Y-96667260D01*
X128253957Y-96409746D01*
X128099103Y-96177990D01*
X127902010Y-95980897D01*
X127670254Y-95826043D01*
X127631523Y-95810000D01*
X127670254Y-95793957D01*
X127902010Y-95639103D01*
X128099103Y-95442010D01*
X128253957Y-95210254D01*
X128360623Y-94952740D01*
X128415000Y-94679365D01*
X128415000Y-94400635D01*
X128360623Y-94127260D01*
X128253957Y-93869746D01*
X128099103Y-93637990D01*
X127902010Y-93440897D01*
X127670254Y-93286043D01*
X127631523Y-93270000D01*
X127670254Y-93253957D01*
X127902010Y-93099103D01*
X128099103Y-92902010D01*
X128253957Y-92670254D01*
X128360623Y-92412740D01*
X128415000Y-92139365D01*
X128415000Y-91860635D01*
X128360623Y-91587260D01*
X128253957Y-91329746D01*
X128099103Y-91097990D01*
X127902010Y-90900897D01*
X127670254Y-90746043D01*
X127631523Y-90730000D01*
X127670254Y-90713957D01*
X127902010Y-90559103D01*
X128099103Y-90362010D01*
X128253957Y-90130254D01*
X128360623Y-89872740D01*
X128415000Y-89599365D01*
X128415000Y-89320635D01*
X128360623Y-89047260D01*
X128253957Y-88789746D01*
X128099103Y-88557990D01*
X127902010Y-88360897D01*
X127670254Y-88206043D01*
X127631523Y-88190000D01*
X127670254Y-88173957D01*
X127902010Y-88019103D01*
X128099103Y-87822010D01*
X128253957Y-87590254D01*
X128360623Y-87332740D01*
X128415000Y-87059365D01*
X128415000Y-86780635D01*
X128360623Y-86507260D01*
X128253957Y-86249746D01*
X128099103Y-86017990D01*
X127902010Y-85820897D01*
X127670254Y-85666043D01*
X127631523Y-85650000D01*
X127670254Y-85633957D01*
X127902010Y-85479103D01*
X128099103Y-85282010D01*
X128253957Y-85050254D01*
X128360623Y-84792740D01*
X128415000Y-84519365D01*
X128415000Y-84240635D01*
X128360623Y-83967260D01*
X128253957Y-83709746D01*
X128099103Y-83477990D01*
X127902010Y-83280897D01*
X127670254Y-83126043D01*
X127631523Y-83110000D01*
X127670254Y-83093957D01*
X127902010Y-82939103D01*
X128099103Y-82742010D01*
X128193991Y-82600000D01*
X134502678Y-82600000D01*
X134540000Y-82603676D01*
X134577322Y-82600000D01*
X134577333Y-82600000D01*
X134688986Y-82589003D01*
X134832247Y-82545546D01*
X134964276Y-82474974D01*
X135080001Y-82380001D01*
X135103804Y-82350997D01*
X138341730Y-79113072D01*
X138667500Y-79113072D01*
X138838316Y-79096248D01*
X139002567Y-79046423D01*
X139153942Y-78965512D01*
X139286623Y-78856623D01*
X139395512Y-78723942D01*
X139476423Y-78572567D01*
X139526248Y-78408316D01*
X139543072Y-78237500D01*
X139543072Y-78230000D01*
X142537036Y-78230000D01*
X142544488Y-78243942D01*
X142653377Y-78376623D01*
X142786058Y-78485512D01*
X142937433Y-78566423D01*
X143101684Y-78616248D01*
X143272500Y-78633072D01*
X143747500Y-78633072D01*
X143918316Y-78616248D01*
X144082567Y-78566423D01*
X144233942Y-78485512D01*
X144366623Y-78376623D01*
X144475512Y-78243942D01*
X144556423Y-78092567D01*
X144606248Y-77928316D01*
X144623072Y-77757500D01*
X144623072Y-77182500D01*
X144606248Y-77011684D01*
X144556423Y-76847433D01*
X144475512Y-76696058D01*
X144455901Y-76672161D01*
X144515537Y-76599494D01*
X144574502Y-76489180D01*
X144610812Y-76369482D01*
X144623072Y-76245000D01*
X144620000Y-76005750D01*
X144461250Y-75847000D01*
X143637000Y-75847000D01*
X143637000Y-75867000D01*
X143383000Y-75867000D01*
X143383000Y-75847000D01*
X142558750Y-75847000D01*
X142400000Y-76005750D01*
X142396928Y-76245000D01*
X142409188Y-76369482D01*
X142445498Y-76489180D01*
X142504463Y-76599494D01*
X142564099Y-76672161D01*
X142544488Y-76696058D01*
X142537036Y-76710000D01*
X139510570Y-76710000D01*
X139526248Y-76658316D01*
X139543072Y-76487500D01*
X139543072Y-75912500D01*
X139526248Y-75741684D01*
X139476423Y-75577433D01*
X139395512Y-75426058D01*
X139286623Y-75293377D01*
X139166751Y-75195000D01*
X142396928Y-75195000D01*
X142400000Y-75434250D01*
X142558750Y-75593000D01*
X143383000Y-75593000D01*
X143383000Y-74718750D01*
X143637000Y-74718750D01*
X143637000Y-75593000D01*
X144461250Y-75593000D01*
X144620000Y-75434250D01*
X144623072Y-75195000D01*
X144610812Y-75070518D01*
X144574502Y-74950820D01*
X144515537Y-74840506D01*
X144436185Y-74743815D01*
X144339494Y-74664463D01*
X144229180Y-74605498D01*
X144109482Y-74569188D01*
X143985000Y-74556928D01*
X143795750Y-74560000D01*
X143637000Y-74718750D01*
X143383000Y-74718750D01*
X143224250Y-74560000D01*
X143035000Y-74556928D01*
X142910518Y-74569188D01*
X142790820Y-74605498D01*
X142680506Y-74664463D01*
X142583815Y-74743815D01*
X142504463Y-74840506D01*
X142445498Y-74950820D01*
X142409188Y-75070518D01*
X142396928Y-75195000D01*
X139166751Y-75195000D01*
X139153942Y-75184488D01*
X139002567Y-75103577D01*
X138838316Y-75053752D01*
X138667500Y-75036928D01*
X138192500Y-75036928D01*
X138021684Y-75053752D01*
X137857433Y-75103577D01*
X137706058Y-75184488D01*
X137573377Y-75293377D01*
X137464488Y-75426058D01*
X137457036Y-75440000D01*
X134463072Y-75440000D01*
X134463072Y-75432500D01*
X134446248Y-75261684D01*
X134396423Y-75097433D01*
X134315512Y-74946058D01*
X134206623Y-74813377D01*
X134110000Y-74734080D01*
X134110000Y-72987322D01*
X134113676Y-72949999D01*
X134110000Y-72912676D01*
X134110000Y-72912667D01*
X134099003Y-72801014D01*
X134055546Y-72657753D01*
X133984974Y-72525723D01*
X133913799Y-72438997D01*
X133890001Y-72409999D01*
X133861003Y-72386201D01*
X130475437Y-69000635D01*
X150985000Y-69000635D01*
X150985000Y-69279365D01*
X151039377Y-69552740D01*
X151146043Y-69810254D01*
X151300897Y-70042010D01*
X151497990Y-70239103D01*
X151729746Y-70393957D01*
X151768477Y-70410000D01*
X151729746Y-70426043D01*
X151497990Y-70580897D01*
X151300897Y-70777990D01*
X151146043Y-71009746D01*
X151039377Y-71267260D01*
X150985000Y-71540635D01*
X150985000Y-71819365D01*
X151039377Y-72092740D01*
X151146043Y-72350254D01*
X151300897Y-72582010D01*
X151497990Y-72779103D01*
X151729746Y-72933957D01*
X151768477Y-72950000D01*
X151729746Y-72966043D01*
X151497990Y-73120897D01*
X151300897Y-73317990D01*
X151146043Y-73549746D01*
X151039377Y-73807260D01*
X150985000Y-74080635D01*
X150985000Y-74359365D01*
X151039377Y-74632740D01*
X151146043Y-74890254D01*
X151300897Y-75122010D01*
X151497990Y-75319103D01*
X151729746Y-75473957D01*
X151768477Y-75490000D01*
X151729746Y-75506043D01*
X151497990Y-75660897D01*
X151300897Y-75857990D01*
X151146043Y-76089746D01*
X151039377Y-76347260D01*
X150985000Y-76620635D01*
X150985000Y-76899365D01*
X151039377Y-77172740D01*
X151146043Y-77430254D01*
X151300897Y-77662010D01*
X151497990Y-77859103D01*
X151729746Y-78013957D01*
X151768477Y-78030000D01*
X151729746Y-78046043D01*
X151497990Y-78200897D01*
X151300897Y-78397990D01*
X151146043Y-78629746D01*
X151039377Y-78887260D01*
X150985000Y-79160635D01*
X150985000Y-79439365D01*
X151039377Y-79712740D01*
X151146043Y-79970254D01*
X151300897Y-80202010D01*
X151497990Y-80399103D01*
X151729746Y-80553957D01*
X151768477Y-80570000D01*
X151729746Y-80586043D01*
X151497990Y-80740897D01*
X151300897Y-80937990D01*
X151146043Y-81169746D01*
X151039377Y-81427260D01*
X150985000Y-81700635D01*
X150985000Y-81979365D01*
X151039377Y-82252740D01*
X151146043Y-82510254D01*
X151300897Y-82742010D01*
X151497990Y-82939103D01*
X151729746Y-83093957D01*
X151768477Y-83110000D01*
X151729746Y-83126043D01*
X151497990Y-83280897D01*
X151300897Y-83477990D01*
X151146043Y-83709746D01*
X151039377Y-83967260D01*
X150985000Y-84240635D01*
X150985000Y-84519365D01*
X151039377Y-84792740D01*
X151146043Y-85050254D01*
X151300897Y-85282010D01*
X151497990Y-85479103D01*
X151729746Y-85633957D01*
X151768477Y-85650000D01*
X151729746Y-85666043D01*
X151497990Y-85820897D01*
X151300897Y-86017990D01*
X151146043Y-86249746D01*
X151039377Y-86507260D01*
X150985000Y-86780635D01*
X150985000Y-87059365D01*
X151039377Y-87332740D01*
X151146043Y-87590254D01*
X151300897Y-87822010D01*
X151497990Y-88019103D01*
X151729746Y-88173957D01*
X151768477Y-88190000D01*
X151729746Y-88206043D01*
X151497990Y-88360897D01*
X151300897Y-88557990D01*
X151146043Y-88789746D01*
X151039377Y-89047260D01*
X150985000Y-89320635D01*
X150985000Y-89599365D01*
X151039377Y-89872740D01*
X151146043Y-90130254D01*
X151300897Y-90362010D01*
X151497990Y-90559103D01*
X151729746Y-90713957D01*
X151768477Y-90730000D01*
X151729746Y-90746043D01*
X151497990Y-90900897D01*
X151300897Y-91097990D01*
X151146043Y-91329746D01*
X151039377Y-91587260D01*
X150985000Y-91860635D01*
X150985000Y-92139365D01*
X151039377Y-92412740D01*
X151146043Y-92670254D01*
X151300897Y-92902010D01*
X151497990Y-93099103D01*
X151729746Y-93253957D01*
X151768477Y-93270000D01*
X151729746Y-93286043D01*
X151497990Y-93440897D01*
X151300897Y-93637990D01*
X151146043Y-93869746D01*
X151039377Y-94127260D01*
X150985000Y-94400635D01*
X150985000Y-94679365D01*
X151039377Y-94952740D01*
X151146043Y-95210254D01*
X151300897Y-95442010D01*
X151497990Y-95639103D01*
X151729746Y-95793957D01*
X151768477Y-95810000D01*
X151729746Y-95826043D01*
X151497990Y-95980897D01*
X151300897Y-96177990D01*
X151146043Y-96409746D01*
X151039377Y-96667260D01*
X150985000Y-96940635D01*
X150985000Y-97219365D01*
X151039377Y-97492740D01*
X151146043Y-97750254D01*
X151300897Y-97982010D01*
X151497990Y-98179103D01*
X151729746Y-98333957D01*
X151768477Y-98350000D01*
X151729746Y-98366043D01*
X151497990Y-98520897D01*
X151300897Y-98717990D01*
X151146043Y-98949746D01*
X151039377Y-99207260D01*
X150985000Y-99480635D01*
X150985000Y-99759365D01*
X151039377Y-100032740D01*
X151146043Y-100290254D01*
X151300897Y-100522010D01*
X151497990Y-100719103D01*
X151729746Y-100873957D01*
X151768477Y-100890000D01*
X151729746Y-100906043D01*
X151497990Y-101060897D01*
X151300897Y-101257990D01*
X151146043Y-101489746D01*
X151039377Y-101747260D01*
X150985000Y-102020635D01*
X150985000Y-102299365D01*
X151039377Y-102572740D01*
X151146043Y-102830254D01*
X151300897Y-103062010D01*
X151497990Y-103259103D01*
X151729746Y-103413957D01*
X151768477Y-103430000D01*
X151729746Y-103446043D01*
X151497990Y-103600897D01*
X151300897Y-103797990D01*
X151146043Y-104029746D01*
X151039377Y-104287260D01*
X150985000Y-104560635D01*
X150985000Y-104839365D01*
X151039377Y-105112740D01*
X151146043Y-105370254D01*
X151300897Y-105602010D01*
X151497990Y-105799103D01*
X151729746Y-105953957D01*
X151768477Y-105970000D01*
X151729746Y-105986043D01*
X151497990Y-106140897D01*
X151300897Y-106337990D01*
X151146043Y-106569746D01*
X151039377Y-106827260D01*
X150985000Y-107100635D01*
X150985000Y-107379365D01*
X151039377Y-107652740D01*
X151146043Y-107910254D01*
X151300897Y-108142010D01*
X151497990Y-108339103D01*
X151729746Y-108493957D01*
X151768477Y-108510000D01*
X151729746Y-108526043D01*
X151497990Y-108680897D01*
X151300897Y-108877990D01*
X151146043Y-109109746D01*
X151039377Y-109367260D01*
X150985000Y-109640635D01*
X150985000Y-109919365D01*
X151039377Y-110192740D01*
X151146043Y-110450254D01*
X151300897Y-110682010D01*
X151497990Y-110879103D01*
X151729746Y-111033957D01*
X151768477Y-111050000D01*
X151729746Y-111066043D01*
X151497990Y-111220897D01*
X151300897Y-111417990D01*
X151146043Y-111649746D01*
X151039377Y-111907260D01*
X150985000Y-112180635D01*
X150985000Y-112459365D01*
X151039377Y-112732740D01*
X151146043Y-112990254D01*
X151300897Y-113222010D01*
X151497990Y-113419103D01*
X151729746Y-113573957D01*
X151987260Y-113680623D01*
X152260635Y-113735000D01*
X152539365Y-113735000D01*
X152812740Y-113680623D01*
X153070254Y-113573957D01*
X153302010Y-113419103D01*
X153499103Y-113222010D01*
X153653957Y-112990254D01*
X153760623Y-112732740D01*
X153815000Y-112459365D01*
X153815000Y-112180635D01*
X153760623Y-111907260D01*
X153653957Y-111649746D01*
X153499103Y-111417990D01*
X153302010Y-111220897D01*
X153070254Y-111066043D01*
X153031523Y-111050000D01*
X153070254Y-111033957D01*
X153302010Y-110879103D01*
X153499103Y-110682010D01*
X153653957Y-110450254D01*
X153760623Y-110192740D01*
X153815000Y-109919365D01*
X153815000Y-109640635D01*
X153760623Y-109367260D01*
X153653957Y-109109746D01*
X153499103Y-108877990D01*
X153302010Y-108680897D01*
X153070254Y-108526043D01*
X153031523Y-108510000D01*
X153070254Y-108493957D01*
X153302010Y-108339103D01*
X153499103Y-108142010D01*
X153653957Y-107910254D01*
X153760623Y-107652740D01*
X153815000Y-107379365D01*
X153815000Y-107100635D01*
X153760623Y-106827260D01*
X153653957Y-106569746D01*
X153499103Y-106337990D01*
X153302010Y-106140897D01*
X153070254Y-105986043D01*
X153031523Y-105970000D01*
X153070254Y-105953957D01*
X153302010Y-105799103D01*
X153499103Y-105602010D01*
X153653957Y-105370254D01*
X153760623Y-105112740D01*
X153815000Y-104839365D01*
X153815000Y-104560635D01*
X153760623Y-104287260D01*
X153653957Y-104029746D01*
X153499103Y-103797990D01*
X153302010Y-103600897D01*
X153070254Y-103446043D01*
X153031523Y-103430000D01*
X153070254Y-103413957D01*
X153302010Y-103259103D01*
X153499103Y-103062010D01*
X153653957Y-102830254D01*
X153760623Y-102572740D01*
X153815000Y-102299365D01*
X153815000Y-102020635D01*
X153760623Y-101747260D01*
X153653957Y-101489746D01*
X153499103Y-101257990D01*
X153302010Y-101060897D01*
X153070254Y-100906043D01*
X153031523Y-100890000D01*
X153070254Y-100873957D01*
X153302010Y-100719103D01*
X153499103Y-100522010D01*
X153653957Y-100290254D01*
X153760623Y-100032740D01*
X153815000Y-99759365D01*
X153815000Y-99480635D01*
X153760623Y-99207260D01*
X153653957Y-98949746D01*
X153499103Y-98717990D01*
X153302010Y-98520897D01*
X153070254Y-98366043D01*
X153031523Y-98350000D01*
X153070254Y-98333957D01*
X153302010Y-98179103D01*
X153499103Y-97982010D01*
X153653957Y-97750254D01*
X153760623Y-97492740D01*
X153815000Y-97219365D01*
X153815000Y-96940635D01*
X153760623Y-96667260D01*
X153653957Y-96409746D01*
X153499103Y-96177990D01*
X153302010Y-95980897D01*
X153070254Y-95826043D01*
X153031523Y-95810000D01*
X153070254Y-95793957D01*
X153302010Y-95639103D01*
X153499103Y-95442010D01*
X153653957Y-95210254D01*
X153760623Y-94952740D01*
X153815000Y-94679365D01*
X153815000Y-94400635D01*
X153760623Y-94127260D01*
X153653957Y-93869746D01*
X153499103Y-93637990D01*
X153302010Y-93440897D01*
X153070254Y-93286043D01*
X153031523Y-93270000D01*
X153070254Y-93253957D01*
X153302010Y-93099103D01*
X153499103Y-92902010D01*
X153653957Y-92670254D01*
X153760623Y-92412740D01*
X153815000Y-92139365D01*
X153815000Y-91860635D01*
X153760623Y-91587260D01*
X153653957Y-91329746D01*
X153499103Y-91097990D01*
X153302010Y-90900897D01*
X153070254Y-90746043D01*
X153031523Y-90730000D01*
X153070254Y-90713957D01*
X153302010Y-90559103D01*
X153499103Y-90362010D01*
X153653957Y-90130254D01*
X153760623Y-89872740D01*
X153815000Y-89599365D01*
X153815000Y-89320635D01*
X153760623Y-89047260D01*
X153653957Y-88789746D01*
X153499103Y-88557990D01*
X153302010Y-88360897D01*
X153070254Y-88206043D01*
X153031523Y-88190000D01*
X153070254Y-88173957D01*
X153302010Y-88019103D01*
X153499103Y-87822010D01*
X153653957Y-87590254D01*
X153760623Y-87332740D01*
X153815000Y-87059365D01*
X153815000Y-86780635D01*
X153760623Y-86507260D01*
X153653957Y-86249746D01*
X153499103Y-86017990D01*
X153302010Y-85820897D01*
X153070254Y-85666043D01*
X153031523Y-85650000D01*
X153070254Y-85633957D01*
X153302010Y-85479103D01*
X153499103Y-85282010D01*
X153653957Y-85050254D01*
X153760623Y-84792740D01*
X153815000Y-84519365D01*
X153815000Y-84240635D01*
X153760623Y-83967260D01*
X153653957Y-83709746D01*
X153499103Y-83477990D01*
X153302010Y-83280897D01*
X153070254Y-83126043D01*
X153031523Y-83110000D01*
X153070254Y-83093957D01*
X153302010Y-82939103D01*
X153499103Y-82742010D01*
X153653957Y-82510254D01*
X153760623Y-82252740D01*
X153815000Y-81979365D01*
X153815000Y-81700635D01*
X153760623Y-81427260D01*
X153653957Y-81169746D01*
X153499103Y-80937990D01*
X153302010Y-80740897D01*
X153070254Y-80586043D01*
X153031523Y-80570000D01*
X153070254Y-80553957D01*
X153302010Y-80399103D01*
X153499103Y-80202010D01*
X153593991Y-80060000D01*
X156366928Y-80060000D01*
X156366928Y-80297500D01*
X156383752Y-80468316D01*
X156433577Y-80632567D01*
X156514488Y-80783942D01*
X156597425Y-80885000D01*
X156514488Y-80986058D01*
X156433577Y-81137433D01*
X156383752Y-81301684D01*
X156366928Y-81472500D01*
X156366928Y-82047500D01*
X156383752Y-82218316D01*
X156433577Y-82382567D01*
X156514488Y-82533942D01*
X156623377Y-82666623D01*
X156720000Y-82745920D01*
X156720001Y-83116288D01*
X156676063Y-83160226D01*
X156562795Y-83329744D01*
X156484774Y-83518102D01*
X156445000Y-83718061D01*
X156445000Y-83921939D01*
X156484774Y-84121898D01*
X156562795Y-84310256D01*
X156676063Y-84479774D01*
X156820226Y-84623937D01*
X156989744Y-84737205D01*
X157178102Y-84815226D01*
X157378061Y-84855000D01*
X157581939Y-84855000D01*
X157781898Y-84815226D01*
X157970256Y-84737205D01*
X158139774Y-84623937D01*
X158283937Y-84479774D01*
X158397205Y-84310256D01*
X158475226Y-84121898D01*
X158515000Y-83921939D01*
X158515000Y-83718061D01*
X158475226Y-83518102D01*
X158397205Y-83329744D01*
X158283937Y-83160226D01*
X158240000Y-83116289D01*
X158240000Y-82745920D01*
X158336623Y-82666623D01*
X158445512Y-82533942D01*
X158526423Y-82382567D01*
X158576248Y-82218316D01*
X158593072Y-82047500D01*
X158593072Y-82040000D01*
X161094080Y-82040000D01*
X161173377Y-82136623D01*
X161306058Y-82245512D01*
X161457433Y-82326423D01*
X161621684Y-82376248D01*
X161792500Y-82393072D01*
X162367500Y-82393072D01*
X162538316Y-82376248D01*
X162702567Y-82326423D01*
X162853942Y-82245512D01*
X162877839Y-82225901D01*
X162950506Y-82285537D01*
X163060820Y-82344502D01*
X163180518Y-82380812D01*
X163305000Y-82393072D01*
X163544250Y-82390000D01*
X163703000Y-82231250D01*
X163703000Y-81407000D01*
X163957000Y-81407000D01*
X163957000Y-82231250D01*
X164115750Y-82390000D01*
X164355000Y-82393072D01*
X164479482Y-82380812D01*
X164599180Y-82344502D01*
X164709494Y-82285537D01*
X164806185Y-82206185D01*
X164885537Y-82109494D01*
X164944502Y-81999180D01*
X164980812Y-81879482D01*
X164993072Y-81755000D01*
X164990000Y-81565750D01*
X164831250Y-81407000D01*
X163957000Y-81407000D01*
X163703000Y-81407000D01*
X163683000Y-81407000D01*
X163683000Y-81153000D01*
X163703000Y-81153000D01*
X163703000Y-80328750D01*
X163957000Y-80328750D01*
X163957000Y-81153000D01*
X164831250Y-81153000D01*
X164990000Y-80994250D01*
X164993072Y-80805000D01*
X164980812Y-80680518D01*
X164944502Y-80560820D01*
X164885537Y-80450506D01*
X164806185Y-80353815D01*
X164709494Y-80274463D01*
X164599180Y-80215498D01*
X164479482Y-80179188D01*
X164355000Y-80166928D01*
X164115750Y-80170000D01*
X163957000Y-80328750D01*
X163703000Y-80328750D01*
X163544250Y-80170000D01*
X163305000Y-80166928D01*
X163180518Y-80179188D01*
X163060820Y-80215498D01*
X162950506Y-80274463D01*
X162877839Y-80334099D01*
X162853942Y-80314488D01*
X162702567Y-80233577D01*
X162538316Y-80183752D01*
X162367500Y-80166928D01*
X161792500Y-80166928D01*
X161621684Y-80183752D01*
X161457433Y-80233577D01*
X161306058Y-80314488D01*
X161173377Y-80423377D01*
X161094080Y-80520000D01*
X158734801Y-80520000D01*
X161952800Y-77302002D01*
X161999748Y-77302002D01*
X161920000Y-77381750D01*
X161932914Y-77491932D01*
X161972557Y-77610568D01*
X162034583Y-77719190D01*
X162116608Y-77813625D01*
X162215480Y-77890243D01*
X162327400Y-77946099D01*
X162448066Y-77979048D01*
X162523250Y-77985000D01*
X162682000Y-77826250D01*
X162682000Y-77338072D01*
X162928000Y-77338072D01*
X162928000Y-77826250D01*
X163086750Y-77985000D01*
X163161934Y-77979048D01*
X163282600Y-77946099D01*
X163394520Y-77890243D01*
X163493392Y-77813625D01*
X163510780Y-77793606D01*
X163530724Y-77809974D01*
X163662753Y-77880546D01*
X163806014Y-77924003D01*
X163917667Y-77935000D01*
X163917676Y-77935000D01*
X163954999Y-77938676D01*
X163983836Y-77935836D01*
X163937794Y-78004743D01*
X163859773Y-78193101D01*
X163819999Y-78393060D01*
X163819999Y-78596938D01*
X163859773Y-78796897D01*
X163937794Y-78985255D01*
X164051062Y-79154773D01*
X164195225Y-79298936D01*
X164364743Y-79412204D01*
X164553101Y-79490225D01*
X164753060Y-79529999D01*
X164956938Y-79529999D01*
X165156897Y-79490225D01*
X165345255Y-79412204D01*
X165514773Y-79298936D01*
X165658936Y-79154773D01*
X165772204Y-78985255D01*
X165850225Y-78796897D01*
X165889999Y-78596938D01*
X165889999Y-78393060D01*
X165850225Y-78193101D01*
X165772204Y-78004743D01*
X165658936Y-77835225D01*
X165614999Y-77791288D01*
X165614999Y-77729518D01*
X165635536Y-77704494D01*
X165694501Y-77594180D01*
X165730811Y-77474482D01*
X165743071Y-77350000D01*
X165743071Y-77000000D01*
X165730811Y-76875518D01*
X165723698Y-76852069D01*
X165727085Y-76841932D01*
X165739999Y-76731750D01*
X165581249Y-76573000D01*
X165576032Y-76573000D01*
X165556184Y-76548815D01*
X165527165Y-76525000D01*
X165556184Y-76501185D01*
X165576032Y-76477000D01*
X165581249Y-76477000D01*
X165739999Y-76318250D01*
X165727085Y-76208068D01*
X165723698Y-76197931D01*
X165730811Y-76174482D01*
X165743071Y-76050000D01*
X165743071Y-75700000D01*
X165730811Y-75575518D01*
X165723070Y-75550000D01*
X165730811Y-75524482D01*
X165743071Y-75400000D01*
X165743071Y-75050000D01*
X165730811Y-74925518D01*
X165694501Y-74805820D01*
X165635536Y-74695506D01*
X165556184Y-74598815D01*
X165459493Y-74519463D01*
X165349179Y-74460498D01*
X165229481Y-74424188D01*
X165104999Y-74411928D01*
X164604999Y-74411928D01*
X164480517Y-74424188D01*
X164360819Y-74460498D01*
X164250505Y-74519463D01*
X164153814Y-74598815D01*
X164074462Y-74695506D01*
X164015497Y-74805820D01*
X163979187Y-74925518D01*
X163966927Y-75050000D01*
X163966927Y-75137854D01*
X163862753Y-75169454D01*
X163730724Y-75240026D01*
X163693072Y-75270926D01*
X163693072Y-75050000D01*
X163680812Y-74925518D01*
X163644502Y-74805820D01*
X163585537Y-74695506D01*
X163506185Y-74598815D01*
X163409494Y-74519463D01*
X163299180Y-74460498D01*
X163179482Y-74424188D01*
X163068011Y-74413209D01*
X159263804Y-70609003D01*
X159240001Y-70579999D01*
X159124276Y-70485026D01*
X158992247Y-70414454D01*
X158848986Y-70370997D01*
X158737333Y-70360000D01*
X158737322Y-70360000D01*
X158700000Y-70356324D01*
X158662678Y-70360000D01*
X158452964Y-70360000D01*
X158445512Y-70346058D01*
X158362575Y-70245000D01*
X158445512Y-70143942D01*
X158526423Y-69992567D01*
X158576248Y-69828316D01*
X158593072Y-69657500D01*
X158593072Y-69082500D01*
X158576248Y-68911684D01*
X158526423Y-68747433D01*
X158445512Y-68596058D01*
X158336623Y-68463377D01*
X158206402Y-68356507D01*
X158185546Y-68287753D01*
X158114974Y-68155724D01*
X158020001Y-68039999D01*
X157991003Y-68016201D01*
X157445683Y-67470881D01*
X158768724Y-67470881D01*
X159128912Y-67960548D01*
X159792882Y-68320849D01*
X160514385Y-68544694D01*
X161265695Y-68623480D01*
X162017938Y-68554178D01*
X162742208Y-68339452D01*
X163410670Y-67987555D01*
X163451088Y-67960548D01*
X163811276Y-67470881D01*
X161290000Y-64949605D01*
X158768724Y-67470881D01*
X157445683Y-67470881D01*
X157245000Y-67270199D01*
X157245000Y-67208061D01*
X157205226Y-67008102D01*
X157127205Y-66819744D01*
X157013937Y-66650226D01*
X156869774Y-66506063D01*
X156700256Y-66392795D01*
X156511898Y-66314774D01*
X156311939Y-66275000D01*
X156108061Y-66275000D01*
X155908102Y-66314774D01*
X155719744Y-66392795D01*
X155550226Y-66506063D01*
X155406063Y-66650226D01*
X155292795Y-66819744D01*
X155214774Y-67008102D01*
X155175000Y-67208061D01*
X155175000Y-67411939D01*
X155214774Y-67611898D01*
X155292795Y-67800256D01*
X155406063Y-67969774D01*
X155550226Y-68113937D01*
X155719744Y-68227205D01*
X155908102Y-68305226D01*
X156108061Y-68345000D01*
X156170199Y-68345000D01*
X156482013Y-68656815D01*
X156433577Y-68747433D01*
X156383752Y-68911684D01*
X156366928Y-69082500D01*
X156366928Y-69657500D01*
X156383752Y-69828316D01*
X156433577Y-69992567D01*
X156514488Y-70143942D01*
X156597425Y-70245000D01*
X156514488Y-70346058D01*
X156433577Y-70497433D01*
X156383752Y-70661684D01*
X156366928Y-70832500D01*
X156366928Y-70920000D01*
X153593991Y-70920000D01*
X153499103Y-70777990D01*
X153302010Y-70580897D01*
X153070254Y-70426043D01*
X153031523Y-70410000D01*
X153070254Y-70393957D01*
X153302010Y-70239103D01*
X153499103Y-70042010D01*
X153653957Y-69810254D01*
X153760623Y-69552740D01*
X153815000Y-69279365D01*
X153815000Y-69000635D01*
X153760623Y-68727260D01*
X153653957Y-68469746D01*
X153499103Y-68237990D01*
X153302010Y-68040897D01*
X153070254Y-67886043D01*
X153034475Y-67871223D01*
X153129655Y-67820349D01*
X153198816Y-67578421D01*
X152400000Y-66779605D01*
X151601184Y-67578421D01*
X151670345Y-67820349D01*
X151772279Y-67868425D01*
X151729746Y-67886043D01*
X151497990Y-68040897D01*
X151300897Y-68237990D01*
X151146043Y-68469746D01*
X151039377Y-68727260D01*
X150985000Y-69000635D01*
X130475437Y-69000635D01*
X128418072Y-66943271D01*
X128418072Y-66671303D01*
X150979943Y-66671303D01*
X151021140Y-66946972D01*
X151115325Y-67209308D01*
X151179651Y-67329655D01*
X151421579Y-67398816D01*
X152220395Y-66600000D01*
X152579605Y-66600000D01*
X153378421Y-67398816D01*
X153620349Y-67329655D01*
X153739248Y-67077557D01*
X153806681Y-66807106D01*
X153820057Y-66528697D01*
X153778860Y-66253028D01*
X153684675Y-65990692D01*
X153620349Y-65870345D01*
X153378421Y-65801184D01*
X152579605Y-66600000D01*
X152220395Y-66600000D01*
X151421579Y-65801184D01*
X151179651Y-65870345D01*
X151060752Y-66122443D01*
X150993319Y-66392894D01*
X150979943Y-66671303D01*
X128418072Y-66671303D01*
X128418072Y-65820000D01*
X128405812Y-65695518D01*
X128383383Y-65621579D01*
X151601184Y-65621579D01*
X152400000Y-66420395D01*
X153198816Y-65621579D01*
X153129655Y-65379651D01*
X152877557Y-65260752D01*
X152607106Y-65193319D01*
X152328697Y-65179943D01*
X152053028Y-65221140D01*
X151790692Y-65315325D01*
X151670345Y-65379651D01*
X151601184Y-65621579D01*
X128383383Y-65621579D01*
X128369502Y-65575820D01*
X128310537Y-65465506D01*
X128231185Y-65368815D01*
X128134494Y-65289463D01*
X128024180Y-65230498D01*
X127904482Y-65194188D01*
X127780000Y-65181928D01*
X126220000Y-65181928D01*
X126095518Y-65194188D01*
X125975820Y-65230498D01*
X125865506Y-65289463D01*
X125768815Y-65368815D01*
X125689463Y-65465506D01*
X125630498Y-65575820D01*
X125594188Y-65695518D01*
X125581928Y-65820000D01*
X125581928Y-66943270D01*
X121408998Y-71116201D01*
X121380000Y-71139999D01*
X121356202Y-71168997D01*
X121356201Y-71168998D01*
X121285026Y-71255724D01*
X121214454Y-71387754D01*
X121170998Y-71531015D01*
X121156324Y-71680000D01*
X121160001Y-71717332D01*
X121160000Y-73944080D01*
X121063377Y-74023377D01*
X120954488Y-74156058D01*
X120873577Y-74307433D01*
X120823752Y-74471684D01*
X120820411Y-74505609D01*
X120140000Y-73825199D01*
X120140000Y-72585920D01*
X120236623Y-72506623D01*
X120345512Y-72373942D01*
X120426423Y-72222567D01*
X120476248Y-72058316D01*
X120493072Y-71887500D01*
X120493072Y-71312500D01*
X120476248Y-71141684D01*
X120426423Y-70977433D01*
X120345512Y-70826058D01*
X120325901Y-70802161D01*
X120385537Y-70729494D01*
X120444502Y-70619180D01*
X120480812Y-70499482D01*
X120493072Y-70375000D01*
X120490000Y-70135750D01*
X120331250Y-69977000D01*
X119507000Y-69977000D01*
X119507000Y-69997000D01*
X119253000Y-69997000D01*
X119253000Y-69977000D01*
X118428750Y-69977000D01*
X118270000Y-70135750D01*
X118266928Y-70375000D01*
X118279188Y-70499482D01*
X118315498Y-70619180D01*
X118374463Y-70729494D01*
X118434099Y-70802161D01*
X118414488Y-70826058D01*
X118333577Y-70977433D01*
X118283752Y-71141684D01*
X118266928Y-71312500D01*
X118266928Y-71887500D01*
X118283752Y-72058316D01*
X118333577Y-72222567D01*
X118414488Y-72373942D01*
X118523377Y-72506623D01*
X118620000Y-72585920D01*
X118620001Y-74102668D01*
X118616324Y-74140000D01*
X118630998Y-74288985D01*
X118674454Y-74432246D01*
X118745026Y-74564276D01*
X118793694Y-74623577D01*
X118840000Y-74680001D01*
X118868998Y-74703799D01*
X120806928Y-76641731D01*
X120806928Y-76967500D01*
X120823752Y-77138316D01*
X120873577Y-77302567D01*
X120954488Y-77453942D01*
X121063377Y-77586623D01*
X121196058Y-77695512D01*
X121347433Y-77776423D01*
X121511684Y-77826248D01*
X121682500Y-77843072D01*
X122157500Y-77843072D01*
X122328316Y-77826248D01*
X122492567Y-77776423D01*
X122643942Y-77695512D01*
X122776623Y-77586623D01*
X122885512Y-77453942D01*
X122892964Y-77440000D01*
X125245198Y-77440000D01*
X124070199Y-78615000D01*
X118226181Y-78615000D01*
X118063227Y-78371123D01*
X117843877Y-78151773D01*
X117707286Y-78060505D01*
X117752871Y-77927476D01*
X116840000Y-77014605D01*
X116825858Y-77028748D01*
X116646253Y-76849143D01*
X116660395Y-76835000D01*
X117019605Y-76835000D01*
X117932476Y-77747871D01*
X118190723Y-77659377D01*
X118325597Y-77380024D01*
X118403381Y-77079725D01*
X118421084Y-76770023D01*
X118378027Y-76462816D01*
X118275865Y-76169914D01*
X118190723Y-76010623D01*
X117932476Y-75922129D01*
X117019605Y-76835000D01*
X116660395Y-76835000D01*
X115747524Y-75922129D01*
X115489277Y-76010623D01*
X115354403Y-76289976D01*
X115276619Y-76590275D01*
X115258916Y-76899977D01*
X115267091Y-76958301D01*
X115212870Y-77012522D01*
X115124377Y-76754277D01*
X114845024Y-76619403D01*
X114544725Y-76541619D01*
X114235023Y-76523916D01*
X113927816Y-76566973D01*
X113634914Y-76669135D01*
X113475623Y-76754277D01*
X113387129Y-77012524D01*
X114300000Y-77925395D01*
X114314143Y-77911253D01*
X114493748Y-78090858D01*
X114479605Y-78105000D01*
X114493748Y-78119143D01*
X114314143Y-78298748D01*
X114300000Y-78284605D01*
X113387129Y-79197476D01*
X113447961Y-79375000D01*
X113387129Y-79552524D01*
X114300000Y-80465395D01*
X114314143Y-80451253D01*
X114493748Y-80630858D01*
X114479605Y-80645000D01*
X114493748Y-80659143D01*
X114314143Y-80838748D01*
X114300000Y-80824605D01*
X113387129Y-81737476D01*
X113447961Y-81915000D01*
X113387129Y-82092524D01*
X114300000Y-83005395D01*
X114314143Y-82991253D01*
X114493748Y-83170858D01*
X114479605Y-83185000D01*
X115392476Y-84097871D01*
X115650723Y-84009377D01*
X115785597Y-83730024D01*
X115863381Y-83429725D01*
X115881084Y-83120023D01*
X115872909Y-83061699D01*
X115927130Y-83007478D01*
X116015623Y-83265723D01*
X116294976Y-83400597D01*
X116595275Y-83478381D01*
X116904977Y-83496084D01*
X117212184Y-83453027D01*
X117505086Y-83350865D01*
X117664377Y-83265723D01*
X117752871Y-83007476D01*
X116840000Y-82094605D01*
X116825858Y-82108748D01*
X116646253Y-81929143D01*
X116660395Y-81915000D01*
X117019605Y-81915000D01*
X117932476Y-82827871D01*
X118190723Y-82739377D01*
X118325597Y-82460024D01*
X118403381Y-82159725D01*
X118421084Y-81850023D01*
X118378027Y-81542816D01*
X118275865Y-81249914D01*
X118190723Y-81090623D01*
X117932476Y-81002129D01*
X117019605Y-81915000D01*
X116660395Y-81915000D01*
X116646253Y-81900858D01*
X116825858Y-81721253D01*
X116840000Y-81735395D01*
X117752871Y-80822524D01*
X117707286Y-80689495D01*
X117843877Y-80598227D01*
X118063227Y-80378877D01*
X118226181Y-80135000D01*
X124347678Y-80135000D01*
X124385000Y-80138676D01*
X124422322Y-80135000D01*
X124422333Y-80135000D01*
X124533986Y-80124003D01*
X124677247Y-80080546D01*
X124809276Y-80009974D01*
X124925001Y-79915001D01*
X124948804Y-79885997D01*
X125585000Y-79249802D01*
X125585000Y-79439365D01*
X125639377Y-79712740D01*
X125746043Y-79970254D01*
X125900897Y-80202010D01*
X126097990Y-80399103D01*
X126329746Y-80553957D01*
X126368477Y-80570000D01*
X126329746Y-80586043D01*
X126097990Y-80740897D01*
X125900897Y-80937990D01*
X125746043Y-81169746D01*
X125639377Y-81427260D01*
X125604972Y-81600226D01*
X111248998Y-95956201D01*
X111220000Y-95979999D01*
X111196202Y-96008997D01*
X111196201Y-96008998D01*
X111125026Y-96095724D01*
X111054454Y-96227754D01*
X111010998Y-96371015D01*
X110996324Y-96520000D01*
X103530000Y-96520000D01*
X103530000Y-93757350D01*
X105689400Y-93757350D01*
X105689400Y-94202650D01*
X105776274Y-94639393D01*
X105946682Y-95050796D01*
X106194077Y-95421048D01*
X106508952Y-95735923D01*
X106879204Y-95983318D01*
X107290607Y-96153726D01*
X107727350Y-96240600D01*
X108172650Y-96240600D01*
X108609393Y-96153726D01*
X109020796Y-95983318D01*
X109391048Y-95735923D01*
X109705923Y-95421048D01*
X109953318Y-95050796D01*
X110123726Y-94639393D01*
X110210600Y-94202650D01*
X110210600Y-93757350D01*
X110123726Y-93320607D01*
X109953318Y-92909204D01*
X109705923Y-92538952D01*
X109391048Y-92224077D01*
X109020796Y-91976682D01*
X108609393Y-91806274D01*
X108172650Y-91719400D01*
X107727350Y-91719400D01*
X107290607Y-91806274D01*
X106879204Y-91976682D01*
X106508952Y-92224077D01*
X106194077Y-92538952D01*
X105946682Y-92909204D01*
X105776274Y-93320607D01*
X105689400Y-93757350D01*
X103530000Y-93757350D01*
X103530000Y-84867350D01*
X105689400Y-84867350D01*
X105689400Y-85312650D01*
X105776274Y-85749393D01*
X105946682Y-86160796D01*
X106194077Y-86531048D01*
X106508952Y-86845923D01*
X106879204Y-87093318D01*
X107290607Y-87263726D01*
X107727350Y-87350600D01*
X108172650Y-87350600D01*
X108609393Y-87263726D01*
X109020796Y-87093318D01*
X109391048Y-86845923D01*
X109705923Y-86531048D01*
X109953318Y-86160796D01*
X110123726Y-85749393D01*
X110210600Y-85312650D01*
X110210600Y-84867350D01*
X110123726Y-84430607D01*
X110060298Y-84277476D01*
X113387129Y-84277476D01*
X113475623Y-84535723D01*
X113754976Y-84670597D01*
X114055275Y-84748381D01*
X114364977Y-84766084D01*
X114672184Y-84723027D01*
X114965086Y-84620865D01*
X115124377Y-84535723D01*
X115212871Y-84277476D01*
X114300000Y-83364605D01*
X113387129Y-84277476D01*
X110060298Y-84277476D01*
X109953318Y-84019204D01*
X109705923Y-83648952D01*
X109391048Y-83334077D01*
X109265184Y-83249977D01*
X112718916Y-83249977D01*
X112761973Y-83557184D01*
X112864135Y-83850086D01*
X112949277Y-84009377D01*
X113207524Y-84097871D01*
X114120395Y-83185000D01*
X113207524Y-82272129D01*
X112949277Y-82360623D01*
X112814403Y-82639976D01*
X112736619Y-82940275D01*
X112718916Y-83249977D01*
X109265184Y-83249977D01*
X109020796Y-83086682D01*
X108609393Y-82916274D01*
X108172650Y-82829400D01*
X107727350Y-82829400D01*
X107290607Y-82916274D01*
X106879204Y-83086682D01*
X106508952Y-83334077D01*
X106194077Y-83648952D01*
X105946682Y-84019204D01*
X105776274Y-84430607D01*
X105689400Y-84867350D01*
X103530000Y-84867350D01*
X103530000Y-80709977D01*
X112718916Y-80709977D01*
X112761973Y-81017184D01*
X112864135Y-81310086D01*
X112949277Y-81469377D01*
X113207524Y-81557871D01*
X114120395Y-80645000D01*
X113207524Y-79732129D01*
X112949277Y-79820623D01*
X112814403Y-80099976D01*
X112736619Y-80400275D01*
X112718916Y-80709977D01*
X103530000Y-80709977D01*
X103530000Y-78169977D01*
X112718916Y-78169977D01*
X112761973Y-78477184D01*
X112864135Y-78770086D01*
X112949277Y-78929377D01*
X113207524Y-79017871D01*
X114120395Y-78105000D01*
X113207524Y-77192129D01*
X112949277Y-77280623D01*
X112814403Y-77559976D01*
X112736619Y-77860275D01*
X112718916Y-78169977D01*
X103530000Y-78169977D01*
X103530000Y-74707350D01*
X105689400Y-74707350D01*
X105689400Y-75152650D01*
X105776274Y-75589393D01*
X105946682Y-76000796D01*
X106194077Y-76371048D01*
X106508952Y-76685923D01*
X106879204Y-76933318D01*
X107290607Y-77103726D01*
X107727350Y-77190600D01*
X108172650Y-77190600D01*
X108609393Y-77103726D01*
X109020796Y-76933318D01*
X109391048Y-76685923D01*
X109705923Y-76371048D01*
X109953318Y-76000796D01*
X110060297Y-75742524D01*
X115927129Y-75742524D01*
X116840000Y-76655395D01*
X117752871Y-75742524D01*
X117664377Y-75484277D01*
X117385024Y-75349403D01*
X117084725Y-75271619D01*
X116775023Y-75253916D01*
X116467816Y-75296973D01*
X116174914Y-75399135D01*
X116015623Y-75484277D01*
X115927129Y-75742524D01*
X110060297Y-75742524D01*
X110123726Y-75589393D01*
X110210600Y-75152650D01*
X110210600Y-74707350D01*
X110123726Y-74270607D01*
X109953318Y-73859204D01*
X109705923Y-73488952D01*
X109391048Y-73174077D01*
X109020796Y-72926682D01*
X108609393Y-72756274D01*
X108172650Y-72669400D01*
X107727350Y-72669400D01*
X107290607Y-72756274D01*
X106879204Y-72926682D01*
X106508952Y-73174077D01*
X106194077Y-73488952D01*
X105946682Y-73859204D01*
X105776274Y-74270607D01*
X105689400Y-74707350D01*
X103530000Y-74707350D01*
X103530000Y-69325000D01*
X118266928Y-69325000D01*
X118270000Y-69564250D01*
X118428750Y-69723000D01*
X119253000Y-69723000D01*
X119253000Y-68848750D01*
X119507000Y-68848750D01*
X119507000Y-69723000D01*
X120331250Y-69723000D01*
X120490000Y-69564250D01*
X120493072Y-69325000D01*
X120480812Y-69200518D01*
X120444502Y-69080820D01*
X120385537Y-68970506D01*
X120306185Y-68873815D01*
X120209494Y-68794463D01*
X120099180Y-68735498D01*
X119979482Y-68699188D01*
X119855000Y-68686928D01*
X119665750Y-68690000D01*
X119507000Y-68848750D01*
X119253000Y-68848750D01*
X119094250Y-68690000D01*
X118905000Y-68686928D01*
X118780518Y-68699188D01*
X118660820Y-68735498D01*
X118550506Y-68794463D01*
X118453815Y-68873815D01*
X118374463Y-68970506D01*
X118315498Y-69080820D01*
X118279188Y-69200518D01*
X118266928Y-69325000D01*
X103530000Y-69325000D01*
X103530000Y-67470881D01*
X110508724Y-67470881D01*
X110868912Y-67960548D01*
X111532882Y-68320849D01*
X112254385Y-68544694D01*
X113005695Y-68623480D01*
X113757938Y-68554178D01*
X114482208Y-68339452D01*
X115150670Y-67987555D01*
X115191088Y-67960548D01*
X115551276Y-67470881D01*
X113030000Y-64949605D01*
X110508724Y-67470881D01*
X103530000Y-67470881D01*
X103530000Y-64745695D01*
X109176520Y-64745695D01*
X109245822Y-65497938D01*
X109460548Y-66222208D01*
X109812445Y-66890670D01*
X109839452Y-66931088D01*
X110329119Y-67291276D01*
X112850395Y-64770000D01*
X113209605Y-64770000D01*
X115730881Y-67291276D01*
X116220548Y-66931088D01*
X116580849Y-66267118D01*
X116804694Y-65545615D01*
X116883480Y-64794305D01*
X116879002Y-64745695D01*
X157436520Y-64745695D01*
X157505822Y-65497938D01*
X157720548Y-66222208D01*
X158072445Y-66890670D01*
X158099452Y-66931088D01*
X158589119Y-67291276D01*
X161110395Y-64770000D01*
X161469605Y-64770000D01*
X163990881Y-67291276D01*
X164480548Y-66931088D01*
X164840849Y-66267118D01*
X165064694Y-65545615D01*
X165143480Y-64794305D01*
X165074178Y-64042062D01*
X164859452Y-63317792D01*
X164507555Y-62649330D01*
X164480548Y-62608912D01*
X163990881Y-62248724D01*
X161469605Y-64770000D01*
X161110395Y-64770000D01*
X158589119Y-62248724D01*
X158099452Y-62608912D01*
X157739151Y-63272882D01*
X157515306Y-63994385D01*
X157436520Y-64745695D01*
X116879002Y-64745695D01*
X116814178Y-64042062D01*
X116599452Y-63317792D01*
X116247555Y-62649330D01*
X116220548Y-62608912D01*
X115730881Y-62248724D01*
X113209605Y-64770000D01*
X112850395Y-64770000D01*
X110329119Y-62248724D01*
X109839452Y-62608912D01*
X109479151Y-63272882D01*
X109255306Y-63994385D01*
X109176520Y-64745695D01*
X103530000Y-64745695D01*
X103530000Y-62069119D01*
X110508724Y-62069119D01*
X113030000Y-64590395D01*
X115551276Y-62069119D01*
X158768724Y-62069119D01*
X161290000Y-64590395D01*
X163811276Y-62069119D01*
X163451088Y-61579452D01*
X162787118Y-61219151D01*
X162065615Y-60995306D01*
X161314305Y-60916520D01*
X160562062Y-60985822D01*
X159837792Y-61200548D01*
X159169330Y-61552445D01*
X159128912Y-61579452D01*
X158768724Y-62069119D01*
X115551276Y-62069119D01*
X115191088Y-61579452D01*
X114527118Y-61219151D01*
X113805615Y-60995306D01*
X113054305Y-60916520D01*
X112302062Y-60985822D01*
X111577792Y-61200548D01*
X110909330Y-61552445D01*
X110868912Y-61579452D01*
X110508724Y-62069119D01*
X103530000Y-62069119D01*
X103530000Y-59080000D01*
X166980000Y-59080000D01*
X166980001Y-127610000D01*
%TA.AperFunction,Conductor*%
D20*
G36*
X166980001Y-127610000D02*
G01*
X103530000Y-127610000D01*
X103530000Y-125890881D01*
X110508724Y-125890881D01*
X110868912Y-126380548D01*
X111532882Y-126740849D01*
X112254385Y-126964694D01*
X113005695Y-127043480D01*
X113757938Y-126974178D01*
X114482208Y-126759452D01*
X115150670Y-126407555D01*
X115191088Y-126380548D01*
X115551276Y-125890881D01*
X158768724Y-125890881D01*
X159128912Y-126380548D01*
X159792882Y-126740849D01*
X160514385Y-126964694D01*
X161265695Y-127043480D01*
X162017938Y-126974178D01*
X162742208Y-126759452D01*
X163410670Y-126407555D01*
X163451088Y-126380548D01*
X163811276Y-125890881D01*
X161290000Y-123369605D01*
X158768724Y-125890881D01*
X115551276Y-125890881D01*
X113030000Y-123369605D01*
X110508724Y-125890881D01*
X103530000Y-125890881D01*
X103530000Y-123165695D01*
X109176520Y-123165695D01*
X109245822Y-123917938D01*
X109460548Y-124642208D01*
X109812445Y-125310670D01*
X109839452Y-125351088D01*
X110329119Y-125711276D01*
X112850395Y-123190000D01*
X113209605Y-123190000D01*
X115730881Y-125711276D01*
X116220548Y-125351088D01*
X116580849Y-124687118D01*
X116804694Y-123965615D01*
X116883480Y-123214305D01*
X116814178Y-122462062D01*
X116644578Y-121890000D01*
X135221928Y-121890000D01*
X135221928Y-124490000D01*
X135234188Y-124614482D01*
X135270498Y-124734180D01*
X135329463Y-124844494D01*
X135408815Y-124941185D01*
X135505506Y-125020537D01*
X135615820Y-125079502D01*
X135735518Y-125115812D01*
X135860000Y-125128072D01*
X138460000Y-125128072D01*
X138584482Y-125115812D01*
X138704180Y-125079502D01*
X138814494Y-125020537D01*
X138911185Y-124941185D01*
X138990537Y-124844494D01*
X139049502Y-124734180D01*
X139085812Y-124614482D01*
X139093224Y-124539224D01*
X140990381Y-124539224D01*
X141122317Y-124834312D01*
X141463045Y-125005159D01*
X141830557Y-125106250D01*
X142210729Y-125133701D01*
X142588951Y-125086457D01*
X142950690Y-124966333D01*
X143197683Y-124834312D01*
X143329619Y-124539224D01*
X142160000Y-123369605D01*
X140990381Y-124539224D01*
X139093224Y-124539224D01*
X139098072Y-124490000D01*
X139098072Y-123240729D01*
X140216299Y-123240729D01*
X140263543Y-123618951D01*
X140383667Y-123980690D01*
X140515688Y-124227683D01*
X140810776Y-124359619D01*
X141980395Y-123190000D01*
X142339605Y-123190000D01*
X143509224Y-124359619D01*
X143804312Y-124227683D01*
X143975159Y-123886955D01*
X144076250Y-123519443D01*
X144101793Y-123165695D01*
X157436520Y-123165695D01*
X157505822Y-123917938D01*
X157720548Y-124642208D01*
X158072445Y-125310670D01*
X158099452Y-125351088D01*
X158589119Y-125711276D01*
X161110395Y-123190000D01*
X161469605Y-123190000D01*
X163990881Y-125711276D01*
X164480548Y-125351088D01*
X164840849Y-124687118D01*
X165064694Y-123965615D01*
X165143480Y-123214305D01*
X165074178Y-122462062D01*
X164859452Y-121737792D01*
X164507555Y-121069330D01*
X164480548Y-121028912D01*
X163990881Y-120668724D01*
X161469605Y-123190000D01*
X161110395Y-123190000D01*
X158589119Y-120668724D01*
X158099452Y-121028912D01*
X157739151Y-121692882D01*
X157515306Y-122414385D01*
X157436520Y-123165695D01*
X144101793Y-123165695D01*
X144103701Y-123139271D01*
X144056457Y-122761049D01*
X143936333Y-122399310D01*
X143804312Y-122152317D01*
X143509224Y-122020381D01*
X142339605Y-123190000D01*
X141980395Y-123190000D01*
X140810776Y-122020381D01*
X140515688Y-122152317D01*
X140344841Y-122493045D01*
X140243750Y-122860557D01*
X140216299Y-123240729D01*
X139098072Y-123240729D01*
X139098072Y-121890000D01*
X139093225Y-121840776D01*
X140990381Y-121840776D01*
X142160000Y-123010395D01*
X143329619Y-121840776D01*
X143197683Y-121545688D01*
X142856955Y-121374841D01*
X142489443Y-121273750D01*
X142109271Y-121246299D01*
X141731049Y-121293543D01*
X141369310Y-121413667D01*
X141122317Y-121545688D01*
X140990381Y-121840776D01*
X139093225Y-121840776D01*
X139085812Y-121765518D01*
X139049502Y-121645820D01*
X138990537Y-121535506D01*
X138911185Y-121438815D01*
X138814494Y-121359463D01*
X138704180Y-121300498D01*
X138584482Y-121264188D01*
X138460000Y-121251928D01*
X135860000Y-121251928D01*
X135735518Y-121264188D01*
X135615820Y-121300498D01*
X135505506Y-121359463D01*
X135408815Y-121438815D01*
X135329463Y-121535506D01*
X135270498Y-121645820D01*
X135234188Y-121765518D01*
X135221928Y-121890000D01*
X116644578Y-121890000D01*
X116599452Y-121737792D01*
X116247555Y-121069330D01*
X116220548Y-121028912D01*
X115730881Y-120668724D01*
X113209605Y-123190000D01*
X112850395Y-123190000D01*
X110329119Y-120668724D01*
X109839452Y-121028912D01*
X109479151Y-121692882D01*
X109255306Y-122414385D01*
X109176520Y-123165695D01*
X103530000Y-123165695D01*
X103530000Y-120489119D01*
X110508724Y-120489119D01*
X113030000Y-123010395D01*
X115551276Y-120489119D01*
X158768724Y-120489119D01*
X161290000Y-123010395D01*
X163811276Y-120489119D01*
X163451088Y-119999452D01*
X162787118Y-119639151D01*
X162065615Y-119415306D01*
X161314305Y-119336520D01*
X160562062Y-119405822D01*
X159837792Y-119620548D01*
X159169330Y-119972445D01*
X159128912Y-119999452D01*
X158768724Y-120489119D01*
X115551276Y-120489119D01*
X115191088Y-119999452D01*
X114527118Y-119639151D01*
X113805615Y-119415306D01*
X113054305Y-119336520D01*
X112302062Y-119405822D01*
X111577792Y-119620548D01*
X110909330Y-119972445D01*
X110868912Y-119999452D01*
X110508724Y-120489119D01*
X103530000Y-120489119D01*
X103530000Y-103917350D01*
X105689400Y-103917350D01*
X105689400Y-104362650D01*
X105776274Y-104799393D01*
X105946682Y-105210796D01*
X106194077Y-105581048D01*
X106508952Y-105895923D01*
X106879204Y-106143318D01*
X107290607Y-106313726D01*
X107727350Y-106400600D01*
X108172650Y-106400600D01*
X108609393Y-106313726D01*
X109020796Y-106143318D01*
X109391048Y-105895923D01*
X109705923Y-105581048D01*
X109953318Y-105210796D01*
X110123726Y-104799393D01*
X110210600Y-104362650D01*
X110210600Y-103917350D01*
X110123726Y-103480607D01*
X109953318Y-103069204D01*
X109705923Y-102698952D01*
X109391048Y-102384077D01*
X109020796Y-102136682D01*
X108609393Y-101966274D01*
X108172650Y-101879400D01*
X107727350Y-101879400D01*
X107290607Y-101966274D01*
X106879204Y-102136682D01*
X106508952Y-102384077D01*
X106194077Y-102698952D01*
X105946682Y-103069204D01*
X105776274Y-103480607D01*
X105689400Y-103917350D01*
X103530000Y-103917350D01*
X103530000Y-96520000D01*
X110996324Y-96520000D01*
X111000001Y-96557332D01*
X111000000Y-99022677D01*
X110996324Y-99060000D01*
X111000000Y-99097322D01*
X111000000Y-99097332D01*
X111010997Y-99208985D01*
X111054454Y-99352246D01*
X111125026Y-99484276D01*
X111152273Y-99517476D01*
X111219999Y-99600001D01*
X111249002Y-99623803D01*
X111831200Y-100206002D01*
X111854999Y-100235001D01*
X111883997Y-100258799D01*
X111970724Y-100329974D01*
X112102753Y-100400546D01*
X112246014Y-100444003D01*
X112395000Y-100458677D01*
X112432333Y-100455000D01*
X112913819Y-100455000D01*
X113076773Y-100698877D01*
X113296123Y-100918227D01*
X113366124Y-100965000D01*
X113296123Y-101011773D01*
X113076773Y-101231123D01*
X112904430Y-101489052D01*
X112785718Y-101775648D01*
X112725200Y-102079896D01*
X112725200Y-102390104D01*
X112785718Y-102694352D01*
X112904430Y-102980948D01*
X113076773Y-103238877D01*
X113296123Y-103458227D01*
X113554052Y-103630570D01*
X113840648Y-103749282D01*
X114144896Y-103809800D01*
X114455104Y-103809800D01*
X114759352Y-103749282D01*
X115045948Y-103630570D01*
X115303877Y-103458227D01*
X115523227Y-103238877D01*
X115695570Y-102980948D01*
X115814282Y-102694352D01*
X115874800Y-102390104D01*
X115874800Y-102214070D01*
X116094052Y-102360570D01*
X116380648Y-102479282D01*
X116684896Y-102539800D01*
X116995104Y-102539800D01*
X117299352Y-102479282D01*
X117585948Y-102360570D01*
X117843877Y-102188227D01*
X118063227Y-101968877D01*
X118235570Y-101710948D01*
X118354282Y-101424352D01*
X118414800Y-101120104D01*
X118414800Y-100809896D01*
X118354282Y-100505648D01*
X118235570Y-100219052D01*
X118063227Y-99961123D01*
X117843877Y-99741773D01*
X117707286Y-99650505D01*
X117752871Y-99517476D01*
X116840000Y-98604605D01*
X116825858Y-98618748D01*
X116646253Y-98439143D01*
X116660395Y-98425000D01*
X117019605Y-98425000D01*
X117932476Y-99337871D01*
X118190723Y-99249377D01*
X118325597Y-98970024D01*
X118403381Y-98669725D01*
X118421084Y-98360023D01*
X118378027Y-98052816D01*
X118275865Y-97759914D01*
X118190723Y-97600623D01*
X117932476Y-97512129D01*
X117019605Y-98425000D01*
X116660395Y-98425000D01*
X116646253Y-98410858D01*
X116825858Y-98231253D01*
X116840000Y-98245395D01*
X117752871Y-97332524D01*
X117692039Y-97155000D01*
X117752871Y-96977476D01*
X116840000Y-96064605D01*
X116825858Y-96078748D01*
X116646253Y-95899143D01*
X116660395Y-95885000D01*
X117019605Y-95885000D01*
X117932476Y-96797871D01*
X118190723Y-96709377D01*
X118325597Y-96430024D01*
X118403381Y-96129725D01*
X118421084Y-95820023D01*
X118378027Y-95512816D01*
X118275865Y-95219914D01*
X118190723Y-95060623D01*
X117932476Y-94972129D01*
X117019605Y-95885000D01*
X116660395Y-95885000D01*
X115747524Y-94972129D01*
X115489277Y-95060623D01*
X115354403Y-95339976D01*
X115276619Y-95640275D01*
X115258916Y-95949977D01*
X115267091Y-96008301D01*
X115212870Y-96062522D01*
X115124377Y-95804277D01*
X114845024Y-95669403D01*
X114544725Y-95591619D01*
X114235023Y-95573916D01*
X113927816Y-95616973D01*
X113636069Y-95718732D01*
X114562277Y-94792524D01*
X115927129Y-94792524D01*
X116840000Y-95705395D01*
X117752871Y-94792524D01*
X117664377Y-94534277D01*
X117385024Y-94399403D01*
X117084725Y-94321619D01*
X116775023Y-94303916D01*
X116467816Y-94346973D01*
X116174914Y-94449135D01*
X116015623Y-94534277D01*
X115927129Y-94792524D01*
X114562277Y-94792524D01*
X126288443Y-83066359D01*
X126329746Y-83093957D01*
X126368477Y-83110000D01*
X126329746Y-83126043D01*
X126097990Y-83280897D01*
X125900897Y-83477990D01*
X125746043Y-83709746D01*
X125639377Y-83967260D01*
X125585000Y-84240635D01*
X125585000Y-84519365D01*
X125639377Y-84792740D01*
X125746043Y-85050254D01*
X125900897Y-85282010D01*
X126097990Y-85479103D01*
X126329746Y-85633957D01*
X126368477Y-85650000D01*
X126329746Y-85666043D01*
X126097990Y-85820897D01*
X125900897Y-86017990D01*
X125746043Y-86249746D01*
X125639377Y-86507260D01*
X125585000Y-86780635D01*
X125585000Y-87059365D01*
X125639377Y-87332740D01*
X125746043Y-87590254D01*
X125900897Y-87822010D01*
X126097990Y-88019103D01*
X126329746Y-88173957D01*
X126368477Y-88190000D01*
X126329746Y-88206043D01*
X126097990Y-88360897D01*
X125900897Y-88557990D01*
X125746043Y-88789746D01*
X125639377Y-89047260D01*
X125585000Y-89320635D01*
X125585000Y-89599365D01*
X125639377Y-89872740D01*
X125746043Y-90130254D01*
X125900897Y-90362010D01*
X126097990Y-90559103D01*
X126329746Y-90713957D01*
X126368477Y-90730000D01*
X126329746Y-90746043D01*
X126097990Y-90900897D01*
X125900897Y-91097990D01*
X125746043Y-91329746D01*
X125639377Y-91587260D01*
X125585000Y-91860635D01*
X125585000Y-92139365D01*
X125639377Y-92412740D01*
X125746043Y-92670254D01*
X125900897Y-92902010D01*
X126097990Y-93099103D01*
X126329746Y-93253957D01*
X126368477Y-93270000D01*
X126329746Y-93286043D01*
X126097990Y-93440897D01*
X125900897Y-93637990D01*
X125746043Y-93869746D01*
X125639377Y-94127260D01*
X125585000Y-94400635D01*
X125585000Y-94679365D01*
X125639377Y-94952740D01*
X125746043Y-95210254D01*
X125900897Y-95442010D01*
X126097990Y-95639103D01*
X126329746Y-95793957D01*
X126368477Y-95810000D01*
X126329746Y-95826043D01*
X126097990Y-95980897D01*
X125900897Y-96177990D01*
X125746043Y-96409746D01*
X125639377Y-96667260D01*
X125585000Y-96940635D01*
X125585000Y-97219365D01*
X125639377Y-97492740D01*
X125746043Y-97750254D01*
X125900897Y-97982010D01*
X126097990Y-98179103D01*
X126329746Y-98333957D01*
X126368477Y-98350000D01*
X126329746Y-98366043D01*
X126097990Y-98520897D01*
X125900897Y-98717990D01*
X125746043Y-98949746D01*
X125639377Y-99207260D01*
X125585000Y-99480635D01*
X125585000Y-99759365D01*
X125639377Y-100032740D01*
X125746043Y-100290254D01*
X125900897Y-100522010D01*
X126097990Y-100719103D01*
X126329746Y-100873957D01*
X126368477Y-100890000D01*
X126329746Y-100906043D01*
X126097990Y-101060897D01*
X125900897Y-101257990D01*
X125746043Y-101489746D01*
X125639377Y-101747260D01*
X125585000Y-102020635D01*
X125585000Y-102299365D01*
X125639377Y-102572740D01*
X125746043Y-102830254D01*
X125900897Y-103062010D01*
X126097990Y-103259103D01*
X126329746Y-103413957D01*
X126368477Y-103430000D01*
X126329746Y-103446043D01*
X126097990Y-103600897D01*
X125900897Y-103797990D01*
X125746043Y-104029746D01*
X125639377Y-104287260D01*
X125585000Y-104560635D01*
X125585000Y-104839365D01*
X125639377Y-105112740D01*
X125746043Y-105370254D01*
X125900897Y-105602010D01*
X126097990Y-105799103D01*
X126329746Y-105953957D01*
X126368477Y-105970000D01*
X126329746Y-105986043D01*
X126097990Y-106140897D01*
X125900897Y-106337990D01*
X125746043Y-106569746D01*
X125639377Y-106827260D01*
X125585000Y-107100635D01*
X125585000Y-107379365D01*
X125639377Y-107652740D01*
X125746043Y-107910254D01*
X125900897Y-108142010D01*
X126097990Y-108339103D01*
X126329746Y-108493957D01*
X126368477Y-108510000D01*
X126329746Y-108526043D01*
X126097990Y-108680897D01*
X125900897Y-108877990D01*
X125746043Y-109109746D01*
X125639377Y-109367260D01*
X125585000Y-109640635D01*
X125585000Y-109919365D01*
X125639377Y-110192740D01*
X125746043Y-110450254D01*
X125900897Y-110682010D01*
X126097990Y-110879103D01*
X126329746Y-111033957D01*
X126368477Y-111050000D01*
X126329746Y-111066043D01*
X126097990Y-111220897D01*
X125900897Y-111417990D01*
X125746043Y-111649746D01*
X125639377Y-111907260D01*
X125585000Y-112180635D01*
X125585000Y-112459365D01*
X125639377Y-112732740D01*
X125746043Y-112990254D01*
X125900897Y-113222010D01*
X126097990Y-113419103D01*
X126329746Y-113573957D01*
X126587260Y-113680623D01*
X126860635Y-113735000D01*
X127139365Y-113735000D01*
X127412740Y-113680623D01*
X127670254Y-113573957D01*
X127902010Y-113419103D01*
X128099103Y-113222010D01*
X128253957Y-112990254D01*
X128360623Y-112732740D01*
X128415000Y-112459365D01*
X128415000Y-112180635D01*
X128360623Y-111907260D01*
X128253957Y-111649746D01*
X128099103Y-111417990D01*
X127902010Y-111220897D01*
X127670254Y-111066043D01*
X127631523Y-111050000D01*
X127670254Y-111033957D01*
X127902010Y-110879103D01*
X128099103Y-110682010D01*
X128253957Y-110450254D01*
X128360623Y-110192740D01*
X128415000Y-109919365D01*
X128415000Y-109640635D01*
X128360623Y-109367260D01*
X128253957Y-109109746D01*
X128099103Y-108877990D01*
X127902010Y-108680897D01*
X127670254Y-108526043D01*
X127631523Y-108510000D01*
X127670254Y-108493957D01*
X127902010Y-108339103D01*
X128099103Y-108142010D01*
X128253957Y-107910254D01*
X128360623Y-107652740D01*
X128415000Y-107379365D01*
X128415000Y-107100635D01*
X128360623Y-106827260D01*
X128253957Y-106569746D01*
X128099103Y-106337990D01*
X127902010Y-106140897D01*
X127670254Y-105986043D01*
X127631523Y-105970000D01*
X127670254Y-105953957D01*
X127902010Y-105799103D01*
X128099103Y-105602010D01*
X128253957Y-105370254D01*
X128360623Y-105112740D01*
X128415000Y-104839365D01*
X128415000Y-104560635D01*
X128360623Y-104287260D01*
X128253957Y-104029746D01*
X128099103Y-103797990D01*
X127902010Y-103600897D01*
X127670254Y-103446043D01*
X127631523Y-103430000D01*
X127670254Y-103413957D01*
X127902010Y-103259103D01*
X128099103Y-103062010D01*
X128253957Y-102830254D01*
X128360623Y-102572740D01*
X128415000Y-102299365D01*
X128415000Y-102020635D01*
X128360623Y-101747260D01*
X128253957Y-101489746D01*
X128099103Y-101257990D01*
X127902010Y-101060897D01*
X127670254Y-100906043D01*
X127631523Y-100890000D01*
X127670254Y-100873957D01*
X127902010Y-100719103D01*
X128099103Y-100522010D01*
X128253957Y-100290254D01*
X128360623Y-100032740D01*
X128415000Y-99759365D01*
X128415000Y-99480635D01*
X128360623Y-99207260D01*
X128253957Y-98949746D01*
X128099103Y-98717990D01*
X127902010Y-98520897D01*
X127670254Y-98366043D01*
X127631523Y-98350000D01*
X127670254Y-98333957D01*
X127902010Y-98179103D01*
X128099103Y-97982010D01*
X128253957Y-97750254D01*
X128360623Y-97492740D01*
X128415000Y-97219365D01*
X128415000Y-96940635D01*
X128360623Y-96667260D01*
X128253957Y-96409746D01*
X128099103Y-96177990D01*
X127902010Y-95980897D01*
X127670254Y-95826043D01*
X127631523Y-95810000D01*
X127670254Y-95793957D01*
X127902010Y-95639103D01*
X128099103Y-95442010D01*
X128253957Y-95210254D01*
X128360623Y-94952740D01*
X128415000Y-94679365D01*
X128415000Y-94400635D01*
X128360623Y-94127260D01*
X128253957Y-93869746D01*
X128099103Y-93637990D01*
X127902010Y-93440897D01*
X127670254Y-93286043D01*
X127631523Y-93270000D01*
X127670254Y-93253957D01*
X127902010Y-93099103D01*
X128099103Y-92902010D01*
X128253957Y-92670254D01*
X128360623Y-92412740D01*
X128415000Y-92139365D01*
X128415000Y-91860635D01*
X128360623Y-91587260D01*
X128253957Y-91329746D01*
X128099103Y-91097990D01*
X127902010Y-90900897D01*
X127670254Y-90746043D01*
X127631523Y-90730000D01*
X127670254Y-90713957D01*
X127902010Y-90559103D01*
X128099103Y-90362010D01*
X128253957Y-90130254D01*
X128360623Y-89872740D01*
X128415000Y-89599365D01*
X128415000Y-89320635D01*
X128360623Y-89047260D01*
X128253957Y-88789746D01*
X128099103Y-88557990D01*
X127902010Y-88360897D01*
X127670254Y-88206043D01*
X127631523Y-88190000D01*
X127670254Y-88173957D01*
X127902010Y-88019103D01*
X128099103Y-87822010D01*
X128253957Y-87590254D01*
X128360623Y-87332740D01*
X128415000Y-87059365D01*
X128415000Y-86780635D01*
X128360623Y-86507260D01*
X128253957Y-86249746D01*
X128099103Y-86017990D01*
X127902010Y-85820897D01*
X127670254Y-85666043D01*
X127631523Y-85650000D01*
X127670254Y-85633957D01*
X127902010Y-85479103D01*
X128099103Y-85282010D01*
X128253957Y-85050254D01*
X128360623Y-84792740D01*
X128415000Y-84519365D01*
X128415000Y-84240635D01*
X128360623Y-83967260D01*
X128253957Y-83709746D01*
X128099103Y-83477990D01*
X127902010Y-83280897D01*
X127670254Y-83126043D01*
X127631523Y-83110000D01*
X127670254Y-83093957D01*
X127902010Y-82939103D01*
X128099103Y-82742010D01*
X128193991Y-82600000D01*
X134502678Y-82600000D01*
X134540000Y-82603676D01*
X134577322Y-82600000D01*
X134577333Y-82600000D01*
X134688986Y-82589003D01*
X134832247Y-82545546D01*
X134964276Y-82474974D01*
X135080001Y-82380001D01*
X135103804Y-82350997D01*
X138341730Y-79113072D01*
X138667500Y-79113072D01*
X138838316Y-79096248D01*
X139002567Y-79046423D01*
X139153942Y-78965512D01*
X139286623Y-78856623D01*
X139395512Y-78723942D01*
X139476423Y-78572567D01*
X139526248Y-78408316D01*
X139543072Y-78237500D01*
X139543072Y-78230000D01*
X142537036Y-78230000D01*
X142544488Y-78243942D01*
X142653377Y-78376623D01*
X142786058Y-78485512D01*
X142937433Y-78566423D01*
X143101684Y-78616248D01*
X143272500Y-78633072D01*
X143747500Y-78633072D01*
X143918316Y-78616248D01*
X144082567Y-78566423D01*
X144233942Y-78485512D01*
X144366623Y-78376623D01*
X144475512Y-78243942D01*
X144556423Y-78092567D01*
X144606248Y-77928316D01*
X144623072Y-77757500D01*
X144623072Y-77182500D01*
X144606248Y-77011684D01*
X144556423Y-76847433D01*
X144475512Y-76696058D01*
X144455901Y-76672161D01*
X144515537Y-76599494D01*
X144574502Y-76489180D01*
X144610812Y-76369482D01*
X144623072Y-76245000D01*
X144620000Y-76005750D01*
X144461250Y-75847000D01*
X143637000Y-75847000D01*
X143637000Y-75867000D01*
X143383000Y-75867000D01*
X143383000Y-75847000D01*
X142558750Y-75847000D01*
X142400000Y-76005750D01*
X142396928Y-76245000D01*
X142409188Y-76369482D01*
X142445498Y-76489180D01*
X142504463Y-76599494D01*
X142564099Y-76672161D01*
X142544488Y-76696058D01*
X142537036Y-76710000D01*
X139510570Y-76710000D01*
X139526248Y-76658316D01*
X139543072Y-76487500D01*
X139543072Y-75912500D01*
X139526248Y-75741684D01*
X139476423Y-75577433D01*
X139395512Y-75426058D01*
X139286623Y-75293377D01*
X139166751Y-75195000D01*
X142396928Y-75195000D01*
X142400000Y-75434250D01*
X142558750Y-75593000D01*
X143383000Y-75593000D01*
X143383000Y-74718750D01*
X143637000Y-74718750D01*
X143637000Y-75593000D01*
X144461250Y-75593000D01*
X144620000Y-75434250D01*
X144623072Y-75195000D01*
X144610812Y-75070518D01*
X144574502Y-74950820D01*
X144515537Y-74840506D01*
X144436185Y-74743815D01*
X144339494Y-74664463D01*
X144229180Y-74605498D01*
X144109482Y-74569188D01*
X143985000Y-74556928D01*
X143795750Y-74560000D01*
X143637000Y-74718750D01*
X143383000Y-74718750D01*
X143224250Y-74560000D01*
X143035000Y-74556928D01*
X142910518Y-74569188D01*
X142790820Y-74605498D01*
X142680506Y-74664463D01*
X142583815Y-74743815D01*
X142504463Y-74840506D01*
X142445498Y-74950820D01*
X142409188Y-75070518D01*
X142396928Y-75195000D01*
X139166751Y-75195000D01*
X139153942Y-75184488D01*
X139002567Y-75103577D01*
X138838316Y-75053752D01*
X138667500Y-75036928D01*
X138192500Y-75036928D01*
X138021684Y-75053752D01*
X137857433Y-75103577D01*
X137706058Y-75184488D01*
X137573377Y-75293377D01*
X137464488Y-75426058D01*
X137457036Y-75440000D01*
X134463072Y-75440000D01*
X134463072Y-75432500D01*
X134446248Y-75261684D01*
X134396423Y-75097433D01*
X134315512Y-74946058D01*
X134206623Y-74813377D01*
X134110000Y-74734080D01*
X134110000Y-72987322D01*
X134113676Y-72949999D01*
X134110000Y-72912676D01*
X134110000Y-72912667D01*
X134099003Y-72801014D01*
X134055546Y-72657753D01*
X133984974Y-72525723D01*
X133913799Y-72438997D01*
X133890001Y-72409999D01*
X133861003Y-72386201D01*
X130475437Y-69000635D01*
X150985000Y-69000635D01*
X150985000Y-69279365D01*
X151039377Y-69552740D01*
X151146043Y-69810254D01*
X151300897Y-70042010D01*
X151497990Y-70239103D01*
X151729746Y-70393957D01*
X151768477Y-70410000D01*
X151729746Y-70426043D01*
X151497990Y-70580897D01*
X151300897Y-70777990D01*
X151146043Y-71009746D01*
X151039377Y-71267260D01*
X150985000Y-71540635D01*
X150985000Y-71819365D01*
X151039377Y-72092740D01*
X151146043Y-72350254D01*
X151300897Y-72582010D01*
X151497990Y-72779103D01*
X151729746Y-72933957D01*
X151768477Y-72950000D01*
X151729746Y-72966043D01*
X151497990Y-73120897D01*
X151300897Y-73317990D01*
X151146043Y-73549746D01*
X151039377Y-73807260D01*
X150985000Y-74080635D01*
X150985000Y-74359365D01*
X151039377Y-74632740D01*
X151146043Y-74890254D01*
X151300897Y-75122010D01*
X151497990Y-75319103D01*
X151729746Y-75473957D01*
X151768477Y-75490000D01*
X151729746Y-75506043D01*
X151497990Y-75660897D01*
X151300897Y-75857990D01*
X151146043Y-76089746D01*
X151039377Y-76347260D01*
X150985000Y-76620635D01*
X150985000Y-76899365D01*
X151039377Y-77172740D01*
X151146043Y-77430254D01*
X151300897Y-77662010D01*
X151497990Y-77859103D01*
X151729746Y-78013957D01*
X151768477Y-78030000D01*
X151729746Y-78046043D01*
X151497990Y-78200897D01*
X151300897Y-78397990D01*
X151146043Y-78629746D01*
X151039377Y-78887260D01*
X150985000Y-79160635D01*
X150985000Y-79439365D01*
X151039377Y-79712740D01*
X151146043Y-79970254D01*
X151300897Y-80202010D01*
X151497990Y-80399103D01*
X151729746Y-80553957D01*
X151768477Y-80570000D01*
X151729746Y-80586043D01*
X151497990Y-80740897D01*
X151300897Y-80937990D01*
X151146043Y-81169746D01*
X151039377Y-81427260D01*
X150985000Y-81700635D01*
X150985000Y-81979365D01*
X151039377Y-82252740D01*
X151146043Y-82510254D01*
X151300897Y-82742010D01*
X151497990Y-82939103D01*
X151729746Y-83093957D01*
X151768477Y-83110000D01*
X151729746Y-83126043D01*
X151497990Y-83280897D01*
X151300897Y-83477990D01*
X151146043Y-83709746D01*
X151039377Y-83967260D01*
X150985000Y-84240635D01*
X150985000Y-84519365D01*
X151039377Y-84792740D01*
X151146043Y-85050254D01*
X151300897Y-85282010D01*
X151497990Y-85479103D01*
X151729746Y-85633957D01*
X151768477Y-85650000D01*
X151729746Y-85666043D01*
X151497990Y-85820897D01*
X151300897Y-86017990D01*
X151146043Y-86249746D01*
X151039377Y-86507260D01*
X150985000Y-86780635D01*
X150985000Y-87059365D01*
X151039377Y-87332740D01*
X151146043Y-87590254D01*
X151300897Y-87822010D01*
X151497990Y-88019103D01*
X151729746Y-88173957D01*
X151768477Y-88190000D01*
X151729746Y-88206043D01*
X151497990Y-88360897D01*
X151300897Y-88557990D01*
X151146043Y-88789746D01*
X151039377Y-89047260D01*
X150985000Y-89320635D01*
X150985000Y-89599365D01*
X151039377Y-89872740D01*
X151146043Y-90130254D01*
X151300897Y-90362010D01*
X151497990Y-90559103D01*
X151729746Y-90713957D01*
X151768477Y-90730000D01*
X151729746Y-90746043D01*
X151497990Y-90900897D01*
X151300897Y-91097990D01*
X151146043Y-91329746D01*
X151039377Y-91587260D01*
X150985000Y-91860635D01*
X150985000Y-92139365D01*
X151039377Y-92412740D01*
X151146043Y-92670254D01*
X151300897Y-92902010D01*
X151497990Y-93099103D01*
X151729746Y-93253957D01*
X151768477Y-93270000D01*
X151729746Y-93286043D01*
X151497990Y-93440897D01*
X151300897Y-93637990D01*
X151146043Y-93869746D01*
X151039377Y-94127260D01*
X150985000Y-94400635D01*
X150985000Y-94679365D01*
X151039377Y-94952740D01*
X151146043Y-95210254D01*
X151300897Y-95442010D01*
X151497990Y-95639103D01*
X151729746Y-95793957D01*
X151768477Y-95810000D01*
X151729746Y-95826043D01*
X151497990Y-95980897D01*
X151300897Y-96177990D01*
X151146043Y-96409746D01*
X151039377Y-96667260D01*
X150985000Y-96940635D01*
X150985000Y-97219365D01*
X151039377Y-97492740D01*
X151146043Y-97750254D01*
X151300897Y-97982010D01*
X151497990Y-98179103D01*
X151729746Y-98333957D01*
X151768477Y-98350000D01*
X151729746Y-98366043D01*
X151497990Y-98520897D01*
X151300897Y-98717990D01*
X151146043Y-98949746D01*
X151039377Y-99207260D01*
X150985000Y-99480635D01*
X150985000Y-99759365D01*
X151039377Y-100032740D01*
X151146043Y-100290254D01*
X151300897Y-100522010D01*
X151497990Y-100719103D01*
X151729746Y-100873957D01*
X151768477Y-100890000D01*
X151729746Y-100906043D01*
X151497990Y-101060897D01*
X151300897Y-101257990D01*
X151146043Y-101489746D01*
X151039377Y-101747260D01*
X150985000Y-102020635D01*
X150985000Y-102299365D01*
X151039377Y-102572740D01*
X151146043Y-102830254D01*
X151300897Y-103062010D01*
X151497990Y-103259103D01*
X151729746Y-103413957D01*
X151768477Y-103430000D01*
X151729746Y-103446043D01*
X151497990Y-103600897D01*
X151300897Y-103797990D01*
X151146043Y-104029746D01*
X151039377Y-104287260D01*
X150985000Y-104560635D01*
X150985000Y-104839365D01*
X151039377Y-105112740D01*
X151146043Y-105370254D01*
X151300897Y-105602010D01*
X151497990Y-105799103D01*
X151729746Y-105953957D01*
X151768477Y-105970000D01*
X151729746Y-105986043D01*
X151497990Y-106140897D01*
X151300897Y-106337990D01*
X151146043Y-106569746D01*
X151039377Y-106827260D01*
X150985000Y-107100635D01*
X150985000Y-107379365D01*
X151039377Y-107652740D01*
X151146043Y-107910254D01*
X151300897Y-108142010D01*
X151497990Y-108339103D01*
X151729746Y-108493957D01*
X151768477Y-108510000D01*
X151729746Y-108526043D01*
X151497990Y-108680897D01*
X151300897Y-108877990D01*
X151146043Y-109109746D01*
X151039377Y-109367260D01*
X150985000Y-109640635D01*
X150985000Y-109919365D01*
X151039377Y-110192740D01*
X151146043Y-110450254D01*
X151300897Y-110682010D01*
X151497990Y-110879103D01*
X151729746Y-111033957D01*
X151768477Y-111050000D01*
X151729746Y-111066043D01*
X151497990Y-111220897D01*
X151300897Y-111417990D01*
X151146043Y-111649746D01*
X151039377Y-111907260D01*
X150985000Y-112180635D01*
X150985000Y-112459365D01*
X151039377Y-112732740D01*
X151146043Y-112990254D01*
X151300897Y-113222010D01*
X151497990Y-113419103D01*
X151729746Y-113573957D01*
X151987260Y-113680623D01*
X152260635Y-113735000D01*
X152539365Y-113735000D01*
X152812740Y-113680623D01*
X153070254Y-113573957D01*
X153302010Y-113419103D01*
X153499103Y-113222010D01*
X153653957Y-112990254D01*
X153760623Y-112732740D01*
X153815000Y-112459365D01*
X153815000Y-112180635D01*
X153760623Y-111907260D01*
X153653957Y-111649746D01*
X153499103Y-111417990D01*
X153302010Y-111220897D01*
X153070254Y-111066043D01*
X153031523Y-111050000D01*
X153070254Y-111033957D01*
X153302010Y-110879103D01*
X153499103Y-110682010D01*
X153653957Y-110450254D01*
X153760623Y-110192740D01*
X153815000Y-109919365D01*
X153815000Y-109640635D01*
X153760623Y-109367260D01*
X153653957Y-109109746D01*
X153499103Y-108877990D01*
X153302010Y-108680897D01*
X153070254Y-108526043D01*
X153031523Y-108510000D01*
X153070254Y-108493957D01*
X153302010Y-108339103D01*
X153499103Y-108142010D01*
X153653957Y-107910254D01*
X153760623Y-107652740D01*
X153815000Y-107379365D01*
X153815000Y-107100635D01*
X153760623Y-106827260D01*
X153653957Y-106569746D01*
X153499103Y-106337990D01*
X153302010Y-106140897D01*
X153070254Y-105986043D01*
X153031523Y-105970000D01*
X153070254Y-105953957D01*
X153302010Y-105799103D01*
X153499103Y-105602010D01*
X153653957Y-105370254D01*
X153760623Y-105112740D01*
X153815000Y-104839365D01*
X153815000Y-104560635D01*
X153760623Y-104287260D01*
X153653957Y-104029746D01*
X153499103Y-103797990D01*
X153302010Y-103600897D01*
X153070254Y-103446043D01*
X153031523Y-103430000D01*
X153070254Y-103413957D01*
X153302010Y-103259103D01*
X153499103Y-103062010D01*
X153653957Y-102830254D01*
X153760623Y-102572740D01*
X153815000Y-102299365D01*
X153815000Y-102020635D01*
X153760623Y-101747260D01*
X153653957Y-101489746D01*
X153499103Y-101257990D01*
X153302010Y-101060897D01*
X153070254Y-100906043D01*
X153031523Y-100890000D01*
X153070254Y-100873957D01*
X153302010Y-100719103D01*
X153499103Y-100522010D01*
X153653957Y-100290254D01*
X153760623Y-100032740D01*
X153815000Y-99759365D01*
X153815000Y-99480635D01*
X153760623Y-99207260D01*
X153653957Y-98949746D01*
X153499103Y-98717990D01*
X153302010Y-98520897D01*
X153070254Y-98366043D01*
X153031523Y-98350000D01*
X153070254Y-98333957D01*
X153302010Y-98179103D01*
X153499103Y-97982010D01*
X153653957Y-97750254D01*
X153760623Y-97492740D01*
X153815000Y-97219365D01*
X153815000Y-96940635D01*
X153760623Y-96667260D01*
X153653957Y-96409746D01*
X153499103Y-96177990D01*
X153302010Y-95980897D01*
X153070254Y-95826043D01*
X153031523Y-95810000D01*
X153070254Y-95793957D01*
X153302010Y-95639103D01*
X153499103Y-95442010D01*
X153653957Y-95210254D01*
X153760623Y-94952740D01*
X153815000Y-94679365D01*
X153815000Y-94400635D01*
X153760623Y-94127260D01*
X153653957Y-93869746D01*
X153499103Y-93637990D01*
X153302010Y-93440897D01*
X153070254Y-93286043D01*
X153031523Y-93270000D01*
X153070254Y-93253957D01*
X153302010Y-93099103D01*
X153499103Y-92902010D01*
X153653957Y-92670254D01*
X153760623Y-92412740D01*
X153815000Y-92139365D01*
X153815000Y-91860635D01*
X153760623Y-91587260D01*
X153653957Y-91329746D01*
X153499103Y-91097990D01*
X153302010Y-90900897D01*
X153070254Y-90746043D01*
X153031523Y-90730000D01*
X153070254Y-90713957D01*
X153302010Y-90559103D01*
X153499103Y-90362010D01*
X153653957Y-90130254D01*
X153760623Y-89872740D01*
X153815000Y-89599365D01*
X153815000Y-89320635D01*
X153760623Y-89047260D01*
X153653957Y-88789746D01*
X153499103Y-88557990D01*
X153302010Y-88360897D01*
X153070254Y-88206043D01*
X153031523Y-88190000D01*
X153070254Y-88173957D01*
X153302010Y-88019103D01*
X153499103Y-87822010D01*
X153653957Y-87590254D01*
X153760623Y-87332740D01*
X153815000Y-87059365D01*
X153815000Y-86780635D01*
X153760623Y-86507260D01*
X153653957Y-86249746D01*
X153499103Y-86017990D01*
X153302010Y-85820897D01*
X153070254Y-85666043D01*
X153031523Y-85650000D01*
X153070254Y-85633957D01*
X153302010Y-85479103D01*
X153499103Y-85282010D01*
X153653957Y-85050254D01*
X153760623Y-84792740D01*
X153815000Y-84519365D01*
X153815000Y-84240635D01*
X153760623Y-83967260D01*
X153653957Y-83709746D01*
X153499103Y-83477990D01*
X153302010Y-83280897D01*
X153070254Y-83126043D01*
X153031523Y-83110000D01*
X153070254Y-83093957D01*
X153302010Y-82939103D01*
X153499103Y-82742010D01*
X153653957Y-82510254D01*
X153760623Y-82252740D01*
X153815000Y-81979365D01*
X153815000Y-81700635D01*
X153760623Y-81427260D01*
X153653957Y-81169746D01*
X153499103Y-80937990D01*
X153302010Y-80740897D01*
X153070254Y-80586043D01*
X153031523Y-80570000D01*
X153070254Y-80553957D01*
X153302010Y-80399103D01*
X153499103Y-80202010D01*
X153593991Y-80060000D01*
X156366928Y-80060000D01*
X156366928Y-80297500D01*
X156383752Y-80468316D01*
X156433577Y-80632567D01*
X156514488Y-80783942D01*
X156597425Y-80885000D01*
X156514488Y-80986058D01*
X156433577Y-81137433D01*
X156383752Y-81301684D01*
X156366928Y-81472500D01*
X156366928Y-82047500D01*
X156383752Y-82218316D01*
X156433577Y-82382567D01*
X156514488Y-82533942D01*
X156623377Y-82666623D01*
X156720000Y-82745920D01*
X156720001Y-83116288D01*
X156676063Y-83160226D01*
X156562795Y-83329744D01*
X156484774Y-83518102D01*
X156445000Y-83718061D01*
X156445000Y-83921939D01*
X156484774Y-84121898D01*
X156562795Y-84310256D01*
X156676063Y-84479774D01*
X156820226Y-84623937D01*
X156989744Y-84737205D01*
X157178102Y-84815226D01*
X157378061Y-84855000D01*
X157581939Y-84855000D01*
X157781898Y-84815226D01*
X157970256Y-84737205D01*
X158139774Y-84623937D01*
X158283937Y-84479774D01*
X158397205Y-84310256D01*
X158475226Y-84121898D01*
X158515000Y-83921939D01*
X158515000Y-83718061D01*
X158475226Y-83518102D01*
X158397205Y-83329744D01*
X158283937Y-83160226D01*
X158240000Y-83116289D01*
X158240000Y-82745920D01*
X158336623Y-82666623D01*
X158445512Y-82533942D01*
X158526423Y-82382567D01*
X158576248Y-82218316D01*
X158593072Y-82047500D01*
X158593072Y-82040000D01*
X161094080Y-82040000D01*
X161173377Y-82136623D01*
X161306058Y-82245512D01*
X161457433Y-82326423D01*
X161621684Y-82376248D01*
X161792500Y-82393072D01*
X162367500Y-82393072D01*
X162538316Y-82376248D01*
X162702567Y-82326423D01*
X162853942Y-82245512D01*
X162877839Y-82225901D01*
X162950506Y-82285537D01*
X163060820Y-82344502D01*
X163180518Y-82380812D01*
X163305000Y-82393072D01*
X163544250Y-82390000D01*
X163703000Y-82231250D01*
X163703000Y-81407000D01*
X163957000Y-81407000D01*
X163957000Y-82231250D01*
X164115750Y-82390000D01*
X164355000Y-82393072D01*
X164479482Y-82380812D01*
X164599180Y-82344502D01*
X164709494Y-82285537D01*
X164806185Y-82206185D01*
X164885537Y-82109494D01*
X164944502Y-81999180D01*
X164980812Y-81879482D01*
X164993072Y-81755000D01*
X164990000Y-81565750D01*
X164831250Y-81407000D01*
X163957000Y-81407000D01*
X163703000Y-81407000D01*
X163683000Y-81407000D01*
X163683000Y-81153000D01*
X163703000Y-81153000D01*
X163703000Y-80328750D01*
X163957000Y-80328750D01*
X163957000Y-81153000D01*
X164831250Y-81153000D01*
X164990000Y-80994250D01*
X164993072Y-80805000D01*
X164980812Y-80680518D01*
X164944502Y-80560820D01*
X164885537Y-80450506D01*
X164806185Y-80353815D01*
X164709494Y-80274463D01*
X164599180Y-80215498D01*
X164479482Y-80179188D01*
X164355000Y-80166928D01*
X164115750Y-80170000D01*
X163957000Y-80328750D01*
X163703000Y-80328750D01*
X163544250Y-80170000D01*
X163305000Y-80166928D01*
X163180518Y-80179188D01*
X163060820Y-80215498D01*
X162950506Y-80274463D01*
X162877839Y-80334099D01*
X162853942Y-80314488D01*
X162702567Y-80233577D01*
X162538316Y-80183752D01*
X162367500Y-80166928D01*
X161792500Y-80166928D01*
X161621684Y-80183752D01*
X161457433Y-80233577D01*
X161306058Y-80314488D01*
X161173377Y-80423377D01*
X161094080Y-80520000D01*
X158734801Y-80520000D01*
X161952800Y-77302002D01*
X161999748Y-77302002D01*
X161920000Y-77381750D01*
X161932914Y-77491932D01*
X161972557Y-77610568D01*
X162034583Y-77719190D01*
X162116608Y-77813625D01*
X162215480Y-77890243D01*
X162327400Y-77946099D01*
X162448066Y-77979048D01*
X162523250Y-77985000D01*
X162682000Y-77826250D01*
X162682000Y-77338072D01*
X162928000Y-77338072D01*
X162928000Y-77826250D01*
X163086750Y-77985000D01*
X163161934Y-77979048D01*
X163282600Y-77946099D01*
X163394520Y-77890243D01*
X163493392Y-77813625D01*
X163510780Y-77793606D01*
X163530724Y-77809974D01*
X163662753Y-77880546D01*
X163806014Y-77924003D01*
X163917667Y-77935000D01*
X163917676Y-77935000D01*
X163954999Y-77938676D01*
X163983836Y-77935836D01*
X163937794Y-78004743D01*
X163859773Y-78193101D01*
X163819999Y-78393060D01*
X163819999Y-78596938D01*
X163859773Y-78796897D01*
X163937794Y-78985255D01*
X164051062Y-79154773D01*
X164195225Y-79298936D01*
X164364743Y-79412204D01*
X164553101Y-79490225D01*
X164753060Y-79529999D01*
X164956938Y-79529999D01*
X165156897Y-79490225D01*
X165345255Y-79412204D01*
X165514773Y-79298936D01*
X165658936Y-79154773D01*
X165772204Y-78985255D01*
X165850225Y-78796897D01*
X165889999Y-78596938D01*
X165889999Y-78393060D01*
X165850225Y-78193101D01*
X165772204Y-78004743D01*
X165658936Y-77835225D01*
X165614999Y-77791288D01*
X165614999Y-77729518D01*
X165635536Y-77704494D01*
X165694501Y-77594180D01*
X165730811Y-77474482D01*
X165743071Y-77350000D01*
X165743071Y-77000000D01*
X165730811Y-76875518D01*
X165723698Y-76852069D01*
X165727085Y-76841932D01*
X165739999Y-76731750D01*
X165581249Y-76573000D01*
X165576032Y-76573000D01*
X165556184Y-76548815D01*
X165527165Y-76525000D01*
X165556184Y-76501185D01*
X165576032Y-76477000D01*
X165581249Y-76477000D01*
X165739999Y-76318250D01*
X165727085Y-76208068D01*
X165723698Y-76197931D01*
X165730811Y-76174482D01*
X165743071Y-76050000D01*
X165743071Y-75700000D01*
X165730811Y-75575518D01*
X165723070Y-75550000D01*
X165730811Y-75524482D01*
X165743071Y-75400000D01*
X165743071Y-75050000D01*
X165730811Y-74925518D01*
X165694501Y-74805820D01*
X165635536Y-74695506D01*
X165556184Y-74598815D01*
X165459493Y-74519463D01*
X165349179Y-74460498D01*
X165229481Y-74424188D01*
X165104999Y-74411928D01*
X164604999Y-74411928D01*
X164480517Y-74424188D01*
X164360819Y-74460498D01*
X164250505Y-74519463D01*
X164153814Y-74598815D01*
X164074462Y-74695506D01*
X164015497Y-74805820D01*
X163979187Y-74925518D01*
X163966927Y-75050000D01*
X163966927Y-75137854D01*
X163862753Y-75169454D01*
X163730724Y-75240026D01*
X163693072Y-75270926D01*
X163693072Y-75050000D01*
X163680812Y-74925518D01*
X163644502Y-74805820D01*
X163585537Y-74695506D01*
X163506185Y-74598815D01*
X163409494Y-74519463D01*
X163299180Y-74460498D01*
X163179482Y-74424188D01*
X163068011Y-74413209D01*
X159263804Y-70609003D01*
X159240001Y-70579999D01*
X159124276Y-70485026D01*
X158992247Y-70414454D01*
X158848986Y-70370997D01*
X158737333Y-70360000D01*
X158737322Y-70360000D01*
X158700000Y-70356324D01*
X158662678Y-70360000D01*
X158452964Y-70360000D01*
X158445512Y-70346058D01*
X158362575Y-70245000D01*
X158445512Y-70143942D01*
X158526423Y-69992567D01*
X158576248Y-69828316D01*
X158593072Y-69657500D01*
X158593072Y-69082500D01*
X158576248Y-68911684D01*
X158526423Y-68747433D01*
X158445512Y-68596058D01*
X158336623Y-68463377D01*
X158206402Y-68356507D01*
X158185546Y-68287753D01*
X158114974Y-68155724D01*
X158020001Y-68039999D01*
X157991003Y-68016201D01*
X157445683Y-67470881D01*
X158768724Y-67470881D01*
X159128912Y-67960548D01*
X159792882Y-68320849D01*
X160514385Y-68544694D01*
X161265695Y-68623480D01*
X162017938Y-68554178D01*
X162742208Y-68339452D01*
X163410670Y-67987555D01*
X163451088Y-67960548D01*
X163811276Y-67470881D01*
X161290000Y-64949605D01*
X158768724Y-67470881D01*
X157445683Y-67470881D01*
X157245000Y-67270199D01*
X157245000Y-67208061D01*
X157205226Y-67008102D01*
X157127205Y-66819744D01*
X157013937Y-66650226D01*
X156869774Y-66506063D01*
X156700256Y-66392795D01*
X156511898Y-66314774D01*
X156311939Y-66275000D01*
X156108061Y-66275000D01*
X155908102Y-66314774D01*
X155719744Y-66392795D01*
X155550226Y-66506063D01*
X155406063Y-66650226D01*
X155292795Y-66819744D01*
X155214774Y-67008102D01*
X155175000Y-67208061D01*
X155175000Y-67411939D01*
X155214774Y-67611898D01*
X155292795Y-67800256D01*
X155406063Y-67969774D01*
X155550226Y-68113937D01*
X155719744Y-68227205D01*
X155908102Y-68305226D01*
X156108061Y-68345000D01*
X156170199Y-68345000D01*
X156482013Y-68656815D01*
X156433577Y-68747433D01*
X156383752Y-68911684D01*
X156366928Y-69082500D01*
X156366928Y-69657500D01*
X156383752Y-69828316D01*
X156433577Y-69992567D01*
X156514488Y-70143942D01*
X156597425Y-70245000D01*
X156514488Y-70346058D01*
X156433577Y-70497433D01*
X156383752Y-70661684D01*
X156366928Y-70832500D01*
X156366928Y-70920000D01*
X153593991Y-70920000D01*
X153499103Y-70777990D01*
X153302010Y-70580897D01*
X153070254Y-70426043D01*
X153031523Y-70410000D01*
X153070254Y-70393957D01*
X153302010Y-70239103D01*
X153499103Y-70042010D01*
X153653957Y-69810254D01*
X153760623Y-69552740D01*
X153815000Y-69279365D01*
X153815000Y-69000635D01*
X153760623Y-68727260D01*
X153653957Y-68469746D01*
X153499103Y-68237990D01*
X153302010Y-68040897D01*
X153070254Y-67886043D01*
X153034475Y-67871223D01*
X153129655Y-67820349D01*
X153198816Y-67578421D01*
X152400000Y-66779605D01*
X151601184Y-67578421D01*
X151670345Y-67820349D01*
X151772279Y-67868425D01*
X151729746Y-67886043D01*
X151497990Y-68040897D01*
X151300897Y-68237990D01*
X151146043Y-68469746D01*
X151039377Y-68727260D01*
X150985000Y-69000635D01*
X130475437Y-69000635D01*
X128418072Y-66943271D01*
X128418072Y-66671303D01*
X150979943Y-66671303D01*
X151021140Y-66946972D01*
X151115325Y-67209308D01*
X151179651Y-67329655D01*
X151421579Y-67398816D01*
X152220395Y-66600000D01*
X152579605Y-66600000D01*
X153378421Y-67398816D01*
X153620349Y-67329655D01*
X153739248Y-67077557D01*
X153806681Y-66807106D01*
X153820057Y-66528697D01*
X153778860Y-66253028D01*
X153684675Y-65990692D01*
X153620349Y-65870345D01*
X153378421Y-65801184D01*
X152579605Y-66600000D01*
X152220395Y-66600000D01*
X151421579Y-65801184D01*
X151179651Y-65870345D01*
X151060752Y-66122443D01*
X150993319Y-66392894D01*
X150979943Y-66671303D01*
X128418072Y-66671303D01*
X128418072Y-65820000D01*
X128405812Y-65695518D01*
X128383383Y-65621579D01*
X151601184Y-65621579D01*
X152400000Y-66420395D01*
X153198816Y-65621579D01*
X153129655Y-65379651D01*
X152877557Y-65260752D01*
X152607106Y-65193319D01*
X152328697Y-65179943D01*
X152053028Y-65221140D01*
X151790692Y-65315325D01*
X151670345Y-65379651D01*
X151601184Y-65621579D01*
X128383383Y-65621579D01*
X128369502Y-65575820D01*
X128310537Y-65465506D01*
X128231185Y-65368815D01*
X128134494Y-65289463D01*
X128024180Y-65230498D01*
X127904482Y-65194188D01*
X127780000Y-65181928D01*
X126220000Y-65181928D01*
X126095518Y-65194188D01*
X125975820Y-65230498D01*
X125865506Y-65289463D01*
X125768815Y-65368815D01*
X125689463Y-65465506D01*
X125630498Y-65575820D01*
X125594188Y-65695518D01*
X125581928Y-65820000D01*
X125581928Y-66943270D01*
X121408998Y-71116201D01*
X121380000Y-71139999D01*
X121356202Y-71168997D01*
X121356201Y-71168998D01*
X121285026Y-71255724D01*
X121214454Y-71387754D01*
X121170998Y-71531015D01*
X121156324Y-71680000D01*
X121160001Y-71717332D01*
X121160000Y-73944080D01*
X121063377Y-74023377D01*
X120954488Y-74156058D01*
X120873577Y-74307433D01*
X120823752Y-74471684D01*
X120820411Y-74505609D01*
X120140000Y-73825199D01*
X120140000Y-72585920D01*
X120236623Y-72506623D01*
X120345512Y-72373942D01*
X120426423Y-72222567D01*
X120476248Y-72058316D01*
X120493072Y-71887500D01*
X120493072Y-71312500D01*
X120476248Y-71141684D01*
X120426423Y-70977433D01*
X120345512Y-70826058D01*
X120325901Y-70802161D01*
X120385537Y-70729494D01*
X120444502Y-70619180D01*
X120480812Y-70499482D01*
X120493072Y-70375000D01*
X120490000Y-70135750D01*
X120331250Y-69977000D01*
X119507000Y-69977000D01*
X119507000Y-69997000D01*
X119253000Y-69997000D01*
X119253000Y-69977000D01*
X118428750Y-69977000D01*
X118270000Y-70135750D01*
X118266928Y-70375000D01*
X118279188Y-70499482D01*
X118315498Y-70619180D01*
X118374463Y-70729494D01*
X118434099Y-70802161D01*
X118414488Y-70826058D01*
X118333577Y-70977433D01*
X118283752Y-71141684D01*
X118266928Y-71312500D01*
X118266928Y-71887500D01*
X118283752Y-72058316D01*
X118333577Y-72222567D01*
X118414488Y-72373942D01*
X118523377Y-72506623D01*
X118620000Y-72585920D01*
X118620001Y-74102668D01*
X118616324Y-74140000D01*
X118630998Y-74288985D01*
X118674454Y-74432246D01*
X118745026Y-74564276D01*
X118793694Y-74623577D01*
X118840000Y-74680001D01*
X118868998Y-74703799D01*
X120806928Y-76641731D01*
X120806928Y-76967500D01*
X120823752Y-77138316D01*
X120873577Y-77302567D01*
X120954488Y-77453942D01*
X121063377Y-77586623D01*
X121196058Y-77695512D01*
X121347433Y-77776423D01*
X121511684Y-77826248D01*
X121682500Y-77843072D01*
X122157500Y-77843072D01*
X122328316Y-77826248D01*
X122492567Y-77776423D01*
X122643942Y-77695512D01*
X122776623Y-77586623D01*
X122885512Y-77453942D01*
X122892964Y-77440000D01*
X125245198Y-77440000D01*
X124070199Y-78615000D01*
X118226181Y-78615000D01*
X118063227Y-78371123D01*
X117843877Y-78151773D01*
X117707286Y-78060505D01*
X117752871Y-77927476D01*
X116840000Y-77014605D01*
X116825858Y-77028748D01*
X116646253Y-76849143D01*
X116660395Y-76835000D01*
X117019605Y-76835000D01*
X117932476Y-77747871D01*
X118190723Y-77659377D01*
X118325597Y-77380024D01*
X118403381Y-77079725D01*
X118421084Y-76770023D01*
X118378027Y-76462816D01*
X118275865Y-76169914D01*
X118190723Y-76010623D01*
X117932476Y-75922129D01*
X117019605Y-76835000D01*
X116660395Y-76835000D01*
X115747524Y-75922129D01*
X115489277Y-76010623D01*
X115354403Y-76289976D01*
X115276619Y-76590275D01*
X115258916Y-76899977D01*
X115267091Y-76958301D01*
X115212870Y-77012522D01*
X115124377Y-76754277D01*
X114845024Y-76619403D01*
X114544725Y-76541619D01*
X114235023Y-76523916D01*
X113927816Y-76566973D01*
X113634914Y-76669135D01*
X113475623Y-76754277D01*
X113387129Y-77012524D01*
X114300000Y-77925395D01*
X114314143Y-77911253D01*
X114493748Y-78090858D01*
X114479605Y-78105000D01*
X114493748Y-78119143D01*
X114314143Y-78298748D01*
X114300000Y-78284605D01*
X113387129Y-79197476D01*
X113447961Y-79375000D01*
X113387129Y-79552524D01*
X114300000Y-80465395D01*
X114314143Y-80451253D01*
X114493748Y-80630858D01*
X114479605Y-80645000D01*
X114493748Y-80659143D01*
X114314143Y-80838748D01*
X114300000Y-80824605D01*
X113387129Y-81737476D01*
X113447961Y-81915000D01*
X113387129Y-82092524D01*
X114300000Y-83005395D01*
X114314143Y-82991253D01*
X114493748Y-83170858D01*
X114479605Y-83185000D01*
X115392476Y-84097871D01*
X115650723Y-84009377D01*
X115785597Y-83730024D01*
X115863381Y-83429725D01*
X115881084Y-83120023D01*
X115872909Y-83061699D01*
X115927130Y-83007478D01*
X116015623Y-83265723D01*
X116294976Y-83400597D01*
X116595275Y-83478381D01*
X116904977Y-83496084D01*
X117212184Y-83453027D01*
X117505086Y-83350865D01*
X117664377Y-83265723D01*
X117752871Y-83007476D01*
X116840000Y-82094605D01*
X116825858Y-82108748D01*
X116646253Y-81929143D01*
X116660395Y-81915000D01*
X117019605Y-81915000D01*
X117932476Y-82827871D01*
X118190723Y-82739377D01*
X118325597Y-82460024D01*
X118403381Y-82159725D01*
X118421084Y-81850023D01*
X118378027Y-81542816D01*
X118275865Y-81249914D01*
X118190723Y-81090623D01*
X117932476Y-81002129D01*
X117019605Y-81915000D01*
X116660395Y-81915000D01*
X116646253Y-81900858D01*
X116825858Y-81721253D01*
X116840000Y-81735395D01*
X117752871Y-80822524D01*
X117707286Y-80689495D01*
X117843877Y-80598227D01*
X118063227Y-80378877D01*
X118226181Y-80135000D01*
X124347678Y-80135000D01*
X124385000Y-80138676D01*
X124422322Y-80135000D01*
X124422333Y-80135000D01*
X124533986Y-80124003D01*
X124677247Y-80080546D01*
X124809276Y-80009974D01*
X124925001Y-79915001D01*
X124948804Y-79885997D01*
X125585000Y-79249802D01*
X125585000Y-79439365D01*
X125639377Y-79712740D01*
X125746043Y-79970254D01*
X125900897Y-80202010D01*
X126097990Y-80399103D01*
X126329746Y-80553957D01*
X126368477Y-80570000D01*
X126329746Y-80586043D01*
X126097990Y-80740897D01*
X125900897Y-80937990D01*
X125746043Y-81169746D01*
X125639377Y-81427260D01*
X125604972Y-81600226D01*
X111248998Y-95956201D01*
X111220000Y-95979999D01*
X111196202Y-96008997D01*
X111196201Y-96008998D01*
X111125026Y-96095724D01*
X111054454Y-96227754D01*
X111010998Y-96371015D01*
X110996324Y-96520000D01*
X103530000Y-96520000D01*
X103530000Y-93757350D01*
X105689400Y-93757350D01*
X105689400Y-94202650D01*
X105776274Y-94639393D01*
X105946682Y-95050796D01*
X106194077Y-95421048D01*
X106508952Y-95735923D01*
X106879204Y-95983318D01*
X107290607Y-96153726D01*
X107727350Y-96240600D01*
X108172650Y-96240600D01*
X108609393Y-96153726D01*
X109020796Y-95983318D01*
X109391048Y-95735923D01*
X109705923Y-95421048D01*
X109953318Y-95050796D01*
X110123726Y-94639393D01*
X110210600Y-94202650D01*
X110210600Y-93757350D01*
X110123726Y-93320607D01*
X109953318Y-92909204D01*
X109705923Y-92538952D01*
X109391048Y-92224077D01*
X109020796Y-91976682D01*
X108609393Y-91806274D01*
X108172650Y-91719400D01*
X107727350Y-91719400D01*
X107290607Y-91806274D01*
X106879204Y-91976682D01*
X106508952Y-92224077D01*
X106194077Y-92538952D01*
X105946682Y-92909204D01*
X105776274Y-93320607D01*
X105689400Y-93757350D01*
X103530000Y-93757350D01*
X103530000Y-84867350D01*
X105689400Y-84867350D01*
X105689400Y-85312650D01*
X105776274Y-85749393D01*
X105946682Y-86160796D01*
X106194077Y-86531048D01*
X106508952Y-86845923D01*
X106879204Y-87093318D01*
X107290607Y-87263726D01*
X107727350Y-87350600D01*
X108172650Y-87350600D01*
X108609393Y-87263726D01*
X109020796Y-87093318D01*
X109391048Y-86845923D01*
X109705923Y-86531048D01*
X109953318Y-86160796D01*
X110123726Y-85749393D01*
X110210600Y-85312650D01*
X110210600Y-84867350D01*
X110123726Y-84430607D01*
X110060298Y-84277476D01*
X113387129Y-84277476D01*
X113475623Y-84535723D01*
X113754976Y-84670597D01*
X114055275Y-84748381D01*
X114364977Y-84766084D01*
X114672184Y-84723027D01*
X114965086Y-84620865D01*
X115124377Y-84535723D01*
X115212871Y-84277476D01*
X114300000Y-83364605D01*
X113387129Y-84277476D01*
X110060298Y-84277476D01*
X109953318Y-84019204D01*
X109705923Y-83648952D01*
X109391048Y-83334077D01*
X109265184Y-83249977D01*
X112718916Y-83249977D01*
X112761973Y-83557184D01*
X112864135Y-83850086D01*
X112949277Y-84009377D01*
X113207524Y-84097871D01*
X114120395Y-83185000D01*
X113207524Y-82272129D01*
X112949277Y-82360623D01*
X112814403Y-82639976D01*
X112736619Y-82940275D01*
X112718916Y-83249977D01*
X109265184Y-83249977D01*
X109020796Y-83086682D01*
X108609393Y-82916274D01*
X108172650Y-82829400D01*
X107727350Y-82829400D01*
X107290607Y-82916274D01*
X106879204Y-83086682D01*
X106508952Y-83334077D01*
X106194077Y-83648952D01*
X105946682Y-84019204D01*
X105776274Y-84430607D01*
X105689400Y-84867350D01*
X103530000Y-84867350D01*
X103530000Y-80709977D01*
X112718916Y-80709977D01*
X112761973Y-81017184D01*
X112864135Y-81310086D01*
X112949277Y-81469377D01*
X113207524Y-81557871D01*
X114120395Y-80645000D01*
X113207524Y-79732129D01*
X112949277Y-79820623D01*
X112814403Y-80099976D01*
X112736619Y-80400275D01*
X112718916Y-80709977D01*
X103530000Y-80709977D01*
X103530000Y-78169977D01*
X112718916Y-78169977D01*
X112761973Y-78477184D01*
X112864135Y-78770086D01*
X112949277Y-78929377D01*
X113207524Y-79017871D01*
X114120395Y-78105000D01*
X113207524Y-77192129D01*
X112949277Y-77280623D01*
X112814403Y-77559976D01*
X112736619Y-77860275D01*
X112718916Y-78169977D01*
X103530000Y-78169977D01*
X103530000Y-74707350D01*
X105689400Y-74707350D01*
X105689400Y-75152650D01*
X105776274Y-75589393D01*
X105946682Y-76000796D01*
X106194077Y-76371048D01*
X106508952Y-76685923D01*
X106879204Y-76933318D01*
X107290607Y-77103726D01*
X107727350Y-77190600D01*
X108172650Y-77190600D01*
X108609393Y-77103726D01*
X109020796Y-76933318D01*
X109391048Y-76685923D01*
X109705923Y-76371048D01*
X109953318Y-76000796D01*
X110060297Y-75742524D01*
X115927129Y-75742524D01*
X116840000Y-76655395D01*
X117752871Y-75742524D01*
X117664377Y-75484277D01*
X117385024Y-75349403D01*
X117084725Y-75271619D01*
X116775023Y-75253916D01*
X116467816Y-75296973D01*
X116174914Y-75399135D01*
X116015623Y-75484277D01*
X115927129Y-75742524D01*
X110060297Y-75742524D01*
X110123726Y-75589393D01*
X110210600Y-75152650D01*
X110210600Y-74707350D01*
X110123726Y-74270607D01*
X109953318Y-73859204D01*
X109705923Y-73488952D01*
X109391048Y-73174077D01*
X109020796Y-72926682D01*
X108609393Y-72756274D01*
X108172650Y-72669400D01*
X107727350Y-72669400D01*
X107290607Y-72756274D01*
X106879204Y-72926682D01*
X106508952Y-73174077D01*
X106194077Y-73488952D01*
X105946682Y-73859204D01*
X105776274Y-74270607D01*
X105689400Y-74707350D01*
X103530000Y-74707350D01*
X103530000Y-69325000D01*
X118266928Y-69325000D01*
X118270000Y-69564250D01*
X118428750Y-69723000D01*
X119253000Y-69723000D01*
X119253000Y-68848750D01*
X119507000Y-68848750D01*
X119507000Y-69723000D01*
X120331250Y-69723000D01*
X120490000Y-69564250D01*
X120493072Y-69325000D01*
X120480812Y-69200518D01*
X120444502Y-69080820D01*
X120385537Y-68970506D01*
X120306185Y-68873815D01*
X120209494Y-68794463D01*
X120099180Y-68735498D01*
X119979482Y-68699188D01*
X119855000Y-68686928D01*
X119665750Y-68690000D01*
X119507000Y-68848750D01*
X119253000Y-68848750D01*
X119094250Y-68690000D01*
X118905000Y-68686928D01*
X118780518Y-68699188D01*
X118660820Y-68735498D01*
X118550506Y-68794463D01*
X118453815Y-68873815D01*
X118374463Y-68970506D01*
X118315498Y-69080820D01*
X118279188Y-69200518D01*
X118266928Y-69325000D01*
X103530000Y-69325000D01*
X103530000Y-67470881D01*
X110508724Y-67470881D01*
X110868912Y-67960548D01*
X111532882Y-68320849D01*
X112254385Y-68544694D01*
X113005695Y-68623480D01*
X113757938Y-68554178D01*
X114482208Y-68339452D01*
X115150670Y-67987555D01*
X115191088Y-67960548D01*
X115551276Y-67470881D01*
X113030000Y-64949605D01*
X110508724Y-67470881D01*
X103530000Y-67470881D01*
X103530000Y-64745695D01*
X109176520Y-64745695D01*
X109245822Y-65497938D01*
X109460548Y-66222208D01*
X109812445Y-66890670D01*
X109839452Y-66931088D01*
X110329119Y-67291276D01*
X112850395Y-64770000D01*
X113209605Y-64770000D01*
X115730881Y-67291276D01*
X116220548Y-66931088D01*
X116580849Y-66267118D01*
X116804694Y-65545615D01*
X116883480Y-64794305D01*
X116879002Y-64745695D01*
X157436520Y-64745695D01*
X157505822Y-65497938D01*
X157720548Y-66222208D01*
X158072445Y-66890670D01*
X158099452Y-66931088D01*
X158589119Y-67291276D01*
X161110395Y-64770000D01*
X161469605Y-64770000D01*
X163990881Y-67291276D01*
X164480548Y-66931088D01*
X164840849Y-66267118D01*
X165064694Y-65545615D01*
X165143480Y-64794305D01*
X165074178Y-64042062D01*
X164859452Y-63317792D01*
X164507555Y-62649330D01*
X164480548Y-62608912D01*
X163990881Y-62248724D01*
X161469605Y-64770000D01*
X161110395Y-64770000D01*
X158589119Y-62248724D01*
X158099452Y-62608912D01*
X157739151Y-63272882D01*
X157515306Y-63994385D01*
X157436520Y-64745695D01*
X116879002Y-64745695D01*
X116814178Y-64042062D01*
X116599452Y-63317792D01*
X116247555Y-62649330D01*
X116220548Y-62608912D01*
X115730881Y-62248724D01*
X113209605Y-64770000D01*
X112850395Y-64770000D01*
X110329119Y-62248724D01*
X109839452Y-62608912D01*
X109479151Y-63272882D01*
X109255306Y-63994385D01*
X109176520Y-64745695D01*
X103530000Y-64745695D01*
X103530000Y-62069119D01*
X110508724Y-62069119D01*
X113030000Y-64590395D01*
X115551276Y-62069119D01*
X158768724Y-62069119D01*
X161290000Y-64590395D01*
X163811276Y-62069119D01*
X163451088Y-61579452D01*
X162787118Y-61219151D01*
X162065615Y-60995306D01*
X161314305Y-60916520D01*
X160562062Y-60985822D01*
X159837792Y-61200548D01*
X159169330Y-61552445D01*
X159128912Y-61579452D01*
X158768724Y-62069119D01*
X115551276Y-62069119D01*
X115191088Y-61579452D01*
X114527118Y-61219151D01*
X113805615Y-60995306D01*
X113054305Y-60916520D01*
X112302062Y-60985822D01*
X111577792Y-61200548D01*
X110909330Y-61552445D01*
X110868912Y-61579452D01*
X110508724Y-62069119D01*
X103530000Y-62069119D01*
X103530000Y-59080000D01*
X166980000Y-59080000D01*
X166980001Y-127610000D01*
G37*
%TD.AperFunction*%
D19*
X112814403Y-96609976D02*
X112736619Y-96910275D01*
X112718916Y-97219977D01*
X112761973Y-97527184D01*
X112864135Y-97820086D01*
X112949277Y-97979377D01*
X113207524Y-98067871D01*
X114120395Y-97155000D01*
X114106253Y-97140858D01*
X114285858Y-96961253D01*
X114300000Y-96975395D01*
X114314143Y-96961253D01*
X114493748Y-97140858D01*
X114479605Y-97155000D01*
X114493748Y-97169143D01*
X114314143Y-97348748D01*
X114300000Y-97334605D01*
X113387129Y-98247476D01*
X113432714Y-98380505D01*
X113296123Y-98471773D01*
X113076773Y-98691123D01*
X112913819Y-98935000D01*
X112709802Y-98935000D01*
X112520000Y-98745199D01*
X112520000Y-96834801D01*
X112879355Y-96475446D01*
X112814403Y-96609976D01*
%TA.AperFunction,Conductor*%
D20*
G36*
X112814403Y-96609976D02*
G01*
X112736619Y-96910275D01*
X112718916Y-97219977D01*
X112761973Y-97527184D01*
X112864135Y-97820086D01*
X112949277Y-97979377D01*
X113207524Y-98067871D01*
X114120395Y-97155000D01*
X114106253Y-97140858D01*
X114285858Y-96961253D01*
X114300000Y-96975395D01*
X114314143Y-96961253D01*
X114493748Y-97140858D01*
X114479605Y-97155000D01*
X114493748Y-97169143D01*
X114314143Y-97348748D01*
X114300000Y-97334605D01*
X113387129Y-98247476D01*
X113432714Y-98380505D01*
X113296123Y-98471773D01*
X113076773Y-98691123D01*
X112913819Y-98935000D01*
X112709802Y-98935000D01*
X112520000Y-98745199D01*
X112520000Y-96834801D01*
X112879355Y-96475446D01*
X112814403Y-96609976D01*
G37*
%TD.AperFunction*%
%TD*%
M02*
