M48
; DRILL file {KiCad 5.1.7-a382d34a8~88~ubuntu20.04.1} date Tue Mar 16 20:42:04 2021
; FORMAT={-:-/ absolute / inch / decimal}
; #@! TF.CreationDate,2021-03-16T20:42:04-04:00
; #@! TF.GenerationSoftware,Kicad,Pcbnew,5.1.7-a382d34a8~88~ubuntu20.04.1
; #@! TF.FileFunction,Plated,1,2,PTH
FMAT,2
INCH
T1C0.0157
T2C0.0400
T3C0.0409
T4C0.0512
T5C0.1260
%
G90
G05
T1
X6.15Y-2.65
X6.2Y-3.3
X6.4904Y-3.0904
T2
X4.5Y-3.075
X4.5Y-3.175
X4.5Y-3.275
X4.6Y-3.025
X4.6Y-3.125
X4.6Y-3.225
X4.5Y-3.825
X4.5Y-3.925
X4.5Y-4.025
X4.6Y-3.775
X4.6Y-3.875
X4.6Y-3.975
T3
X5.0Y-2.622
X5.0Y-2.722
X5.0Y-2.822
X5.0Y-2.922
X5.0Y-3.022
X5.0Y-3.122
X5.0Y-3.222
X5.0Y-3.322
X5.0Y-3.422
X5.0Y-3.522
X5.0Y-3.622
X5.0Y-3.722
X5.0Y-3.822
X5.0Y-3.922
X5.0Y-4.022
X5.0Y-4.122
X5.0Y-4.222
X5.0Y-4.322
X5.0Y-4.422
X6.0Y-2.622
X6.0Y-2.722
X6.0Y-2.822
X6.0Y-2.922
X6.0Y-3.022
X6.0Y-3.122
X6.0Y-3.222
X6.0Y-3.322
X6.0Y-3.422
X6.0Y-3.522
X6.0Y-3.622
X6.0Y-3.722
X6.0Y-3.822
X6.0Y-3.922
X6.0Y-4.022
X6.0Y-4.122
X6.0Y-4.222
X6.0Y-4.322
X6.0Y-4.422
T4
X5.4Y-4.85
X5.5969Y-4.85
T5
X6.35Y-4.85
X6.35Y-2.55
X4.45Y-2.55
X4.45Y-4.85
T0
M30
